<svg xmlns="http://www.w3.org/2000/svg" width="47.839" height="30.85" viewBox="0 0 47.839 30.85"><defs><style>.a{fill:#fbb400;}.a,.b{fill-rule:evenodd;}.b{fill:#d50c29;}</style></defs><g transform="translate(0 0)"><g transform="translate(0 0)"><path class="a" d="M323.874,187.267h0a3.424,3.424,0,0,0-.439,1.375,9.009,9.009,0,0,1-.417,1.763,4.657,4.657,0,0,1-1.446,2.047,19.607,19.607,0,0,0-3.351-5.778,4.655,4.655,0,0,1,2.507-.234,9.01,9.01,0,0,1,1.735.52,3.42,3.42,0,0,0,1.41.308Z" transform="translate(-279.239 -175.307)"/><path class="a" d="M267.12,133.066h0a3.424,3.424,0,0,0,.308,1.41,9,9,0,0,1,.52,1.735,4.654,4.654,0,0,1-.235,2.51,19.608,19.608,0,0,0-5.785-3.343,4.653,4.653,0,0,1,2.054-1.456,9.01,9.01,0,0,1,1.763-.417,3.42,3.42,0,0,0,1.375-.439Z" transform="translate(-231.24 -129.861)"/><path class="a" d="M347.218,250.991a4.659,4.659,0,0,1,2.275,1.049,9.01,9.01,0,0,1,1.242,1.318,3.421,3.421,0,0,0,1.067.971h-4.3A19.734,19.734,0,0,0,347.218,250.991Z" transform="translate(-303.963 -230.41)"/><path class="a" d="M129.617,133.067h0a3.424,3.424,0,0,0,1.375.439,9.014,9.014,0,0,1,1.763.417,4.655,4.655,0,0,1,2.054,1.456,19.6,19.6,0,0,0-5.785,3.343,4.653,4.653,0,0,1-.235-2.51,9.014,9.014,0,0,1,.52-1.735,3.42,3.42,0,0,0,.308-1.41Z" transform="translate(-117.658 -129.862)"/><path class="a" d="M75.417,187.268h0a3.424,3.424,0,0,0,1.41-.308,9.011,9.011,0,0,1,1.735-.52,4.656,4.656,0,0,1,2.507.234,19.611,19.611,0,0,0-3.351,5.778,4.658,4.658,0,0,1-1.446-2.047,9.006,9.006,0,0,1-.417-1.763A3.422,3.422,0,0,0,75.417,187.268Z" transform="translate(-72.213 -175.308)"/><path class="a" d="M53.672,254.33a3.424,3.424,0,0,0,1.067-.971,9.011,9.011,0,0,1,1.242-1.318,4.658,4.658,0,0,1,2.274-1.049,19.734,19.734,0,0,0-.287,3.338Z" transform="translate(-53.672 -230.41)"/><path class="a" d="M196.665,111.319h0a3.423,3.423,0,0,0,.971,1.067,9.009,9.009,0,0,1,1.318,1.242,4.654,4.654,0,0,1,1.052,2.292,19.761,19.761,0,0,0-6.683,0,4.653,4.653,0,0,1,1.052-2.292,9.01,9.01,0,0,1,1.318-1.242A3.421,3.421,0,0,0,196.665,111.319Z" transform="translate(-172.745 -111.319)"/></g><g transform="translate(6.144 6.466)"><path class="b" d="M172.337,262.008l1.476,0c.194-1.247-.185-2.207-1.447-1.978A6.4,6.4,0,0,0,169.472,262l1.947-.009c.217-.143.641-.305.816-.184A.236.236,0,0,1,172.337,262.008Z" transform="translate(-158.552 -244.55)"/><path class="b" d="M124.837,217.46h1.842A12.719,12.719,0,0,0,125.4,211.1,5.872,5.872,0,0,0,121,207.835c-2.873-.424-5.773.793-8.224,2.533a31.068,31.068,0,0,0-6.8,7.093l2.433,0c2.191-3.1,7.229-7.819,10.936-7.849a4.776,4.776,0,0,1,3.27,1.06A3.949,3.949,0,0,1,124,213.261c-.023.536-.5.7-.955.535a2.03,2.03,0,0,1-.853-.794,3.558,3.558,0,0,0-3.444-1.46,11.08,11.08,0,0,0-5,2.665,31.85,31.85,0,0,0-3.159,3.254H113.2a13.4,13.4,0,0,1,3.273-2.955,7.324,7.324,0,0,1,1.452-.711c1.345-.462,2.683-.345,3.278,1.329a5.261,5.261,0,0,1,.2,2.294v.043h1.779l0-.054c0-.58-.011-.97.041-1.544.045-.5.2-1.008.659-1.069.977-.2.93,1.969.949,2.668Z" transform="translate(-104.412 -200.006)"/><path class="b" d="M119.569,193.645h1.857a19.645,19.645,0,0,0-.736-6.5,11.629,11.629,0,0,0-.443-1.193,10.206,10.206,0,0,0-1.562-2.474,10.728,10.728,0,0,0-2.492-2.186,9.438,9.438,0,0,0-.868-.483h0a8.8,8.8,0,0,0-.92-.387h0c-3.617-1.284-7.275-.371-10.343,1.3-.6.325-1.174.679-1.722,1.051s-1.07.762-1.561,1.16h0a21.273,21.273,0,0,0-2.033,1.883c-.142.15-.282.3-.419.459-.365.414-.927.994-.76,1.594.132.476.746.336.96.172a6.241,6.241,0,0,0,1-.716c.418-.354.812-.734,1.226-1.093a20.65,20.65,0,0,1,5.133-3.325q.561-.247,1.122-.444t1.109-.339h0c3.2-.83,6.667-.292,8.89,2.313,2.141,2.51,2.532,5.869,2.565,9.208Zm-23.044-2.837a6.344,6.344,0,0,0,.615-.7.973.973,0,0,0,.209-1,.686.686,0,0,0-.186-.248.642.642,0,0,0-.268-.134.782.782,0,0,0-.776.33,3.394,3.394,0,0,0-.739,1.425,1.051,1.051,0,0,0-.009.276.684.684,0,0,0,.07.239h0a.34.34,0,0,0,.308.188.663.663,0,0,0,.095,0,.886.886,0,0,0,.106-.019h0a1.346,1.346,0,0,0,.572-.353Z" transform="translate(-95.365 -176.191)"/><path class="b" d="M143.208,172.652h.02a.823.823,0,0,0,.726-.407,1,1,0,0,0,.1-.226,1.361,1.361,0,0,0,.051-.3h0V171.7h0c.148-5.158-1.432-9.428-4.115-12.33a13.119,13.119,0,0,0-1.685-1.533,12.716,12.716,0,0,0-1.906-1.2h0l-.011-.005h0a13.588,13.588,0,0,0-7.321-1.382,14.524,14.524,0,0,0-2.888.543l-.007,0a16.4,16.4,0,0,0-6.94,4.268q-.572.581-1.09,1.212-.257.313-.5.637a24.416,24.416,0,0,1,4.386-3.048q.52-.279,1.046-.522t1.064-.453h0a16.067,16.067,0,0,1,4.044-1.017,14.968,14.968,0,0,1,4.048.1,12.282,12.282,0,0,1,2.771.764q.248.1.488.22t.464.243h0c3,1.645,5.091,5.02,6.01,8.831a19.012,19.012,0,0,1,.528,4.576h0v.044a1.112,1.112,0,0,0,.4.913.548.548,0,0,0,.146.066h0a.583.583,0,0,0,.169.022Z" transform="translate(-114.359 -155.197)"/><path class="a" d="M254.7,156.985a18.185,18.185,0,0,1,12.472,17.191H263.6A19.045,19.045,0,0,0,254.7,156.985Z" transform="translate(-231.22 -156.722)"/></g><path class="b" d="M95.285,290.922H93.839l-.358,1.26H92.329l1.524-4.823h1.46l1.567,4.823h-1.2ZM94,290.106h1.109q-.437-1.413-.565-1.939h-.014l-.229.916Zm6.591.816H99.149l-.358,1.26H97.639l1.524-4.823h1.46l1.567,4.823h-1.2Zm-1.281-.816h1.109q-.437-1.413-.565-1.939h-.014l-.229.916Zm3.979,2.054v-4.738a10.339,10.339,0,0,1,1.532-.107,3.128,3.128,0,0,1,2.214.645,2.237,2.237,0,0,1,.67,1.688,2.413,2.413,0,0,1-.763,1.907,3.482,3.482,0,0,1-2.357.676A10.312,10.312,0,0,1,103.292,292.16Zm1.109-3.95v3.142a2.286,2.286,0,0,0,.4.021,1.774,1.774,0,0,0,1.28-.435,1.647,1.647,0,0,0,.452-1.246,1.485,1.485,0,0,0-.413-1.134,1.671,1.671,0,0,0-1.19-.39A2.656,2.656,0,0,0,104.4,288.21Zm4.494-.852H110v1.854h1.9v-1.854h1.109v4.823H111.9v-2.011H110v2.011H108.9Zm8.137,3.564h-1.446l-.358,1.26h-1.152l1.524-4.823h1.46l1.567,4.823h-1.2Zm-1.281-.816h1.109q-.437-1.413-.565-1.939h-.014l-.229.916Zm6.591.816H120.9l-.358,1.26h-1.152l1.524-4.823h1.46l1.567,4.823h-1.2Zm-1.281-.816h1.109q-.437-1.413-.565-1.939h-.014l-.229.916Zm3.979,2.075v-4.759a8.8,8.8,0,0,1,1.5-.107,2.658,2.658,0,0,1,1.574.361,1.217,1.217,0,0,1,.48,1.034,1.18,1.18,0,0,1-.241.724,1.289,1.289,0,0,1-.625.457v.029a1.2,1.2,0,0,1,.651.887q.369,1.3.4,1.374h-1.131a5.566,5.566,0,0,1-.344-1.124,1.261,1.261,0,0,0-.272-.6.755.755,0,0,0-.551-.172h-.343v1.9Zm1.095-4.015v1.324h.458a1.035,1.035,0,0,0,.655-.188.609.609,0,0,0,.24-.506.6.6,0,0,0-.216-.493.961.961,0,0,0-.614-.173A2.426,2.426,0,0,0,126.134,288.167Z" transform="translate(-86.633 -261.381)"/></g></svg>