<svg xmlns="http://www.w3.org/2000/svg" width="20" height="20" viewBox="0 0 20 20">
  <path id="_3_Contact" data-name="3 Contact" d="M17.619,20H4.762a2.383,2.383,0,0,1-2.381-2.381v-.952H1.428a1.429,1.429,0,0,1,0-2.857h.953V11.428H1.428a1.428,1.428,0,1,1,0-2.857h.953V6.19H1.428a1.428,1.428,0,1,1,0-2.857h.953V2.381A2.384,2.384,0,0,1,4.762,0H17.619A2.384,2.384,0,0,1,20,2.381V17.619A2.383,2.383,0,0,1,17.619,20ZM11.176,10a4.632,4.632,0,0,0-4.7,3.6,1.428,1.428,0,0,0,1.413,1.643h6.577a1.427,1.427,0,0,0,1.4-1.642A4.632,4.632,0,0,0,11.176,10Zm.011-5.239h0A2.143,2.143,0,1,0,13.333,6.9a2.126,2.126,0,0,0-2.146-2.143Z" transform="translate(0 0)" fill="#FF8000"/>
</svg>
