<svg xmlns="http://www.w3.org/2000/svg" xmlns:xlink="http://www.w3.org/1999/xlink" width="16.627" height="16.627" viewBox="0 0 16.627 16.627"><defs><style>.a{fill:#fff;}.b{clip-path:url(#a);}</style><clipPath id="a"><path class="a" d="M.237,11.52a.812.812,0,0,0,1.148,0L5.879,7.026l4.494,4.494a.812.812,0,0,0,1.148-1.148L7.026,5.879,11.52,1.385A.812.812,0,1,0,10.372.237L5.879,4.731,1.385.237A.812.812,0,0,0,.237,1.385L4.731,5.879.237,10.372A.812.812,0,0,0,.237,11.52Z" transform="translate(8.314 0) rotate(45)"/></clipPath></defs><path class="a" d="M.237,9A.812.812,0,0,0,1.385,9L4.616,5.764,7.847,9A.812.812,0,0,0,9,7.847L5.764,4.616,9,1.385A.812.812,0,0,0,7.847.237L4.616,3.469,1.385.237A.812.812,0,0,0,.237,1.385L3.469,4.616.237,7.847A.812.812,0,0,0,.237,9Z" transform="translate(8.314 1.785) rotate(45)"/></svg>