<svg xmlns="http://www.w3.org/2000/svg" width="35.905" height="40" viewBox="0 0 35.905 40"><defs><style>.a{fill:#f3c716;}.b{stroke:#000;}</style></defs><g transform="translate(-63 -179)"><circle class="a" cx="8" cy="8" r="8" transform="translate(66 188)"/><g transform="translate(-29 5)"><g transform="translate(92 174)"><path d="M58.649,0H35.282a2.428,2.428,0,0,0-2.425,2.425V7.852a10.6,10.6,0,0,0,0,20.385v9.338A2.428,2.428,0,0,0,35.282,40h19.1a.854.854,0,0,0,.6-.25l5.843-5.843a.854.854,0,0,0,.25-.6V2.425A2.428,2.428,0,0,0,58.649,0ZM35.282,1.708H58.649a.718.718,0,0,1,.717.717V5h-24.8V2.425A.718.718,0,0,1,35.282,1.708Zm-8.4,16.336a8.891,8.891,0,1,1,8.891,8.891A8.9,8.9,0,0,1,26.878,18.045Zm7.687,19.53v-9A10.582,10.582,0,0,0,43.758,25h5.234a.854.854,0,1,0,0-1.708H44.974a10.523,10.523,0,0,0,1.354-4.331h2.663a.854.854,0,0,0,0-1.708H46.339a10.522,10.522,0,0,0-1.292-4.331h3.945a.854.854,0,0,0,0-1.708H43.868a10.582,10.582,0,0,0-9.3-3.7v-.8h24.8V32.449H55.949a2.428,2.428,0,0,0-2.425,2.425v3.418H35.282A.718.718,0,0,1,34.565,37.575Zm20.667-.491V34.874a.718.718,0,0,1,.717-.717h2.209Z" transform="translate(-25.17)"/><path d="M349.6,139.577h2.837a.854.854,0,1,0,0-1.708H349.6a.854.854,0,1,0,0,1.708Z" transform="translate(-322.423 -126.653)"/><path d="M349.6,213.818h2.837a.854.854,0,1,0,0-1.708H349.6a.854.854,0,1,0,0,1.708Z" transform="translate(-322.423 -194.855)"/><path d="M349.6,288.06h2.837a.854.854,0,0,0,0-1.708H349.6a.854.854,0,1,0,0,1.708Z" transform="translate(-322.423 -263.057)"/><path d="M294.236,362.3a.854.854,0,0,0,0-1.708h-7.991a.854.854,0,1,0,0,1.708Z" transform="translate(-264.222 -331.258)"/></g><path class="b" d="M74.137,161.389,70.848,158.1l.727-.727,1.957,1.957a.854.854,0,0,0,1.208,0l4.067-3.989.727.727Z" transform="translate(27.285 33.841)"/></g></g></svg>