<svg xmlns="http://www.w3.org/2000/svg" width="19.507" height="19.541" viewBox="0 0 19.507 19.541"><defs><style>.a{fill:#35a7ff;}</style></defs><g transform="translate(-4.233 -4.459)"><path class="a" d="M9.754,19.541a2.335,2.335,0,0,1-.917-.186L1.4,16.164A2.323,2.323,0,0,1,0,14.025v-8.5A2.388,2.388,0,0,1,1.4,3.383L8.837.192a2.352,2.352,0,0,1,1.86,0l7.414,3.191a2.3,2.3,0,0,1,.931.715,2.337,2.337,0,0,1,.464,1.424v8.5a2.322,2.322,0,0,1-1.4,2.139L10.67,19.354A2.331,2.331,0,0,1,9.754,19.541ZM9.768,2.332,2.326,5.522v8.5l7.442,3.191V8.788a.926.926,0,0,1,.563-.875l6.251-2.66L9.768,2.332Z" transform="translate(4.233 4.459)"/></g></svg>