<svg xmlns="http://www.w3.org/2000/svg" width="28" height="28" viewBox="0 0 28 28"><defs><style>.a{fill:#eb5b5b;}</style></defs><path class="a" d="M15.217,2.435c-.209,0-.411.005-.609.015V.609A.608.608,0,0,0,14,0,14.015,14.015,0,0,0,0,14a.608.608,0,0,0,.609.609H2.449c-.009.2-.015.4-.015.609A12.783,12.783,0,1,0,15.217,2.435ZM1.232,13.391A12.8,12.8,0,0,1,13.391,1.231V4.89a9.143,9.143,0,0,0-8.5,8.5H1.232ZM15.217,26.783A11.578,11.578,0,0,1,3.652,15.217c0-.211,0-.413.015-.609H5.478A.608.608,0,0,0,6.087,14,7.922,7.922,0,0,1,14,6.087a.608.608,0,0,0,.609-.609V3.667c.2-.01.4-.015.609-.015a11.565,11.565,0,1,1,0,23.13Z"/><g transform="translate(8.522 8.522)"><path class="a" d="M118.7,112a6.7,6.7,0,1,0,6.7,6.7A6.7,6.7,0,0,0,118.7,112Zm0,12.174a5.478,5.478,0,1,1,5.478-5.478A5.484,5.484,0,0,1,118.7,124.174Z" transform="translate(-112 -112)"/></g><g transform="translate(12.174 12.174)"><path class="a" d="M163.043,160a3.043,3.043,0,1,0,3.043,3.043A3.047,3.047,0,0,0,163.043,160Zm0,4.87a1.826,1.826,0,1,1,1.826-1.826A1.828,1.828,0,0,1,163.043,164.87Z" transform="translate(-160 -160)"/></g></svg>