<svg xmlns="http://www.w3.org/2000/svg" width="36.002" height="36" viewBox="0 0 36.002 36"><defs><style>.a{fill:#FF8000;}.b{fill:#7a797e;}</style></defs><g transform="translate(-444 7074)"><g transform="translate(444 -7074)"><path class="a" d="M29.1,41.2c0-.533-.131-.88-1.1-1.743a7.263,7.263,0,0,0-1.225-.9v-9.14a7.182,7.182,0,0,0,3.246-8.451.6.6,0,0,0-.993-.239l-3.873,3.843a.87.87,0,0,1-.612.249.85.85,0,0,1-.6-.25l-2.154-2.154a.85.85,0,0,1-.25-.6.868.868,0,0,1,.246-.609l3.846-3.876a.6.6,0,0,0-.24-.993,7.2,7.2,0,0,0-5.82,13.076v9.139a7.182,7.182,0,0,0-3.246,8.451.6.6,0,0,0,.993.239l3.873-3.843a.87.87,0,0,1,.612-.249.85.85,0,0,1,.6.25l2.154,2.154a.85.85,0,0,1,.25.6.868.868,0,0,1-.246.609l-3.846,3.876a.6.6,0,0,0,.24.993,7.263,7.263,0,0,0,7.188-1.658c.872-.838.957-.94.957-1.618Zm-5.18,9.547a6.066,6.066,0,0,1-1.6-.018l3.095-3.119a2.064,2.064,0,0,0,.591-1.452,2.031,2.031,0,0,0-.6-1.444L23.25,42.563a2.031,2.031,0,0,0-1.444-.6,2.067,2.067,0,0,0-1.455.594l-3.116,3.092a5.989,5.989,0,0,1,3.212-6.194.6.6,0,0,0,.327-.534V29.068a.6.6,0,0,0-.327-.534,6,6,0,0,1,3.581-11.278l-3.095,3.119a2.064,2.064,0,0,0-.591,1.452,2.031,2.031,0,0,0,.6,1.444L23.1,25.424a2.031,2.031,0,0,0,1.444.6A2.067,2.067,0,0,0,26,25.432l3.116-3.092A5.989,5.989,0,0,1,25.9,28.534a.6.6,0,0,0-.327.534V38.92a.6.6,0,0,0,.326.534A6.075,6.075,0,0,1,27.973,41.2v7.161a6.018,6.018,0,0,1-4.055,2.386Z" transform="translate(-15.971 -15.993)"/><path class="b" d="M196.02,35.362l-2.967-.422-1.827-.743V32.8a5.963,5.963,0,0,0,2.37-4.2h.03a2.4,2.4,0,0,0,.653-4.709,2.389,2.389,0,0,0-.053-1.4V20.2a4.2,4.2,0,0,0-4.2-4.2h-4.8a4.2,4.2,0,0,0-4.2,4.2v2.3a2.389,2.389,0,0,0-.053,1.4,2.4,2.4,0,0,0,.653,4.709h.03a5.963,5.963,0,0,0,2.37,4.2v1.425l-1.86.892-3.224.687a4.235,4.235,0,0,0-3.292,3.665c0,3.153-.193,9.1.144,10.522A3,3,0,0,0,178.626,52h1.8c.042,0,6.6-1.379,6.6-1.379V52h1.2V50.623l6.476,1.363a.606.606,0,0,0,.124.013h1.8a3,3,0,0,0,3-3V39.52A4.229,4.229,0,0,0,196.02,35.362Zm-8.394,6.452-.864-2.414h1.725Zm-2.4-8.317a5.97,5.97,0,0,0,4.8,0v1.012L188.875,38.2h-2.5l-1.151-3.691Zm4.657,5.5L191,35.4l1.26.513-.358,4.3-2.02-1.154.019-.053Zm.208-14.794a14.968,14.968,0,0,0-4.932,0l-1.645.274A1.221,1.221,0,0,1,182.1,23.2h11.059a1.221,1.221,0,0,1-1.418,1.277Zm-.666-2.2h-3.6V20.8h3.6Zm5.4,4.2a1.2,1.2,0,0,1-1.2,1.2V25.007l.007-.007A1.2,1.2,0,0,1,194.826,26.2Zm-12.6-6a3,3,0,0,1,3-3h4.8a3,3,0,0,1,3,3V22h-2.4V20.2a.6.6,0,0,0-.6-.6h-4.8a.6.6,0,0,0-.6.6V22h-2.4Zm-1.447,6.847A1.2,1.2,0,0,1,181.62,25l.006.006V27.4a1.208,1.208,0,0,1-.847-.352Zm2.047.952V25.646a2.442,2.442,0,0,0,.886.014l.367-.061a.9.9,0,1,0,1.553-.256,13.764,13.764,0,0,1,3.988,0,.9.9,0,1,0,1.553.256l.367.061a3.079,3.079,0,0,0,.886-.014V28a4.8,4.8,0,0,1-9.6,0Zm1.434,7.441,1.108,3.552-.022.008.02.056-2.02,1.154L183,36.046Zm-5.065,1.534,2.63-.56.4,4.835a.6.6,0,0,0,.319.481,1.144,1.144,0,0,0,.577-.01l2.654-1.517,1.248,3.5v1.371l-3.455-.266-2.545-1.091V41.2h-1.2v2l-.364-.156a.6.6,0,0,0-.236-.049h-2.4V39.91A3.024,3.024,0,0,1,179.195,36.975ZM180.363,50.8h-1.737a1.8,1.8,0,0,1-1.8-1.8v-.6h2.152L180,49.424a.6.6,0,0,0,.424.176h2.937l1.345.283ZM198.426,49a1.8,1.8,0,0,1-1.8,1.8h-1.738l-11.339-2.387c-.041-.008-2.875-.013-2.875-.013l-1.024-1.024a.6.6,0,0,0-.424-.176h-2.4v-3H179.1s4.212,1.793,4.277,1.8l15.046,1.157Zm0-3.048-5.4-.415,3.119-1.337h2.276Zm0-2.952h-2.4a5.048,5.048,0,0,0-.6.2v-2h-1.2V43h-4.8v1.2H193.1l-1.424.609-3.455.267V43.7l1.248-3.5,2.654,1.517a.6.6,0,0,0,.9-.471l.42-5.042,2.405.343a3.022,3.022,0,0,1,2.577,2.97Z" transform="translate(-163.624 -15.999)"/></g></g></svg>