<svg xmlns="http://www.w3.org/2000/svg" width="16" height="16" viewBox="0 0 16 16"><defs><style>.a{fill:#7a797e;}</style></defs><g transform="translate(0 4)"><path class="a" d="M15.478,14.957h-.7V11.3a1.567,1.567,0,0,0-1.565-1.565H12.7V6.087A1.567,1.567,0,0,0,11.13,4.522H8.522V4.078a1.558,1.558,0,0,0,.835-2.249h0L8.452.261a.522.522,0,0,0-.9,0l-.9,1.567a1.558,1.558,0,0,0,.835,2.249v.444H4.87A1.567,1.567,0,0,0,3.3,6.087V9.739H2.783A1.567,1.567,0,0,0,1.217,11.3v3.652h-.7A.522.522,0,1,0,.522,16H15.478a.522.522,0,1,0,0-1.043ZM7.547,2.35,8,1.565l.453.784a.512.512,0,0,1,.069.259.522.522,0,0,1-1.044,0A.515.515,0,0,1,7.547,2.35Zm-3.2,3.737a.522.522,0,0,1,.522-.522H11.13a.522.522,0,0,1,.522.522v1.5c-.049-.05-.1-.1-.16-.168a1.9,1.9,0,0,0-1.428-.78,1.9,1.9,0,0,0-1.427.78c-.289.315-.43.443-.66.443s-.39-.152-.661-.444A1.913,1.913,0,0,0,5.89,6.641a1.9,1.9,0,0,0-1.427.78c-.042.046-.078.083-.115.122V6.087Zm9.391,5.854a2.319,2.319,0,0,0-.929.7c-.289.315-.43.443-.66.443s-.37-.128-.659-.442a1.9,1.9,0,0,0-1.428-.78,1.9,1.9,0,0,0-1.427.78c-.289.315-.43.443-.66.443s-.39-.152-.661-.444a1.913,1.913,0,0,0-1.426-.778,1.9,1.9,0,0,0-1.427.78c-.289.315-.43.443-.66.443-.248,0-.457-.209-.77-.553a3.21,3.21,0,0,0-.772-.677V11.3a.522.522,0,0,1,.522-.522H13.217a.522.522,0,0,1,.522.522v.637Z" transform="translate(0 -4)"/></g></svg>