<svg xmlns="http://www.w3.org/2000/svg" width="14" height="14.317" viewBox="0 0 14 14.317"><defs><style>.a{fill:#7a797e;}</style></defs><g transform="translate(0)"><g transform="translate(0)"><path class="a" d="M118.819,258.567a.325.325,0,0,0-.325-.325H117.36a.325.325,0,0,0-.325.325V259.7a.325.325,0,0,0,.325.325h1.134a.325.325,0,0,0,.325-.325v-1.134Z" transform="translate(-113.761 -250.668)"/><path class="a" d="M215.454,258.567a.325.325,0,0,0-.325-.325h-1.134a.325.325,0,0,0-.325.325V259.7a.325.325,0,0,0,.325.325h1.134a.325.325,0,0,0,.325-.325Z" transform="translate(-207.562 -250.668)"/><path class="a" d="M312.082,258.567a.325.325,0,0,0-.325-.325h-1.134a.325.325,0,0,0-.325.325V259.7a.325.325,0,0,0,.325.325h1.134a.325.325,0,0,0,.325-.325Z" transform="translate(-301.356 -250.668)"/><path class="a" d="M118.819,355.2a.325.325,0,0,0-.325-.325H117.36a.325.325,0,0,0-.325.325v1.134a.325.325,0,0,0,.325.325h1.134a.325.325,0,0,0,.325-.325V355.2Z" transform="translate(-113.761 -344.467)"/><path class="a" d="M215.454,355.2a.325.325,0,0,0-.325-.325h-1.134a.325.325,0,0,0-.325.325v1.134a.325.325,0,0,0,.325.325h1.134a.325.325,0,0,0,.325-.325Z" transform="translate(-207.562 -344.467)"/><path class="a" d="M312.082,355.2a.325.325,0,0,0-.325-.325h-1.134a.325.325,0,0,0-.325.325v1.134a.325.325,0,0,0,.325.325h1.134a.325.325,0,0,0,.325-.325V355.2Z" transform="translate(-301.356 -344.467)"/><path class="a" d="M18.165,54.148V55.88a1.415,1.415,0,0,1-1.418,1.414h-.894a1.422,1.422,0,0,1-1.426-1.414V54.142H10.4V55.88a1.422,1.422,0,0,1-1.426,1.414H8.075A1.415,1.415,0,0,1,6.657,55.88V54.148a1.289,1.289,0,0,0-1.246,1.282v10.15a1.29,1.29,0,0,0,1.283,1.291H18.128a1.291,1.291,0,0,0,1.283-1.291V55.431A1.289,1.289,0,0,0,18.165,54.148Zm-.415,10.8a.555.555,0,0,1-.555.555H7.6a.555.555,0,0,1-.555-.555V59.706a.555.555,0,0,1,.555-.555h9.592a.555.555,0,0,1,.555.555v5.243Z" transform="translate(-5.411 -52.554)"/><path class="a" d="M80.036,3.811h.885a.486.486,0,0,0,.486-.486V.486A.486.486,0,0,0,80.921,0h-.885a.486.486,0,0,0-.486.486V3.325A.486.486,0,0,0,80.036,3.811Z" transform="translate(-77.376)"/><path class="a" d="M344.944,3.811h.885a.486.486,0,0,0,.486-.486V.486A.486.486,0,0,0,345.829,0h-.885a.486.486,0,0,0-.486.486V3.325A.486.486,0,0,0,344.944,3.811Z" transform="translate(-334.514)"/></g></g></svg>