<svg xmlns="http://www.w3.org/2000/svg" width="24.046" height="21.135" viewBox="0 0 24.046 21.135">
  <g id="Group_6469" data-name="Group 6469" transform="translate(-1842.75 -26.435)">
    <g id="Group_6459" data-name="Group 6459" transform="translate(1842.75 24.033)">
      <path id="Subtraction_2" data-name="Subtraction 2" d="M20.524,16.908H7.75a2.113,2.113,0,0,1-.84-4.053c-.077-.344-.978-4.4-1.687-7.592L4.366,1.409H.7A.7.7,0,1,1,.7,0H4.932a.709.709,0,0,1,.687.552l.5,2.266h.012l.32,1.55h.013l1.847,8.313H19.992L22.385,4.31h.093l.387-1.491h.477a.7.7,0,0,1,.678.9L21.2,13.579a.708.708,0,0,1-.678.511H7.751a.7.7,0,1,0,0,1.409H20.524a.7.7,0,0,1,0,1.409Z" transform="translate(0 2.402)" fill="#FF8000"/>
      <path id="Path_275" data-name="Path 275" d="M150,362.114A2.113,2.113,0,1,0,152.114,360,2.116,2.116,0,0,0,150,362.114Zm2.114-.7a.7.7,0,1,1-.7.7A.705.705,0,0,1,152.114,361.409Zm0,0" transform="translate(-142.955 -340.69)" fill="#FF8000"/>
      <path id="Path_276" data-name="Path 276" d="M362,362.114A2.113,2.113,0,1,0,364.114,360,2.116,2.116,0,0,0,362,362.114Zm2.114-.7a.7.7,0,1,1-.7.7A.705.705,0,0,1,364.114,361.409Zm0,0" transform="translate(-344.998 -340.69)" fill="#FF8000"/>
    </g>
  </g>
</svg>
