<svg xmlns="http://www.w3.org/2000/svg" width="13.35" height="13.35" viewBox="0 0 13.35 13.35"><defs><style>.a{fill:#FF8000;}.b{fill:#fff;}</style></defs><g transform="translate(-0.878 -0.878)"><g transform="translate(0.884 0.884)"><circle class="a" cx="6.672" cy="6.672" r="6.672"/></g><path class="b" d="M8.924,4.06H5.376V.512A.636.636,0,0,0,4.718,0,.636.636,0,0,0,4.06.512V4.06H.512A.636.636,0,0,0,0,4.718a.636.636,0,0,0,.512.658H4.06V8.924a.636.636,0,0,0,.658.512.636.636,0,0,0,.658-.512V5.376H8.924a.636.636,0,0,0,.512-.658A.636.636,0,0,0,8.924,4.06Z" transform="translate(7.551 0.878) rotate(45)"/></g></svg>