<svg xmlns="http://www.w3.org/2000/svg" xmlns:xlink="http://www.w3.org/1999/xlink" width="28" height="28" viewBox="0 0 28 28"><defs><style>.a{fill:#fff;}.b{clip-path:url(#a);}</style><clipPath id="a"><path class="a" d="M.323,15.677a1.105,1.105,0,0,0,1.562,0L8,9.562l6.115,6.115a1.1,1.1,0,0,0,1.562-1.562L9.562,8l6.115-6.115A1.1,1.1,0,1,0,14.115.323L8,6.438,1.885.323A1.1,1.1,0,0,0,.323,1.885L6.438,8,.323,14.115A1.105,1.105,0,0,0,.323,15.677Z" transform="translate(6 6)"/></clipPath></defs><path class="a" d="M.323,15.677a1.105,1.105,0,0,0,1.562,0L8,9.562l6.115,6.115a1.1,1.1,0,0,0,1.562-1.562L9.562,8l6.115-6.115A1.1,1.1,0,1,0,14.115.323L8,6.438,1.885.323A1.1,1.1,0,0,0,.323,1.885L6.438,8,.323,14.115A1.105,1.105,0,0,0,.323,15.677Z" transform="translate(6 6)"/></svg>