<svg xmlns="http://www.w3.org/2000/svg" width="120.75" height="120" viewBox="0 0 120.75 120"><defs><style>.a{fill:#f2f3f5;}.b{fill:#52b2e5;}.c{fill:#00a651;}</style></defs><g transform="translate(-172.573 -274.771)"><ellipse class="a" cx="60.375" cy="60" rx="60.375" ry="60" transform="translate(172.573 274.771)"/><path class="b" d="M320.69,406.365l10.1,39.494H369.62a4.467,4.467,0,0,1,4.271,4.6,4.379,4.379,0,0,1-4.271,4.6h-38.7v2.727h38.7a7.234,7.234,0,0,0,7.109-7.466,7.124,7.124,0,0,0-6.031-7.246L381,412.261H325.165l-2.21-8.761H315v2.865Zm56.326,8.761-9.251,27.868H332.916l-6.973-27.868Zm-34.289,8.25h-2.852V439.6h2.852Zm10.1,0h-2.852V439.6h2.852Zm10.111,0h-2.852V439.6h2.852Zm3.7,36.135a5.715,5.715,0,0,0-5.553,5.744A5.626,5.626,0,0,0,366.632,471a5.715,5.715,0,0,0,5.553-5.744A5.626,5.626,0,0,0,366.632,459.511Zm0,8.61a2.829,2.829,0,0,1-2.7-2.879,2.749,2.749,0,0,1,2.7-2.879,2.848,2.848,0,0,1,2.7,2.879A2.749,2.749,0,0,1,366.632,468.121Zm-30.305-8.61a5.748,5.748,0,1,0,5.553,5.744A5.626,5.626,0,0,0,336.327,459.511Zm0,8.61a2.885,2.885,0,1,1,2.7-2.879A2.749,2.749,0,0,1,336.327,468.121Z" transform="translate(-115.802 -91.604)"/><path class="c" d="M357.75,375a18.75,18.75,0,1,0,18.75,18.75A18.7,18.7,0,0,0,357.75,375Zm10.824,12.869h0l-13.636,14.148a.774.774,0,0,1-.6.256.663.663,0,0,1-.6-.256l-6.648-7.159-.17-.17a.824.824,0,0,1,0-1.193l1.193-1.193a.824.824,0,0,1,1.193,0l.085.085,4.688,5.028a.412.412,0,0,0,.6,0L366.1,385.568h.085a.824.824,0,0,1,1.193,0l1.193,1.193A.727.727,0,0,1,368.574,387.869Z" transform="translate(-121.802 -84.479)"/></g></svg>