<svg xmlns="http://www.w3.org/2000/svg" width="21.782" height="22" viewBox="0 0 21.782 22"><defs><style>.a{fill:#7a797e;}.b{fill:#FF8000;}</style></defs><g transform="translate(0 15.465)"><path class="a" d="M20.875,1.894H17.838A1.854,1.854,0,0,0,17.8,0h3.076a.929.929,0,0,1,.907.947A.929.929,0,0,1,20.875,1.894Zm-6.258,0H.908A.929.929,0,0,1,0,.947.929.929,0,0,1,.908,0H14.657a1.853,1.853,0,0,0-.04,1.894Z" transform="translate(0 2.396)"/><path class="b" d="M3.267,6.535A3.267,3.267,0,1,1,6.535,3.267,3.271,3.271,0,0,1,3.267,6.535Zm0-4.848a1.581,1.581,0,1,0,1.581,1.58A1.582,1.582,0,0,0,3.267,1.687Z" transform="translate(13.069 0)"/></g><g transform="translate(0 0)"><path class="a" d="M20.875,1.894H17.838A1.854,1.854,0,0,0,17.8,0h3.076a.929.929,0,0,1,.907.947A.929.929,0,0,1,20.875,1.894Zm-6.258,0H.908A.929.929,0,0,1,0,.947.929.929,0,0,1,.908,0H14.657a1.853,1.853,0,0,0-.04,1.894Z" transform="translate(0 2.396)"/><path class="b" d="M3.267,6.535A3.267,3.267,0,0,1,.957.957,3.267,3.267,0,0,1,5.578,5.578,3.246,3.246,0,0,1,3.267,6.535Zm0-4.848A1.581,1.581,0,1,0,4.848,3.267,1.583,1.583,0,0,0,3.267,1.686Z" transform="translate(13.069 0)"/></g><g transform="translate(0 7.841)"><path class="a" d="M20.875,0H17.838a1.854,1.854,0,0,1-.04,1.894h3.076a.929.929,0,0,0,.907-.947A.929.929,0,0,0,20.875,0ZM14.617,0H.908A.929.929,0,0,0,0,.947a.929.929,0,0,0,.908.947H14.657A1.853,1.853,0,0,1,14.617,0Z" transform="translate(21.782 4.29) rotate(180)"/><path class="b" d="M3.267,0A3.267,3.267,0,0,0,.957,5.578,3.267,3.267,0,0,0,5.578.957,3.246,3.246,0,0,0,3.267,0Zm0,4.848A1.581,1.581,0,1,1,4.848,3.267,1.583,1.583,0,0,1,3.267,4.848Z" transform="translate(8.713 6.535) rotate(180)"/></g></svg>