<svg xmlns="http://www.w3.org/2000/svg" width="21.483" height="20.563" viewBox="0 0 21.483 20.563"><defs><style>.a{fill:#FF8000;stroke:#7a797e;stroke-width:0.5px;}</style></defs><g transform="translate(0.241 0.25)"><path class="a" d="M11.591,10.939l-1.277-1.2a1.842,1.842,0,0,0,.241-.9,1.9,1.9,0,1,0-.893,1.588l1.276,1.195A4.316,4.316,0,0,1,11.591,10.939Z" transform="translate(-3.742 -4.287)"/><path class="a" d="M28.647,7.414l1.7-2.83a1.907,1.907,0,0,0,.522.081,1.886,1.886,0,1,0-1.346-.557L27.829,6.929a4.247,4.247,0,0,1,.818.485Z" transform="translate(-15.395 -0.911)"/><path class="a" d="M37.533,20.952A1.892,1.892,0,0,0,35.76,22.18l-2.36-.23V22a4.264,4.264,0,0,1-.1.889l2.357.231a1.89,1.89,0,1,0,1.866-2.17Z" transform="translate(-18.426 -12.08)"/><path class="a" d="M25.78,34.751l-.527-2.283a4.351,4.351,0,0,1-.93.213l.528,2.283a1.892,1.892,0,1,0,.929-.213Z" transform="translate(-13.181 -18.498)"/><path class="a" d="M6.415,25.37l-2.936.974a1.871,1.871,0,1,0,.31,1.024c0-.043-.009-.083-.013-.126l2.945-.977A4.259,4.259,0,0,1,6.415,25.37Z" transform="translate(0 -14.542)"/><ellipse class="a" cx="3.249" cy="3.219" rx="3.249" ry="3.219" transform="translate(7.399 6.703)"/></g></svg>