<svg xmlns="http://www.w3.org/2000/svg" width="25.01" height="16.793" viewBox="0 0 25.01 16.793"><defs><style>.a{fill:#7a797e;}.b{fill:#fff;}.c{fill:#FF8000;}</style></defs><path class="a" d="M184.24,315.012v-8.888c.878-.137,1.285-.83,1.688-1.513a.774.774,0,0,1,.76-.411q4.556.016,9.112,0a.79.79,0,0,1,.692.331c.276.357.578.692.867,1.038a1.946,1.946,0,0,0,1.582.724c.57,0,.688.119.688.683q0,5.2,0,10.406c0,.583-.144.73-.728.73q-4.781,0-9.563,0a1.572,1.572,0,0,1-1.095-.4c-.747-.654-1.514-1.284-2.265-1.932A2.1,2.1,0,0,0,184.24,315.012Zm4.814-9.815a3.9,3.9,0,0,0-2.739,1.112,3.669,3.669,0,0,0-.384,4.953,6.232,6.232,0,0,0,1.3,1.1c1.276.789,2.588,1.523,3.887,2.277,1.368.793,2.721,1.615,4.112,2.368a2.272,2.272,0,0,0,3.278-1.436,2.349,2.349,0,0,0-.577-2.283q-1.158-1.3-2.325-2.6c-1.292-1.44-2.572-2.889-3.881-4.313A3.486,3.486,0,0,0,189.054,305.2Z" transform="translate(-179.07 -301.323)"/><path class="a" d="M450.618,345.5c-.291,0-.571.016-.846-.011-.072-.007-.18-.147-.186-.231-.022-.339-.005-.68-.011-1.021s-.162-.509-.516-.519c-.219-.006-.438,0-.68,0v-5.174h.6c.456,0,.6-.138.6-.584,0-.351.005-.7,0-1.051,0-.178.066-.256.247-.251.259.007.517,0,.8,0Z" transform="translate(-427.32 -331.828)"/><path class="a" d="M144.979,345.663a.606.606,0,0,1-.648-.294c-.348-.573-.721-1.135-1.018-1.734a2.721,2.721,0,0,1-.292-1.119c-.03-1.793-.014-3.587-.014-5.38v-.17l1.971-.116C144.979,339.8,144.979,342.727,144.979,345.663Z" transform="translate(-140.313 -332.009)"/><path class="a" d="M494.1,345.728V336.9c.337,0,.673-.011,1.006.01.065,0,.144.124.177.206a.76.76,0,0,1,.011.268q0,3.923,0,7.847c0,.454-.042.494-.5.5Z" transform="translate(-470.29 -332.055)"/><path class="a" d="M234.264,275.188c.1,0,.193-.013.281-.013h7.962c.144,0,.313-.047.3.2-.005.163-.055.241-.227.233-.2-.008-.4,0-.6,0-.507.006-.693.185-.735.7,0,.038-.014.076-.025.133h-5.4c-.006-.082-.013-.15-.016-.219a.57.57,0,0,0-.626-.611c-.19-.007-.381,0-.571,0C234.225,275.611,234.225,275.611,234.264,275.188Z" transform="translate(-226.069 -274.042)"/><path class="a" d="M243.135,257.035h-8.5a.6.6,0,0,1,.531-.633,1.678,1.678,0,0,1,.269-.019q3.458,0,6.916,0c.467,0,.716.16.787.493A.868.868,0,0,1,243.135,257.035Z" transform="translate(-226.428 -256.381)"/><path class="a" d="M100.553,427.35c0,1.121,0,2.173,0,3.225,0,.242-.186.23-.338.235-.175.005-.413.013-.419-.222a16.274,16.274,0,0,1,.021-2.133,3.09,3.09,0,0,1,.461-1C100.307,427.4,100.425,427.4,100.553,427.35Z" transform="translate(-99.669 -417.086)"/><g transform="translate(0.095 4.914)"><path class="a" d="M100.622,341.568c-.126-.083-.242-.118-.29-.2a2.905,2.905,0,0,1-.462-1.574c0-.471.006-.9.006-1.378,0-.313.181-.34.4-.345s.381.032.376.327c0,.967-.007,2.878-.007,2.878S100.635,341.416,100.622,341.568Z" transform="translate(-99.87 -338.075)"/></g><path class="a" d="M98.29,403.31h2.2v.977h-2.2Z" transform="translate(-98.29 -394.471)"/><path class="b" d="M203.082,320.77a3.485,3.485,0,0,1,2.67,1.177c1.308,1.424,2.589,2.874,3.881,4.313q1.164,1.3,2.325,2.6a2.349,2.349,0,0,1,.577,2.284,2.272,2.272,0,0,1-3.278,1.436c-1.39-.753-2.744-1.574-4.112-2.368-1.3-.754-2.61-1.488-3.887-2.277a6.249,6.249,0,0,1-1.3-1.1,3.669,3.669,0,0,1,.384-4.953A3.9,3.9,0,0,1,203.082,320.77Zm.156.477a3.312,3.312,0,0,0-1.767,6.274c1.408.847,2.836,1.657,4.257,2.483q1.779,1.035,3.558,2.07a1.8,1.8,0,0,0,2.04-.008,1.887,1.887,0,0,0,.266-2.91c-.9-1.014-1.8-2.019-2.705-3.028l-3.249-3.631A3.184,3.184,0,0,0,203.239,321.247Z" transform="translate(-193.098 -316.896)"/><path class="c" d="M210.669,328.688a3.186,3.186,0,0,1,2.4,1.251q1.623,1.816,3.249,3.631c.9,1.009,1.809,2.013,2.705,3.028a1.887,1.887,0,0,1-.266,2.91,1.8,1.8,0,0,1-2.04.008q-1.78-1.032-3.558-2.07c-1.42-.826-2.849-1.637-4.257-2.483a3.312,3.312,0,0,1,1.767-6.274ZM213.223,332a2.808,2.808,0,1,0-2.818,2.791A2.795,2.795,0,0,0,213.223,332Zm4.358,7.3a1.482,1.482,0,0,0,1.5-1.474,1.483,1.483,0,1,0-2.965,0A1.478,1.478,0,0,0,217.581,339.3Z" transform="translate(-200.528 -324.338)"/><path class="b" d="M221.6,339.621a2.808,2.808,0,1,1-2.788-2.821A2.794,2.794,0,0,1,221.6,339.621Zm-2.783-2.35a2.335,2.335,0,1,0,2.323,2.347A2.321,2.321,0,0,0,218.822,337.271Z" transform="translate(-208.909 -331.962)"/><path class="b" d="M358.932,458.85a1.477,1.477,0,0,1-1.462-1.479,1.483,1.483,0,1,1,1.462,1.479Zm.036-2.48a1,1,0,1,0,.991,1.023A1.007,1.007,0,0,0,358.968,456.37Z" transform="translate(-341.879 -443.888)"/><path class="c" d="M226.321,344.629a2.335,2.335,0,1,1-2.353,2.308A2.341,2.341,0,0,1,226.321,344.629Zm.018,1.316a1.022,1.022,0,1,0-.061,2.043,1.039,1.039,0,0,0,1.052-1.009A1.027,1.027,0,0,0,226.34,345.945Z" transform="translate(-216.409 -339.321)"/><path class="c" d="M366.22,463.879a1,1,0,1,1-1.034.982A1,1,0,0,1,366.22,463.879Z" transform="translate(-349.13 -451.397)"/><path class="b" d="M246.854,366.492a1.028,1.028,0,0,1,.991,1.035,1.039,1.039,0,0,1-1.052,1.009,1.022,1.022,0,1,1,.061-2.043Zm.513,1.021a.559.559,0,0,0-.549-.562.559.559,0,0,0,0,1.118A.556.556,0,0,0,247.367,367.514Z" transform="translate(-236.923 -359.868)"/><path class="c" d="M254.645,374.7a.555.555,0,0,1-.553.556.559.559,0,1,1,.553-.556Z" transform="translate(-244.201 -367.056)"/></svg>