<svg xmlns="http://www.w3.org/2000/svg" width="14" height="14.676" viewBox="0 0 14 14.676"><defs><style>.a{fill:#7a797e;}.b{fill:#fff;}</style></defs><g transform="translate(-27 -262)"><path class="a" d="M300.87-655.324a.87.87,0,0,1-.87-.851v-10.935a.889.889,0,0,1,.87-.889h1.4v.6a.69.69,0,0,0,.625.719h1.116a.776.776,0,0,0,.719-.719v-.6h4.54v.6a.775.775,0,0,0,.718.719h1.117a.69.69,0,0,0,.624-.719v-.6h1.4a.889.889,0,0,1,.87.889v10.935a.871.871,0,0,1-.87.851Z" transform="translate(-272.999 932)"/><path class="a" d="M83.687,2.459h1.135a.1.1,0,0,0,.095-.095V.095A.1.1,0,0,0,84.822,0H83.687a.1.1,0,0,0-.095.095v2.27A.1.1,0,0,0,83.687,2.459Z" transform="translate(-53.754 262)"/><path class="a" d="M276.993,2.459h1.135a.1.1,0,0,0,.095-.095V.095A.1.1,0,0,0,278.128,0h-1.135a.1.1,0,0,0-.095.095v2.27A.1.1,0,0,0,276.993,2.459Z" transform="translate(-240.06 262)"/><path class="b" d="M83.712,131.441a1.926,1.926,0,0,0-2.488,1.147,2.048,2.048,0,0,0-2.488-1.147c-1.439.461-2.947,3.55,2.488,7.017C86.657,134.991,85.15,131.9,83.712,131.441Z" transform="translate(-47.389 135.677)"/></g></svg>