<svg xmlns="http://www.w3.org/2000/svg" xmlns:xlink="http://www.w3.org/1999/xlink" width="25" height="25" viewBox="0 0 25 25"><defs><style>.a{clip-path:url(#a);}.b{stroke:#000;stroke-width:0.3px;}</style><clipPath id="a"><path d="M-4.1,22.06A2.013,2.013,0,0,0-4.111,24.5a1.209,1.209,0,0,0,1.97-.007L6.587,13.718a2.007,2.007,0,0,0,0-2.438L-2.141.509A1.213,1.213,0,0,0-4.111.5,2.009,2.009,0,0,0-4.1,2.937l6.36,7.848H-16.608A1.574,1.574,0,0,0-18,12.5a1.582,1.582,0,0,0,1.392,1.714H2.258Z" transform="translate(18 0)"/></clipPath></defs><g transform="translate(20 5.407) rotate(90)"><path class="b" d="M5.629,7.942a.661.661,0,0,0,0,.877.527.527,0,0,0,.8,0L9.958,4.938a.66.66,0,0,0,0-.878L6.423.183a.528.528,0,0,0-.8,0,.66.66,0,0,0,0,.877L8.2,3.883H.564A.591.591,0,0,0,0,4.5a.594.594,0,0,0,.564.617H8.2Z" transform="translate(6.104 -1)"/><path class="b" d="M5.629,7.942a.661.661,0,0,0,0,.877.527.527,0,0,0,.8,0L9.958,4.938a.66.66,0,0,0,0-.878L6.423.183a.528.528,0,0,0-.8,0,.66.66,0,0,0,0,.877L8.2,3.883H.564A.591.591,0,0,0,0,4.5a.594.594,0,0,0,.564.617H8.2Z" transform="translate(8.718 16) rotate(180)"/></g></svg>