<svg xmlns="http://www.w3.org/2000/svg" width="29" height="29" viewBox="0 0 29 29"><defs><style>.a,.d{fill:none;}.a{stroke:#7a797e;stroke-width:2px;}.b{fill:#7a797e;}.c{stroke:none;}</style></defs><g class="a"><circle class="c" cx="14.5" cy="14.5" r="14.5"/><circle class="d" cx="14.5" cy="14.5" r="13.5"/></g><g transform="translate(10.41 6.94)"><path class="b" d="M29.9,0l-1.95,0a3.425,3.425,0,0,0-3.607,3.7V5.407H22.384a.307.307,0,0,0-.307.307V8.186a.307.307,0,0,0,.307.307h1.961v6.238a.307.307,0,0,0,.307.307h2.558a.307.307,0,0,0,.307-.307V8.493h2.292a.307.307,0,0,0,.307-.307V5.714a.307.307,0,0,0-.307-.307H27.516V3.961c0-.7.166-1.048,1.071-1.048H29.9a.307.307,0,0,0,.306-.307V.31A.307.307,0,0,0,29.9,0Z" transform="translate(-22.077 0)"/></g></svg>