<svg xmlns="http://www.w3.org/2000/svg" width="14.711" height="12.706" viewBox="0 0 14.711 12.706"><defs><style>.a{fill:#7a797e;}</style></defs><path class="a" d="M.475,11.706a.237.237,0,1,1,0-.474H.949V5.063a2.3,2.3,0,0,0,.89.178,2.332,2.332,0,0,0,1.839-.908,2.312,2.312,0,0,0,3.678,0,2.312,2.312,0,0,0,3.678,0,2.331,2.331,0,0,0,1.839.908,2.291,2.291,0,0,0,.89-.182V3.931a1.84,1.84,0,0,1-2.554-.825.191.191,0,0,0-.35,0,1.84,1.84,0,0,1-3.328,0,.191.191,0,0,0-.35,0,1.84,1.84,0,0,1-3.328,0,.191.191,0,0,0-.35,0A1.839,1.839,0,0,1,0,2.322L1.761-.758A.474.474,0,0,1,2.174-1H12.538a.474.474,0,0,1,.411.242l1.762,3.08a1.839,1.839,0,0,1-.949,1.61v7.3h.474a.237.237,0,1,1,0,.474ZM9.728,6v5.214h2.847V6a.232.232,0,0,0-.237-.226H9.966A.232.232,0,0,0,9.728,6Zm-7.593.011v4.033a.238.238,0,0,0,.237.237H8.3a.238.238,0,0,0,.237-.237V6.012A.238.238,0,0,0,8.3,5.775H2.373A.237.237,0,0,0,2.136,6.012Z" transform="translate(0 1)"/></svg>