<svg xmlns="http://www.w3.org/2000/svg" width="35.721" height="12.284" viewBox="0 0 35.721 12.284"><defs><style>.a{fill:#FF8000;}.b{fill:#7a797e;}</style></defs><path class="a" d="M432.7,556.05h-6.965v-.112a1.754,1.754,0,0,0-1.749-1.749h-3.594a1.754,1.754,0,0,0-1.749,1.749v.112H411.68v1.393h6.965v.112a1.754,1.754,0,0,0,1.749,1.749h3.594a1.754,1.754,0,0,0,1.749-1.749v-.112H432.7Z" transform="translate(-404.331 -550.605)"/><g transform="translate(0)"><path class="b" d="M284.593,489.96h-2.834a1.754,1.754,0,0,0-1.749,1.749V500.5a1.754,1.754,0,0,0,1.749,1.749h2.834a1.754,1.754,0,0,0,1.749-1.749v-8.786A1.754,1.754,0,0,0,284.593,489.96Zm-2.676,11.631a.147.147,0,0,1-.207,0l-.981-.981a.146.146,0,0,1,.206-.206l.981.981A.145.145,0,0,1,281.917,501.591Zm0-1.341a.145.145,0,0,1-.1.042.148.148,0,0,1-.1-.042l-.981-.981a.146.146,0,1,1,.206-.206l.981.981A.145.145,0,0,1,281.917,500.249Zm0-1.341a.146.146,0,0,1-.207,0l-.981-.982a.146.146,0,1,1,.206-.206l.981.981A.146.146,0,0,1,281.917,498.909Zm0-1.341a.147.147,0,0,1-.207,0l-.981-.981a.146.146,0,1,1,.206-.206l.981.981A.145.145,0,0,1,281.917,497.568Zm0-1.341a.145.145,0,0,1-.1.042.148.148,0,0,1-.1-.042l-.981-.981a.146.146,0,0,1,.206-.206l.981.981A.145.145,0,0,1,281.917,496.227Zm0-1.341a.145.145,0,0,1-.207,0l-.981-.981a.146.146,0,0,1,.206-.206l.981.981A.145.145,0,0,1,281.917,494.886Zm0-1.341a.145.145,0,0,1-.207,0l-.981-.981a.146.146,0,0,1,.206-.206l.981.981A.145.145,0,0,1,281.917,493.544Zm0-1.341a.145.145,0,0,1-.1.042.148.148,0,0,1-.1-.042l-.981-.981a.146.146,0,0,1,.206-.206l.981.981A.145.145,0,0,1,281.917,492.2Zm.943,9.284a.146.146,0,0,1-.291,0V490.716a.146.146,0,1,1,.291,0Zm.923,0a.146.146,0,0,1-.291,0V490.716a.146.146,0,1,1,.291,0Zm1.839-.878-.981.981a.146.146,0,0,1-.207-.206l.981-.981a.146.146,0,0,1,.206.206Zm0-1.341-.981.981a.146.146,0,0,1-.1.042.148.148,0,0,1-.1-.042.146.146,0,0,1,0-.206l.981-.981a.146.146,0,0,1,.206.206Zm0-1.341-.981.981a.146.146,0,0,1-.207-.206l.981-.981a.146.146,0,0,1,.206.206Zm0-1.341-.981.981a.146.146,0,0,1-.207-.206l.981-.981a.146.146,0,0,1,.206.206Zm0-1.341-.981.981a.145.145,0,0,1-.1.042.148.148,0,0,1-.1-.042.146.146,0,0,1,0-.206l.981-.981a.146.146,0,0,1,.206.206Zm0-1.341-.981.981a.146.146,0,0,1-.207-.206l.981-.981a.146.146,0,0,1,.206.206Zm0-1.341-.981.981a.146.146,0,0,1-.207-.206l.981-.981a.146.146,0,0,1,.206.206Zm0-1.341-.981.981a.145.145,0,0,1-.1.042.148.148,0,0,1-.1-.042.146.146,0,0,1,0-.206l.981-.981a.146.146,0,0,1,.206.206Z" transform="translate(-280.01 -489.96)"/><path class="b" d="M811.143,489.96h-2.834a1.754,1.754,0,0,0-1.749,1.749V500.5a1.754,1.754,0,0,0,1.749,1.749h2.834a1.754,1.754,0,0,0,1.749-1.749v-8.786A1.754,1.754,0,0,0,811.143,489.96Zm-2.676,11.631a.147.147,0,0,1-.207,0l-.981-.981a.146.146,0,0,1,.206-.206l.981.981A.145.145,0,0,1,808.467,501.591Zm0-1.341a.145.145,0,0,1-.1.042.148.148,0,0,1-.1-.042l-.981-.981a.146.146,0,1,1,.206-.206l.981.981A.145.145,0,0,1,808.467,500.249Zm0-1.341a.146.146,0,0,1-.207,0l-.981-.981a.146.146,0,1,1,.206-.206l.981.981A.145.145,0,0,1,808.467,498.909Zm0-1.341a.147.147,0,0,1-.207,0l-.981-.981a.146.146,0,1,1,.206-.206l.981.981A.145.145,0,0,1,808.467,497.568Zm0-1.341a.145.145,0,0,1-.1.042.147.147,0,0,1-.1-.042l-.981-.981a.146.146,0,0,1,.206-.206l.981.981A.145.145,0,0,1,808.467,496.227Zm0-1.341a.145.145,0,0,1-.207,0l-.981-.981a.146.146,0,0,1,.206-.206l.981.981A.145.145,0,0,1,808.467,494.886Zm0-1.341a.145.145,0,0,1-.207,0l-.981-.981a.146.146,0,0,1,.206-.206l.981.981A.145.145,0,0,1,808.467,493.544Zm0-1.341a.145.145,0,0,1-.1.042.148.148,0,0,1-.1-.042l-.981-.981a.146.146,0,0,1,.206-.206l.981.981A.145.145,0,0,1,808.467,492.2Zm.943,9.284a.146.146,0,0,1-.291,0V490.716a.146.146,0,1,1,.291,0Zm.923,0a.146.146,0,0,1-.291,0V490.716a.146.146,0,0,1,.291,0Zm1.838-.878-.981.981a.146.146,0,0,1-.206-.206l.981-.981a.146.146,0,0,1,.206.206Zm0-1.341-.981.981a.146.146,0,0,1-.206-.206l.981-.981a.146.146,0,0,1,.206.206Zm0-1.341-.981.981a.146.146,0,0,1-.206-.206l.981-.981a.146.146,0,0,1,.206.206Zm0-1.341-.981.981a.146.146,0,0,1-.206-.206l.981-.981a.146.146,0,0,1,.206.206Zm0-1.341-.981.981a.145.145,0,0,1-.1.042.147.147,0,0,1-.1-.042.145.145,0,0,1,0-.206l.981-.981a.146.146,0,0,1,.206.206Zm0-1.341-.981.981a.146.146,0,0,1-.206-.206l.981-.981a.146.146,0,0,1,.206.206Zm0-1.341-.981.981a.146.146,0,0,1-.206-.206l.981-.981a.146.146,0,0,1,.206.206Zm0-1.341-.981.981a.146.146,0,0,1-.206-.206l.981-.981a.146.146,0,0,1,.206.206Z" transform="translate(-777.171 -489.96)"/></g></svg>