<svg xmlns="http://www.w3.org/2000/svg" width="18.438" height="28.271" viewBox="0 0 18.438 28.271"><defs><style>.a{fill:#62c78f;}</style></defs><g transform="translate(-64)"><g transform="translate(64)"><path class="a" d="M79.365,22.125H76.292V12.776a6.761,6.761,0,1,0-6.146,0v9.349H67.073A3.076,3.076,0,0,0,64,25.2v2.458a.615.615,0,0,0,.615.615H81.823a.615.615,0,0,0,.615-.615V25.2A3.076,3.076,0,0,0,79.365,22.125ZM67.688,6.761a5.529,5.529,0,1,1,4.4,5.414,5.387,5.387,0,0,1-1.085-.347A5.528,5.528,0,0,1,67.688,6.761Zm3.688,10.486V13.265c.049.014.1.018.15.031q.308.081.623.132c.074.012.148.025.222.034a6.139,6.139,0,0,0,1.7,0c.074-.009.146-.023.22-.034q.317-.051.626-.132c.049-.013.1-.017.148-.031v3.982Zm3.688,1.229v3.649H71.375V18.476Zm6.146,8.566H65.229V25.2a1.846,1.846,0,0,1,1.844-1.844H79.365A1.846,1.846,0,0,1,81.209,25.2Z" transform="translate(-64)"/></g></g></svg>