<svg xmlns="http://www.w3.org/2000/svg" width="50" height="50" viewBox="0 0 50 50"><defs><style>.a,.e{fill:none;}.a{stroke:#ed1c24;}.b{fill:#ed1c24;}.c{fill:#fff;}.d{stroke:none;}</style></defs><g transform="translate(-260 -2801)"><g class="a" transform="translate(260 2801)"><circle class="d" cx="25" cy="25" r="25"/><circle class="e" cx="25" cy="25" r="24.5"/></g><g transform="translate(273.559 2814.53)"><path class="b" d="M106.748,100a6.748,6.748,0,1,0,6.748,6.748A6.754,6.754,0,0,0,106.748,100Z" transform="translate(-95.555 -95.323)"/><path class="b" d="M26.57,11.789a.758.758,0,0,1,0-.889l.4-.566a1.909,1.909,0,0,0-.655-2.783L25.7,7.225a.76.76,0,0,1-.393-.8l.117-.683a1.907,1.907,0,0,0-1.8-2.221L22.936,3.5a.755.755,0,0,1-.7-.547l-.2-.659a1.91,1.91,0,0,0-2.586-1.221l-.636.271a.769.769,0,0,1-.865-.192L17.488.636a1.9,1.9,0,0,0-2.857.019l-.449.524a.773.773,0,0,1-.865.206l-.641-.262a1.946,1.946,0,0,0-.725-.145,1.907,1.907,0,0,0-1.838,1.4l-.182.669a.76.76,0,0,1-.692.557l-.687.042A1.9,1.9,0,0,0,6.788,5.892l.126.678a.76.76,0,0,1-.379.8l-.6.337A1.908,1.908,0,0,0,5.32,10.5l.407.557a.758.758,0,0,1,0,.889l-.4.566A1.909,1.909,0,0,0,5.989,15.3l.608.327a.76.76,0,0,1,.393.8l-.117.683a1.907,1.907,0,0,0,1.8,2.221l.692.028a.755.755,0,0,1,.7.547l.192.664a1.91,1.91,0,0,0,2.586,1.221l.636-.271a.769.769,0,0,1,.865.192l.463.514a1.9,1.9,0,0,0,2.857-.019l.454-.524a.773.773,0,0,1,.865-.206l.641.262a1.946,1.946,0,0,0,.725.145,1.907,1.907,0,0,0,1.838-1.4l.182-.669a.76.76,0,0,1,.692-.557l.692-.042a1.9,1.9,0,0,0,1.763-2.245l-.126-.678a.76.76,0,0,1,.379-.8l.6-.337a1.908,1.908,0,0,0,.613-2.792Zm-.388,1.847a.755.755,0,0,1-.374.5l-.6.337a1.9,1.9,0,0,0-.949,2.011l.126.678a.746.746,0,0,1-.15.608.755.755,0,0,1-.557.29l-.687.042a1.9,1.9,0,0,0-1.73,1.4l-.182.664a.761.761,0,0,1-.734.561.78.78,0,0,1-.29-.056l-.641-.262a1.946,1.946,0,0,0-.725-.145,1.914,1.914,0,0,0-1.44.655l-.454.519a.761.761,0,0,1-1.141.009l-.463-.514a1.914,1.914,0,0,0-1.422-.636,1.886,1.886,0,0,0-.753.154l-.636.271a.745.745,0,0,1-.3.061.762.762,0,0,1-.73-.547l-.192-.664A1.911,1.911,0,0,0,9.407,18.2l-.692-.028A.759.759,0,0,1,8,17.284l.117-.683a1.9,1.9,0,0,0-.982-2l-.608-.327a.748.748,0,0,1-.383-.5.733.733,0,0,1,.122-.613l.4-.566a1.9,1.9,0,0,0-.019-2.226l-.407-.556a.735.735,0,0,1-.126-.613.755.755,0,0,1,.374-.5l.6-.337A1.9,1.9,0,0,0,8.037,6.36l-.122-.673a.746.746,0,0,1,.15-.608.755.755,0,0,1,.557-.29l.687-.042a1.907,1.907,0,0,0,1.73-1.4l.182-.669a.761.761,0,0,1,.734-.561.78.78,0,0,1,.29.056l.641.262a1.946,1.946,0,0,0,.725.145,1.914,1.914,0,0,0,1.44-.655l.454-.519A.761.761,0,0,1,16.646,1.4l.463.514a1.914,1.914,0,0,0,1.422.636,1.886,1.886,0,0,0,.753-.154l.636-.271a.745.745,0,0,1,.3-.061.762.762,0,0,1,.73.547l.192.664a1.911,1.911,0,0,0,1.749,1.375l.692.028a.755.755,0,0,1,.561.281.745.745,0,0,1,.159.6l-.117.683a1.9,1.9,0,0,0,.982,2l.608.327a.761.761,0,0,1,.267,1.108l-.4.566a1.9,1.9,0,0,0,.019,2.226l.407.557A.823.823,0,0,1,26.182,13.637Z" transform="translate(-4.953)"/><path class="c" d="M192.186,201.252l-2.507,2.493-.814-.818a.574.574,0,0,0-.814.809l1.221,1.225a.573.573,0,0,0,.407.168h0a.57.57,0,0,0,.4-.168l2.913-2.895a.574.574,0,1,0-.809-.814Z" transform="translate(-179.333 -191.684)"/></g></g></svg>