<svg xmlns="http://www.w3.org/2000/svg" width="34.73" height="40" viewBox="0 0 34.73 40"><defs><style>.a{fill:#f3c716;}</style></defs><g transform="translate(-64 -572)"><circle class="a" cx="6" cy="6" r="6" transform="translate(75 584)"/><path d="M66.473,10.741H54.927L61.1,9.086a.849.849,0,0,0,.381-1.42L54.066.247a.849.849,0,0,0-1.42.381L49.956,10.663,47.267.628a.849.849,0,0,0-1.42-.381L38.429,7.665a.849.849,0,0,0,.38,1.42l6.177,1.655H33.44a.849.849,0,0,0-.849.849v7.788a.849.849,0,0,0,.849.849H34.6V37.833A2.167,2.167,0,0,0,36.769,40H63.143a2.167,2.167,0,0,0,2.165-2.165V20.226h1.164a.849.849,0,0,0,.849-.849V11.589A.849.849,0,0,0,66.473,10.741ZM46.08,18.529v-6.09h7.757v6.09Zm5.967,1.7V38.3H47.871V20.226ZM53.9,2.487l5.339,5.339L51.951,9.781Zm-7.9,0L47.962,9.78,40.669,7.826ZM34.289,12.438H44.383v6.09H34.289Zm2.013,25.4V20.226h9.871V38.3h-9.4A.468.468,0,0,1,36.3,37.833Zm27.308,0a.468.468,0,0,1-.467.467h-9.4V20.226H63.61Zm2.013-19.3H55.535v-6.09H65.624Z" transform="translate(31.409 572.002)"/></g></svg>