<svg xmlns="http://www.w3.org/2000/svg" width="20" height="20" viewBox="0 0 20 20"><defs><style>.a{fill:#c9c9c9;}</style></defs><path class="a" d="M12.381,20a1.428,1.428,0,0,1-1.429-1.428v-6.19a1.429,1.429,0,0,1,1.429-1.429h6.19A1.428,1.428,0,0,1,20,12.381v5.238A2.38,2.38,0,0,1,17.619,20Zm-10,0A2.38,2.38,0,0,1,0,17.619V12.381a1.429,1.429,0,0,1,1.428-1.429H7.619a1.429,1.429,0,0,1,1.428,1.429v6.19A1.428,1.428,0,0,1,7.619,20Zm10-10.952a1.429,1.429,0,0,1-1.429-1.428V1.428A1.429,1.429,0,0,1,12.381,0h5.238A2.38,2.38,0,0,1,20,2.381V7.619a1.428,1.428,0,0,1-1.428,1.428Zm-10.953,0A1.429,1.429,0,0,1,0,7.619V2.381A2.381,2.381,0,0,1,2.381,0H7.619A1.429,1.429,0,0,1,9.048,1.428V7.619A1.429,1.429,0,0,1,7.619,9.048Z"/></svg>