<svg xmlns="http://www.w3.org/2000/svg" width="18.901" height="16.54" viewBox="0 0 18.901 16.54"><defs><style>.a{fill:#FF8000;}</style></defs><path class="a" d="M344.537,292.872a11.221,11.221,0,0,0-5.394-1.688,11.737,11.737,0,0,1,1.3.689,3.546,3.546,0,0,1,1.625,2.984v3.371h3.544v-3.371A2.357,2.357,0,0,0,344.537,292.872Z" transform="translate(-326.71 -281.69)"/><path class="a" d="M13.1,292.581a11.485,11.485,0,0,0-12.027,0A2.355,2.355,0,0,0,0,294.566v3.371H14.177v-3.371a2.356,2.356,0,0,0-1.075-1.986Z" transform="translate(0 -281.398)"/><path class="a" d="M289.815,40.3a4.085,4.085,0,0,0,1.188.2,4.135,4.135,0,1,0,0-8.27,4.085,4.085,0,0,0-1.188.2,5.251,5.251,0,0,1,0,7.878Z" transform="translate(-279.19 -32.222)"/><path class="a" d="M87.616,33.433a4.135,4.135,0,1,1-5.847,0,4.135,4.135,0,0,1,5.847,0" transform="translate(-77.603 -32.222)"/></svg>