<svg xmlns="http://www.w3.org/2000/svg" width="28" height="20.892" viewBox="0 0 28 20.892"><defs><style>.a{fill:#f3c716;}</style></defs><g transform="translate(0 -103.8)"><path class="a" d="M598.2,385.756c-.055.075-.116.137-.165.212q-1.707,2.735-3.42,5.47a1.331,1.331,0,0,1-.329.35q-2.55,1.871-5.1,3.729a.678.678,0,0,1-.37.137h-8.129l-.137-.014-3.646-6.765a4.358,4.358,0,0,1,2.57-1.515,6.315,6.315,0,0,1,2.954.117,2.242,2.242,0,0,1,1.57,1.165h.315c1.254,0,2.5-.007,3.749,0a.915.915,0,1,1,.041,1.823c-1,.007-2.008,0-3.009,0h-2.427v1.645h.295c1.652,0,3.3-.027,4.949.007a2.64,2.64,0,0,0,2.776-2.166l.034-.089c.932-.644,1.878-1.3,2.831-1.94a4.884,4.884,0,0,0,.946-.857,5.745,5.745,0,0,1,1.563-1.309,1.954,1.954,0,0,1,2.139-.055Z" transform="translate(-570.196 -274.642)"/><path class="a" d="M484,430.439l-2.043-3.948q-1.357-2.612-2.721-5.209c-.041-.089-.082-.178-.137-.281l4.209-2.2c1.679,3.132,3.359,6.244,5.038,9.377l-.5.26-3.53,1.851a2.567,2.567,0,0,0-.26.151Z" transform="translate(-479.1 -305.747)"/><path class="a" d="M598.994,300.18v3.811l-2.618,1.8c-.165-.171-.3-.343-.459-.487a2.576,2.576,0,0,0-1.837-.658h-3.084c-2.42-1.81-4.956-1.666-7.595-.713v-3.749h6.073c.576-1.062,1.138-2.111,1.714-3.187.583,1.083,1.145,2.125,1.707,3.181Z" transform="translate(-576.251 -192.295)"/><path class="a" d="M574.162,286.233H568l1.3-2.433h6.169C575.026,284.616,574.594,285.418,574.162,286.233Z" transform="translate(-561.906 -180)"/><path class="a" d="M718.5,286.227l-1.3-2.427h6.162l1.3,2.427Z" transform="translate(-700.88 -180)"/></g></svg>