<svg xmlns="http://www.w3.org/2000/svg" width="28" height="24.106" viewBox="0 0 28 24.106"><defs><style>.a{fill:#FF8000;}</style></defs><path class="a" d="M7609.957,4680.4h-.056q-.546-1.057-1.093-2.113l-.011-.021-.928-1.795-.01-.019c-.892-1.717-1.782-3.42-2.722-5.208-.039-.087-.081-.174-.136-.282l4.208-2.2c.959,1.791,1.933,3.6,2.849,5.3l.366.681q.911,1.694,1.823,3.393l-.5.261-3.529,1.853a2.343,2.343,0,0,0-.26.149Zm13.66-3.682h-8.13l-.136-.013-3.647-6.764a4.363,4.363,0,0,1,2.571-1.515,7.113,7.113,0,0,1,1.28-.121,5.934,5.934,0,0,1,1.674.238,2.238,2.238,0,0,1,1.569,1.165h2.818q.624,0,1.249,0a.917.917,0,0,1,1.005.891.893.893,0,0,1-.25.644,1,1,0,0,1-.716.289c-.287,0-.605,0-1,0h-1l-1,0h-2.425v1.646h.293c.52,0,1.067,0,1.506,0s.983,0,1.5,0c.758,0,1.375.005,1.941.018h.076a2.639,2.639,0,0,0,2.7-2.167l.035-.09.419-.29c.743-.514,1.585-1.1,2.41-1.648a4.92,4.92,0,0,0,.946-.858,5.783,5.783,0,0,1,1.563-1.309,2.367,2.367,0,0,1,1.164-.35,1.81,1.81,0,0,1,.976.294v.056c-.021.029-.044.056-.066.083l-.009.011a1.173,1.173,0,0,0-.089.119q-1.707,2.733-3.421,5.469a1.292,1.292,0,0,1-.33.349c-1.585,1.165-3.2,2.343-4.759,3.482l-.18.131-.161.117A.656.656,0,0,1,7623.617,4676.717Zm-.536-8.371a6.027,6.027,0,1,1,6.026-6.027A6.034,6.034,0,0,1,7623.081,4668.346Zm-2.536-5.931,0,.747,2.487,2.895h1.4v-.063l-2.274-2.661a2.8,2.8,0,0,0,1.517-.51,1.821,1.821,0,0,0,.646-1.233h.737l.244-.889h-.987a2.024,2.024,0,0,0-.322-.858h1.065l.249-.895h-4.6l-.265,1h1.314c.7,0,1.135.254,1.293.756H7620.7l-.249.889h2.626a1.08,1.08,0,0,1-.427.6,1.472,1.472,0,0,1-.866.228Z" transform="translate(-7605.001 -4656.292)"/></svg>