<svg xmlns="http://www.w3.org/2000/svg" width="32.437" height="29.5" viewBox="0 0 32.437 29.5">
  <g id="Group_6468" data-name="Group 6468" transform="translate(-1772.561 -20)">
    <g id="Group_6467" data-name="Group 6467" transform="translate(1772.561 20)">
      <path id="heart" d="M12.139,21.6a1.424,1.424,0,0,1-.939-.353c-.981-.858-1.926-1.664-2.761-2.374l0,0a51.341,51.341,0,0,1-6.028-5.658A9.036,9.036,0,0,1,0,7.3,7.588,7.588,0,0,1,1.926,2.114,6.528,6.528,0,0,1,6.782,0,6.107,6.107,0,0,1,10.6,1.317a7.8,7.8,0,0,1,1.542,1.61,7.805,7.805,0,0,1,1.542-1.61A6.107,6.107,0,0,1,17.5,0a6.529,6.529,0,0,1,4.856,2.114A7.588,7.588,0,0,1,24.278,7.3a9.035,9.035,0,0,1-2.408,5.915,51.335,51.335,0,0,1-6.027,5.657c-.836.712-1.783,1.519-2.766,2.379a1.425,1.425,0,0,1-.938.352ZM6.782,1.422A5.122,5.122,0,0,0,2.971,3.078,6.173,6.173,0,0,0,1.422,7.3,7.6,7.6,0,0,0,3.5,12.3a50.523,50.523,0,0,0,5.855,5.483l0,0c.837.714,1.787,1.523,2.775,2.387.994-.866,1.945-1.676,2.784-2.391A50.536,50.536,0,0,0,20.776,12.3,7.6,7.6,0,0,0,22.856,7.3a6.173,6.173,0,0,0-1.549-4.219A5.122,5.122,0,0,0,17.5,1.422a4.717,4.717,0,0,0-2.945,1.019,6.9,6.9,0,0,0-1.641,1.9.9.9,0,0,1-1.542,0,6.9,6.9,0,0,0-1.641-1.9A4.717,4.717,0,0,0,6.782,1.422Zm0,0" transform="translate(0 7.9)" fill="#FF8000"/>
      <circle id="Ellipse_14" data-name="Ellipse 14" cx="9" cy="9" r="9" transform="translate(14.437)" fill="none"/>
      <text id="_3" data-name="3" transform="translate(23.437 12)" fill="none" font-size="10" font-family="SegoeUI-Bold, Segoe UI" font-weight="700"><tspan x="-2.876" y="0">3</tspan></text>
    </g>
  </g>
</svg>
