<svg xmlns="http://www.w3.org/2000/svg" width="20.007" height="20.002" viewBox="0 0 20.007 20.002"><defs><style>.a{fill:#7a797e;}</style></defs><path class="a" d="M7.179,2.934A2.836,2.836,0,1,1,10.015,5.77,2.836,2.836,0,0,1,7.179,2.934ZM6.252,10.49h7.5a.645.645,0,0,0,.645-.645V8.575a1.753,1.753,0,0,0-1.037-1.6L11.9,6.32c-.177-.079,0-.056-3.52-.056-.184,0-.139,0-1.731.712a1.753,1.753,0,0,0-1.037,1.6V9.844a.645.645,0,0,0,.64.646Zm11.9,4.609V14.29a1.938,1.938,0,0,0-1.936-1.936H10.649v-.686a.646.646,0,1,0-1.291,0v.686H3.792A1.938,1.938,0,0,0,1.856,14.29v.81A1.938,1.938,0,0,0,0,17.032v1.129A1.938,1.938,0,0,0,1.936,20.1h1.13A1.938,1.938,0,0,0,5,18.162v-1.13A1.938,1.938,0,0,0,3.146,15.1v-.809a.646.646,0,0,1,.645-.645H9.359V15.1A1.938,1.938,0,0,0,7.5,17.032v1.129A1.938,1.938,0,0,0,9.439,20.1h1.129A1.938,1.938,0,0,0,12.5,18.162v-1.13A1.938,1.938,0,0,0,10.649,15.1V13.644h5.567a.646.646,0,0,1,.645.645V15.1a1.938,1.938,0,0,0-1.856,1.934v1.129A1.938,1.938,0,0,0,16.942,20.1h1.129a1.938,1.938,0,0,0,1.936-1.936V17.032A1.938,1.938,0,0,0,18.152,15.1Z" transform="translate(0 -0.098)"/></svg>