<svg xmlns="http://www.w3.org/2000/svg" width="18.182" height="20" viewBox="0 0 18.182 20"><defs><style>.a{fill:#FF8000;}</style></defs><path class="a" d="M13.959,20H4.222a2.3,2.3,0,0,1-1.565-.61,2.037,2.037,0,0,1-.648-1.472v-8.4H1.322A1.322,1.322,0,0,1,.1,8.731,1.193,1.193,0,0,1,.406,7.366L8.169.349a1.389,1.389,0,0,1,1.841,0l7.764,7.017a1.2,1.2,0,0,1,.31,1.368,1.324,1.324,0,0,1-1.23.782h-.682v8.4A2.153,2.153,0,0,1,13.959,20ZM9.09,12.559a2.437,2.437,0,0,0-2.5,2.357,2.437,2.437,0,0,0,2.5,2.358,2.438,2.438,0,0,0,2.5-2.358A2.437,2.437,0,0,0,9.09,12.559Z" transform="translate(0.001 0)"/></svg>