<svg xmlns="http://www.w3.org/2000/svg" width="26" height="26" viewBox="0 0 26 26"><defs><style>.a{fill:#7a797e;}</style></defs><path class="a" d="M10.446,18.571H1.935A1.935,1.935,0,0,1,0,16.637V14.729a1.921,1.921,0,0,1,.565-1.366L4.1,9.831a.776.776,0,0,0,0-1.091L.565,5.207A1.918,1.918,0,0,1,0,3.842V1.935A1.937,1.937,0,0,1,1.935,0h8.512a1.937,1.937,0,0,1,1.935,1.935V3.842a1.918,1.918,0,0,1-.565,1.366L8.284,8.74a.776.776,0,0,0,0,1.091l3.533,3.533a1.921,1.921,0,0,1,.565,1.366v1.907A1.937,1.937,0,0,1,10.446,18.571ZM2.709,14.7a.775.775,0,0,0-.774.774v.386a.775.775,0,0,0,.774.774H9.673a.775.775,0,0,0,.774-.774v-.386a.775.775,0,0,0-.774-.774ZM3.8,3.868h0a.773.773,0,0,0-.547,1.319L5.645,7.579a.773.773,0,0,0,1.091,0L9.127,5.188A.774.774,0,0,0,8.58,3.869H3.8Z" transform="translate(6.81 3.714)"/></svg>