<svg xmlns="http://www.w3.org/2000/svg" width="29.999" height="30" viewBox="0 0 29.999 30"><defs><style>.a{fill:#7a797e;}.b{fill:#FF8000;}</style></defs><path class="a" d="M882.5,2476.295l.947-1.761a1.3,1.3,0,0,0-.226-1.538l-2.957-2.957a1.3,1.3,0,0,0-1.538-.226l-1.761.947a3.99,3.99,0,0,0-1.625,1.626h0a3.991,3.991,0,0,0,.693,4.712l.13.13a3.991,3.991,0,0,0,4.713.693h0A3.988,3.988,0,0,0,882.5,2476.295Zm-5.384-.151a2.551,2.551,0,1,1,3.608,0A2.551,2.551,0,0,1,877.119,2476.144Z" transform="translate(-874.866 -2448.396)"/><rect class="a" width="4.023" height="2.015" transform="translate(7.235 19.919) rotate(45)"/><rect class="a" width="4.023" height="7.547" transform="translate(12.924 14.229) rotate(45)"/><path class="b" d="M1839.562,1069.207l-3.429-3.43a1.085,1.085,0,0,0-1.535,0l-9.189,9.189a1.085,1.085,0,0,0,0,1.535l3.429,3.43a1.085,1.085,0,0,0,1.535,0l9.189-9.189A1.086,1.086,0,0,0,1839.562,1069.207Z" transform="translate(-1812.422 -1062.918)"/><path class="a" d="M2679.663,877.254l-2.132-2.132a1.03,1.03,0,0,0-1.456,0l-2.125,2.125,3.588,3.588,2.125-2.125A1.031,1.031,0,0,0,2679.663,877.254Zm-3.225,1.094a1.071,1.071,0,1,1,1.514,0A1.071,1.071,0,0,1,2676.438,878.348Z" transform="translate(-2649.966 -874.82)"/><path class="b" d="M2293.664,1098.777l-.489-.49a.485.485,0,0,1,0-.686l1.227-1.226a.484.484,0,0,1,.686,0l.49.49Z" transform="translate(-2274.127 -1093.281)"/><path class="b" d="M1905.355,1487.077l-.49-.49a.485.485,0,0,1,0-.686l1.227-1.226a.485.485,0,0,1,.686,0l.49.49Z" transform="translate(-1890.993 -1476.404)"/></svg>