<svg xmlns="http://www.w3.org/2000/svg" width="18.681" height="20" viewBox="0 0 18.681 20"><defs><style>.a{fill:#FF8000;}</style></defs><g transform="translate(-48.043 -32)"><path class="a" d="M256,432.435l2.111-.487-1.624-1.624Z" transform="translate(-198.615 -380.435)"/><path class="a" d="M60.118,212.311c-.074-2.753-1.744-4.311-4.532-4.311a6.985,6.985,0,0,0-5.318,2.464,9.8,9.8,0,0,0-2.225,6.3,13.15,13.15,0,0,0,6.543,2.014Z" transform="translate(0 -168.096)"/><path class="a" d="M0,0H7.9V2.874H0Z" transform="translate(58.17 49.176) rotate(-45)"/><circle class="a" cx="3.593" cy="3.593" r="3.593" transform="translate(51.993 32)"/><path class="a" d="M411.826,270.764a1.437,1.437,0,0,0-2.453-1.016l2.032,2.032A1.427,1.427,0,0,0,411.826,270.764Z" transform="translate(-345.102 -226.669)"/></g></svg>