<svg xmlns="http://www.w3.org/2000/svg" width="15.547" height="20" viewBox="0 0 15.547 20"><defs><style>.a{fill:#7a797e;}.b{fill:#fff;stroke:#fff;stroke-width:0.5px;}</style></defs><g transform="translate(-11022 -2636)"><path class="a" d="M1.121,20A1.123,1.123,0,0,1,0,18.878V2.411A1.123,1.123,0,0,1,1.121,1.289H2.5V2.7A1.008,1.008,0,0,0,3.507,3.711h8.532A1.009,1.009,0,0,0,13.047,2.7V1.289h1.378a1.123,1.123,0,0,1,1.121,1.122V18.878A1.123,1.123,0,0,1,14.425,20ZM3.672,2.539V0h8.2V2.539Z" transform="translate(11022 2636)"/><g transform="translate(11023 2607.555)"><path class="b" d="M275.482,172.228v2.748a.393.393,0,0,0,.115.278l1.966,1.966.555-.556-1.851-1.851v-2.586Z" transform="translate(-269.197 -134.64)"/><path class="b" d="M7.071,34.445a5.5,5.5,0,0,0-5.437,4.714H0l1.964,1.964,1.964-1.964h-1.5a4.706,4.706,0,1,1,.926,3.685l-.619.483a5.5,5.5,0,1,0,4.337-8.883Z"/></g></g></svg>