<svg xmlns="http://www.w3.org/2000/svg" width="15.547" height="20" viewBox="0 0 15.547 20"><defs><style>.a{fill:#7a797e;}.b{fill:#fff;}</style></defs><g transform="translate(-187 -407)"><path class="a" d="M1.121,20A1.123,1.123,0,0,1,0,18.878V2.411A1.123,1.123,0,0,1,1.121,1.289H2.5V2.7A1.008,1.008,0,0,0,3.507,3.711h8.532A1.009,1.009,0,0,0,13.047,2.7V1.289h1.378a1.123,1.123,0,0,1,1.121,1.122V18.878A1.123,1.123,0,0,1,14.425,20ZM3.672,2.539V0h8.2V2.539Z" transform="translate(187 407)"/><g transform="translate(185 410)"><path class="b" d="M5.625,10H1.042A1.042,1.042,0,0,1,0,8.958V7.931A1.034,1.034,0,0,1,.3,7.2l1.9-1.9a.418.418,0,0,0,0-.588L.3,2.8A1.033,1.033,0,0,1,0,2.069V1.042A1.043,1.043,0,0,1,1.042,0H5.625A1.043,1.043,0,0,1,6.667,1.042V2.069a1.033,1.033,0,0,1-.3.735l-1.9,1.9a.418.418,0,0,0,0,.588l1.9,1.9a1.034,1.034,0,0,1,.3.735V8.958A1.043,1.043,0,0,1,5.625,10ZM1.458,7.917a.417.417,0,0,0-.417.417v.208a.417.417,0,0,0,.417.417h3.75a.417.417,0,0,0,.417-.417V8.334a.417.417,0,0,0-.417-.417Zm.588-5.834h0a.416.416,0,0,0-.295.71L3.04,4.081a.416.416,0,0,0,.587,0L4.914,2.794a.417.417,0,0,0-.295-.71H2.047Z" transform="translate(6.81 3.714)"/></g></g></svg>