<svg xmlns="http://www.w3.org/2000/svg" width="15.547" height="20" viewBox="0 0 15.547 20"><defs><style>.a{fill:#7a797e;}.b{fill:#fff;}</style></defs><g transform="translate(-190 -489)"><g transform="translate(3 82)"><path class="a" d="M1.121,20A1.123,1.123,0,0,1,0,18.878V2.411A1.123,1.123,0,0,1,1.121,1.289H2.5V2.7A1.008,1.008,0,0,0,3.507,3.711h8.532A1.009,1.009,0,0,0,13.047,2.7V1.289h1.378a1.123,1.123,0,0,1,1.121,1.122V18.878A1.123,1.123,0,0,1,14.425,20Zm5.441-4.687a.586.586,0,0,0,.586.586h5.312a.586.586,0,1,0,0-1.172H7.149A.586.586,0,0,0,6.563,15.313Zm-4.063,0a.586.586,0,0,0,.586.586h1.25a.586.586,0,1,0,0-1.172H3.086A.586.586,0,0,0,2.5,15.313Zm4.063-2.5a.586.586,0,0,0,.586.586h5.312a.586.586,0,1,0,0-1.172H7.149A.586.586,0,0,0,6.563,12.812Zm-4.063,0a.586.586,0,0,0,.586.586h1.25a.586.586,0,1,0,0-1.172H3.086A.586.586,0,0,0,2.5,12.812ZM3.672,2.539V0h8.2V2.539Z" transform="translate(187 407)"/></g><path class="b" d="M-10851.538-1472.1h-5.314a.586.586,0,0,1-.584-.586.586.586,0,0,1,.584-.586h5.314a.587.587,0,0,1,.586.586A.587.587,0,0,1-10851.538-1472.1Zm-8.126,0h-1.249a.587.587,0,0,1-.586-.586.587.587,0,0,1,.586-.586h1.249a.587.587,0,0,1,.586.586A.587.587,0,0,1-10859.664-1472.1Zm8.126-2.5h-5.314a.586.586,0,0,1-.584-.586.586.586,0,0,1,.584-.586h5.314a.587.587,0,0,1,.586.586A.587.587,0,0,1-10851.538-1474.6Zm-8.126,0h-1.249a.587.587,0,0,1-.586-.586.587.587,0,0,1,.586-.586h1.249a.587.587,0,0,1,.586.586A.587.587,0,0,1-10859.664-1474.6Z" transform="translate(11054 1972)"/></g></svg>