<svg xmlns="http://www.w3.org/2000/svg" width="15.547" height="20" viewBox="0 0 15.547 20"><defs><style>.a{fill:#7a797e;}.b{fill:#fff;}</style></defs><g transform="translate(-187 -407)"><path class="a" d="M1.121,20A1.123,1.123,0,0,1,0,18.878V2.411A1.123,1.123,0,0,1,1.121,1.289H2.5V2.7A1.008,1.008,0,0,0,3.507,3.711h8.532A1.009,1.009,0,0,0,13.047,2.7V1.289h1.378a1.123,1.123,0,0,1,1.121,1.122V18.878A1.123,1.123,0,0,1,14.425,20ZM3.672,2.539V0h8.2V2.539Z" transform="translate(187 407)"/><circle class="b" cx="5" cy="5" r="5" transform="translate(190 414)"/><path class="a" d="M347.6,378.742h0l-3.965,4.113a.225.225,0,0,1-.173.074.193.193,0,0,1-.173-.074l-1.933-2.082-.05-.05a.24.24,0,0,1,0-.347l.347-.347a.24.24,0,0,1,.347,0l.025.025,1.363,1.462a.12.12,0,0,0,.173,0l3.32-3.444h.025a.24.24,0,0,1,.347,0l.347.347A.211.211,0,0,1,347.6,378.742Z" transform="translate(-149.439 38.199)"/></g></svg>