<svg xmlns="http://www.w3.org/2000/svg" width="22" height="22.27" viewBox="0 0 22 22.27"><defs><style>.a{fill:#FF8000;}</style></defs><g transform="translate(-0.285)"><path class="a" d="M40.392,8.725c0-.4-.4-.512-.716-.582V9.3C40.026,9.273,40.392,9.109,40.392,8.725Z" transform="translate(-20.727 -4.285)"/><path class="a" d="M38.213,4.185c-.4.011-.653.245-.653.5,0,.291.217.46.653.547V4.185Z" transform="translate(-19.614 -2.202)"/><path class="a" d="M35.37,7.044a3.522,3.522,0,1,0-3.523-3.522A3.526,3.526,0,0,0,35.37,7.044ZM33.821,2.612a1.275,1.275,0,0,1,1.386-1.223v-.31a.176.176,0,1,1,.349,0v.31c.453.012,1.386.3,1.386.868a.35.35,0,0,1-.367.361c-.38,0-.373-.623-1.019-.635V3.09c.769.163,1.45.39,1.45,1.287,0,.78-.582,1.176-1.45,1.229v.36a.176.176,0,1,1-.349,0v-.36c-.984-.024-1.473-.612-1.473-1.073a.336.336,0,0,1,.361-.367c.652,0,.145.8,1.113.845V3.794C34.344,3.636,33.821,3.258,33.821,2.612Z" transform="translate(-16.608)"/><path class="a" d="M4.859,33.113H1.822A1.012,1.012,0,0,0,.81,34.126V38.68a1.013,1.013,0,0,0,1.012,1.013H4.859A1.012,1.012,0,0,0,5.871,38.68V34.126A1.012,1.012,0,0,0,4.859,33.113Z" transform="translate(-0.276 -17.424)"/><path class="a" d="M21.423,25.637H18.386a1.012,1.012,0,0,0-1.012,1.013v8.1a1.012,1.012,0,0,0,1.012,1.013h3.037a1.012,1.012,0,0,0,1.013-1.013v-8.1A1.012,1.012,0,0,0,21.423,25.637Z" transform="translate(-8.992 -13.49)"/><path class="a" d="M37.99,17.091H34.954A1.012,1.012,0,0,0,33.941,18.1V30.25a1.012,1.012,0,0,0,1.013,1.013H37.99A1.012,1.012,0,0,0,39,30.25V18.1A1.012,1.012,0,0,0,37.99,17.091Z" transform="translate(-17.71 -8.993)"/><path class="a" d="M14.21,10.377,11.7,9.851a.506.506,0,0,0-.55.733l.557,1.048L.559,17.381a.506.506,0,0,0,.233.955.5.5,0,0,0,.232-.056l11.155-5.754.511.961a.506.506,0,0,0,.447.269h.026a.505.505,0,0,0,.443-.314l.971-2.378a.5.5,0,0,0-.022-.429A.514.514,0,0,0,14.21,10.377Z" transform="translate(0 -5.178)"/><ellipse class="a" cx="2.5" cy="3.5" rx="2.5" ry="3.5" transform="translate(16.466)"/></g></svg>