<svg xmlns="http://www.w3.org/2000/svg" width="17" height="17" viewBox="0 0 17 17">
  <g id="_Icons_26_Info" data-name="_Icons / 26 Info" transform="translate(0 0)" style="isolation: isolate">
    <path id="_26_Info" data-name="26 Info" d="M8.5,17A8.5,8.5,0,1,1,17,8.5,8.51,8.51,0,0,1,8.5,17Zm0-10.358a.8.8,0,0,0-.837.743v4.833a.8.8,0,0,0,.837.744.8.8,0,0,0,.836-.744V7.384A.794.794,0,0,0,8.5,6.642Zm0-2.778a.831.831,0,1,0,.836.83A.835.835,0,0,0,8.5,3.864Z" transform="translate(0 0)" fill="#c9c9c9"/>
  </g>
</svg>
