<svg xmlns="http://www.w3.org/2000/svg" width="29" height="29" viewBox="0 0 29 29"><defs><style>.a,.d{fill:none;}.a{stroke:#7a797e;stroke-width:2px;}.b{fill:#7a797e;}.c{stroke:none;}</style></defs><g transform="translate(-0.058)"><g class="a" transform="translate(0.058)"><circle class="c" cx="14.5" cy="14.5" r="14.5"/><circle class="d" cx="14.5" cy="14.5" r="13.5"/></g><g transform="translate(6.988 6.988)"><path class="b" d="M7.519,15a43.582,43.582,0,0,1-5.059-.18A2.867,2.867,0,0,1,.252,12.635,13.534,13.534,0,0,1,.021,8.868C.032,8.42.044,7.957.044,7.5c0-.629-.006-1.2-.012-1.7C0,3.16-.009,2.067.979,1.042,1.851.137,2.765,0,5.456,0c.491,0,1.03,0,1.655.01l.269,0C8.1.018,8.963.024,9.959.024A13.9,13.9,0,0,1,12.145.09l.02,0a3.227,3.227,0,0,1,2.821,3.172c.019.237.019,8.227,0,8.465a3.212,3.212,0,0,1-2.394,3.089A43.536,43.536,0,0,1,7.519,15Zm0-1.977c.189,0,.382,0,.568,0s.379,0,.567,0c1.766,0,3.409-.146,4.1-1.912a8.8,8.8,0,0,0,.291-3.064q0-.266,0-.552c0-.206,0-.406,0-.6.01-1.837.017-3.051-.929-4-.864-.863-2.007-.932-3.411-.932l-.553,0H8.143l-.623,0-.543,0H6.972l-.524,0c-1.868,0-3.471.144-4.16,1.91A8.806,8.806,0,0,0,2,6.956v0Q2,7.222,2,7.5q0,.228,0,.452a9.741,9.741,0,0,0,.291,3.164c.687,1.767,2.29,1.91,4.159,1.91l.529,0Zm1.254-.988h0c-.194,0-.389,0-.6,0h0c-.212,0-.43,0-.652,0C3.122,12.026,3,11.9,3,7.5c0-2.258.092-3.361.635-3.931s1.484-.593,3.4-.595h.138c.262,0,.51,0,.75,0,.271,0,.526,0,.765,0,1.4,0,2.205.1,2.7.618.745.779.8,2.527.633,6.149C11.918,11.865,10.551,12.035,8.773,12.035ZM7.521,4.666h0A2.835,2.835,0,1,0,10.356,7.5,2.838,2.838,0,0,0,7.52,4.667Zm2.948-.774a.662.662,0,1,0,.662.662A.663.663,0,0,0,10.469,3.892ZM7.521,9.342A1.759,1.759,0,0,1,5.7,7.5a1.9,1.9,0,0,1,.456-1.265,1.765,1.765,0,0,1,1.37-.575A1.758,1.758,0,0,1,9.348,7.5a1.9,1.9,0,0,1-.456,1.265A1.765,1.765,0,0,1,7.521,9.342Z" transform="translate(0.07 0.012)"/></g></g></svg>