<svg xmlns="http://www.w3.org/2000/svg" width="20.491" height="18" viewBox="0 0 20.491 18"><defs><style>.a{fill:#FF8000;}</style></defs><path class="a" d="M20.218,37.6l-9.642-6.43a.6.6,0,0,0-.666,0L.267,37.6a.6.6,0,1,0,.666,1l2.2-1.464V48.469a.6.6,0,0,0,.6.6H5.07V39.154a.6.6,0,0,1,.6-.6h9.144a.6.6,0,0,1,.6.6v9.915h1.342a.6.6,0,0,0,.6-.6V37.133l2.2,1.464a.6.6,0,1,0,.666-1Zm-9.976.29a1.881,1.881,0,1,1,1.881-1.881,1.881,1.881,0,0,1-1.881,1.881Z" transform="translate(0.001 -31.069)"/><circle class="a" cx="0.68" cy="0.68" r="0.68" transform="translate(9.564 4.259)"/><path class="a" d="M156.735,425.6h3.372v2.214h-3.372Z" transform="translate(-150.463 -409.815)"/><path class="a" d="M271,425.6h3.372v2.214H271Z" transform="translate(-260.158 -409.815)"/><path class="a" d="M213.868,340.267h3.372v2.214h-3.372Z" transform="translate(-205.31 -327.895)"/></svg>