<svg xmlns="http://www.w3.org/2000/svg" width="16.545" height="13" viewBox="0 0 16.545 13">
  <path id="Path_17" data-name="Path 17" d="M16.612,12.709a1.422,1.422,0,0,1-1.043.434H1.977a1.422,1.422,0,0,1-1.043-.434A1.422,1.422,0,0,1,.5,11.666V4.335a4.895,4.895,0,0,0,.933.8Q4.775,7.409,6.021,8.323q.526.388.854.6a5.274,5.274,0,0,0,.872.443A2.66,2.66,0,0,0,8.763,9.6h.019A2.659,2.659,0,0,0,9.8,9.371a5.27,5.27,0,0,0,.872-.443q.328-.217.854-.6,1.569-1.136,4.6-3.185a5.1,5.1,0,0,0,.923-.8v7.331A1.422,1.422,0,0,1,16.612,12.709ZM15.467,4.15l-4.321,3q-.092.065-.392.282t-.5.351q-.2.134-.48.3a2.791,2.791,0,0,1-.531.249,1.467,1.467,0,0,1-.462.083H8.763A1.467,1.467,0,0,1,8.3,8.332a2.8,2.8,0,0,1-.531-.249q-.282-.166-.48-.3t-.5-.351q-.3-.217-.392-.282Q5.56,6.56,3.981,5.466T2.088,4.15a4.584,4.584,0,0,1-1.08-1.066A2.157,2.157,0,0,1,.5,1.823,1.864,1.864,0,0,1,.883.623,1.318,1.318,0,0,1,1.977.143H15.568a1.427,1.427,0,0,1,1.039.434,1.415,1.415,0,0,1,.439,1.043,2.438,2.438,0,0,1-.453,1.394A4.386,4.386,0,0,1,15.467,4.15Z" transform="translate(-0.5 -0.143)" fill="#fff" fill-rule="evenodd"/>
</svg>
