<svg xmlns="http://www.w3.org/2000/svg" width="20" height="20" viewBox="0 0 20 20"><defs><style>.a{fill:#7a797e;}</style></defs><path class="a" d="M12.8,10.715H1.488A1.49,1.49,0,0,1,0,9.226V1.488A1.49,1.49,0,0,1,1.488,0H12.8a1.488,1.488,0,0,1,1.488,1.488V9.226A1.488,1.488,0,0,1,12.8,10.715ZM2.384,1.8a.6.6,0,0,0-.331,1.091L5.97,5.565a2.1,2.1,0,0,0,2.363,0l3.908-2.693v.015a.6.6,0,1,0-.673-.982L7.649,4.584a.893.893,0,0,1-1.012,0L2.726,1.9A.592.592,0,0,0,2.384,1.8Z" transform="translate(2.857 4.643)"/></svg>