<svg xmlns="http://www.w3.org/2000/svg" width="120.75" height="120" viewBox="0 0 120.75 120"><defs><style>.a{fill:#f2f3f5;}.b{fill:#fff;stroke:#52b2e5;stroke-width:3px;}.c{fill:#00a651;}</style></defs><ellipse class="a" cx="60.375" cy="60" rx="60.375" ry="60" transform="translate(0)"/><path class="b" d="M376,476.529a5.463,5.463,0,0,0-2.012-9.85c-.283-.049-13.511,0-13.511,0l1.848-5.12c1.275-3.536.45-8.935-3.088-10.855a5.983,5.983,0,0,0-4.059-.607,2.932,2.932,0,0,0-1.788,1.361,7.5,7.5,0,0,0-.562,2.526,10.965,10.965,0,0,1-2.976,5.777c-2.724,2.7-11.185,10.481-11.185,10.481v28.508h29.239a5.4,5.4,0,0,0,4.585-7.967,5.444,5.444,0,0,0,1.754-7.127A5.444,5.444,0,0,0,376,476.529Z" transform="translate(-294.293 -404.241)"/><path class="c" d="M335.27,508.112a1.769,1.769,0,0,0,1.754-1.782V474.339a1.771,1.771,0,0,0-1.754-1.782h-6.912a1.771,1.771,0,0,0-1.754,1.782V506.33a1.769,1.769,0,0,0,1.754,1.782Z" transform="translate(-291.276 -409.889)"/><path d="M360.366,420.313v12.128a1.384,1.384,0,1,0,2.768,0V420.313a1.384,1.384,0,1,0-2.768,0Zm0,0Z" transform="translate(-299.716 -396.48)"/><path d="M391.1,455.261H379.05a1.394,1.394,0,0,0,0,2.787H391.1a1.394,1.394,0,0,0,0-2.787Zm0,0Z" transform="translate(-304.042 -405.565)"/><path d="M326.983,456.654a1.394,1.394,0,0,0,1.384,1.394h12.047a1.394,1.394,0,0,0,0-2.787H328.368a1.394,1.394,0,0,0-1.384,1.394Zm0,0Z" transform="translate(-291.371 -405.565)"/><path d="M336.176,430.562a1.374,1.374,0,0,0,0-1.96,1.352,1.352,0,0,0-1.947,0,1.374,1.374,0,0,0,0,1.96,1.353,1.353,0,0,0,1.947,0Zm0,0Z" transform="translate(-293.08 -398.797)"/><path d="M341.8,436.221a1.4,1.4,0,0,0,0,1.96,1.364,1.364,0,0,0,.973.413,1.341,1.341,0,0,0,.974-.413,1.4,1.4,0,0,0,0-1.96,1.38,1.38,0,0,0-1.947,0Zm0,0Z" transform="translate(-294.975 -400.705)"/><path d="M339.972,434.384a1.4,1.4,0,0,0,0-1.96,1.38,1.38,0,0,0-1.947,0,1.4,1.4,0,0,0,0,1.96,1.352,1.352,0,0,0,.974.4,1.293,1.293,0,0,0,.974-.4Zm0,0Z" transform="translate(-294.031 -399.756)"/><path d="M345.592,440.036a1.379,1.379,0,0,0-.4.979,1.4,1.4,0,0,0,.411.98,1.353,1.353,0,0,0,1.947,0,1.374,1.374,0,0,0,0-1.96,1.378,1.378,0,0,0-.973-.413,1.361,1.361,0,0,0-.989.413Zm0,0Z" transform="translate(-295.924 -401.656)"/><path d="M385.581,429.791a1.374,1.374,0,0,0,0,1.96,1.369,1.369,0,0,0,2.343-.98,1.451,1.451,0,0,0-.4-.979,1.367,1.367,0,0,0-.974-.4,1.33,1.33,0,0,0-.974.4Zm0,0Z" transform="translate(-305.918 -399.098)"/><path d="M378.993,439.764a1.378,1.378,0,0,0,.973-2.358,1.379,1.379,0,0,0-1.947,0,1.4,1.4,0,0,0,0,1.96,1.351,1.351,0,0,0,.974.4Zm0,0Z" transform="translate(-304.03 -401.001)"/><path d="M381.812,433.588a1.4,1.4,0,0,0,0,1.96,1.353,1.353,0,0,0,1.947,0,1.4,1.4,0,0,0,0-1.96,1.379,1.379,0,0,0-1.947,0Zm0,0Z" transform="translate(-304.978 -400.046)"/><path d="M373.833,442.2a1.4,1.4,0,0,0,.411.98,1.352,1.352,0,0,0,1.947,0,1.374,1.374,0,0,0,0-1.959,1.361,1.361,0,0,0-.974-.4,1.429,1.429,0,0,0-.973.4,1.368,1.368,0,0,0-.411.979Zm0,0Z" transform="translate(-303.083 -401.957)"/></svg>