<svg xmlns="http://www.w3.org/2000/svg" width="29" height="29" viewBox="0 0 29 29"><defs><style>.a,.d{fill:none;}.a{stroke:#7a797e;stroke-width:2px;}.b{fill:#7a797e;}.c{stroke:none;}</style></defs><g transform="translate(-0.454)"><g class="a" transform="translate(0.454)"><circle class="c" cx="14.5" cy="14.5" r="14.5"/><circle class="d" cx="14.5" cy="14.5" r="13.5"/></g><g transform="translate(6.901 7.519)"><g transform="translate(0 0)"><rect class="b" width="3.12" height="9.37" transform="translate(0.18 4.51)"/><path class="b" d="M160.117,140.4a3.358,3.358,0,0,0-2.6-1.073,3.748,3.748,0,0,0-1.083.147,2.457,2.457,0,0,0-.823.411,3.523,3.523,0,0,0-.9.992v-1.332H151.6l.01.454q.01.454.01,2.8t-.019,6.118h3.111V143.69a2.284,2.284,0,0,1,.1-.766,2.009,2.009,0,0,1,.6-.808,1.531,1.531,0,0,1,1-.326,1.345,1.345,0,0,1,1.2.563,2.736,2.736,0,0,1,.383,1.555v5.011H161.1v-5.37A4.5,4.5,0,0,0,160.117,140.4Z" transform="translate(-146.576 -135.038)"/><path class="b" d="M1.759,9.708a1.78,1.78,0,0,0-1.272.459A1.523,1.523,0,0,0,0,11.325a1.549,1.549,0,0,0,.473,1.153,1.706,1.706,0,0,0,1.248.463H1.74a1.781,1.781,0,0,0,1.281-.463A1.5,1.5,0,0,0,3.5,11.325a1.577,1.577,0,0,0-.482-1.158A1.729,1.729,0,0,0,1.759,9.708Z" transform="translate(0 -9.708)"/></g></g></g></svg>