<svg xmlns="http://www.w3.org/2000/svg" width="24.839" height="26.667" viewBox="0 0 24.839 26.667"><defs><style>.a{fill:#52b2e5;}</style></defs><path class="a" d="M11.9,26.428a.805.805,0,0,1-.223-.712l.57-3.238a.812.812,0,0,1,.225-.43l8-8a1.645,1.645,0,0,1,2.477-.19l1.333,1.333a1.885,1.885,0,0,1,0,2.667l-8,8a.8.8,0,0,1-.43.223l-3.238.572a.876.876,0,0,1-.142.013.8.8,0,0,1-.572-.238Zm3.818-1.142h-.01ZM2.963,23.433A2.962,2.962,0,0,1,0,20.47V2.963A2.963,2.963,0,0,1,2.963,0h12.39a2.962,2.962,0,0,1,2.963,2.963V14.188l-6.345,6.333a2.988,2.988,0,0,0-.818,1.583l-.237,1.325Zm.268-14A1.08,1.08,0,0,0,4.308,10.51h7.543a1.078,1.078,0,0,0,0-2.155H4.308A1.082,1.082,0,0,0,3.232,9.428Zm0-4.312A1.082,1.082,0,0,0,4.308,6.2h4.31a1.078,1.078,0,0,0,0-2.155H4.308A1.08,1.08,0,0,0,3.232,5.117Z"/></svg>