<svg xmlns="http://www.w3.org/2000/svg" width="16.758" height="22" viewBox="0 0 16.758 22"><defs><style>.a{fill:#2ebdb6;}.b{fill:#fff;}</style></defs><g transform="translate(7132 5095)"><path class="a" d="M1.933,19.422A2.011,2.011,0,0,1,0,17.4V1.933A1.936,1.936,0,0,1,1.933,0H3.222V.644A1.936,1.936,0,0,0,5.156,2.578H11.6A1.936,1.936,0,0,0,13.535.644V0h1.289a1.936,1.936,0,0,1,1.933,1.933V17.4a2.011,2.011,0,0,1-1.933,2.02Z" transform="translate(-7132 -5092.422)"/><g transform="translate(-7127.488 -5095)"><g transform="translate(0)"><path class="a" d="M172.445,1.289h-1.21L171.083.86a1.29,1.29,0,0,0-2.432,0l-.152.429h-1.21A1.289,1.289,0,0,0,166,2.578v.645a.645.645,0,0,0,.645.645h6.445a.645.645,0,0,0,.645-.645V2.578A1.289,1.289,0,0,0,172.445,1.289Z" transform="translate(-166)"/></g></g><g transform="translate(-7129.8 -5087.3)"><rect class="b" width="12.1" height="1.65" rx="0.825"/><rect class="b" width="12.1" height="1.65" rx="0.825" transform="translate(0 4.4)"/><rect class="b" width="12.1" height="1.65" rx="0.825" transform="translate(0 8.8)"/></g></g></svg>