<svg xmlns="http://www.w3.org/2000/svg" width="9.655" height="13.999" viewBox="0 0 9.655 13.999"><defs><style>.a{fill:#7a797e;}</style></defs><path class="a" d="M4.83,14A4.823,4.823,0,0,1,2.174,5.147V2.468A2.57,2.57,0,0,1,4.83,0,2.568,2.568,0,0,1,7.484,2.468V5.147A4.824,4.824,0,0,1,4.83,14Zm0-6.758a.968.968,0,0,0-.967.967V9.656a.965.965,0,1,0,1.93,0V8.209A.966.966,0,0,0,4.83,7.242ZM4.5,1.4a1,1,0,0,0-1,1V4.9H6.3V4.58l.042.014.042.014.054.02.137.051c.086.034.188.076.289.125l.015.007c.042.019.081.036.122.058l-.7-2.4V2.4a1,1,0,0,0-1-1Z" transform="translate(-0.001 -0.001)"/></svg>