<svg xmlns="http://www.w3.org/2000/svg" width="20.002" height="19.996" viewBox="0 0 20.002 19.996"><defs><style>.a{fill:#FF8000;}</style></defs><path class="a" d="M8942.02-460.017l-8.333-1.665a.834.834,0,0,1-.671-.817v-16.668c0-.016.013-.031.013-.047a.468.468,0,0,1,0-.074.845.845,0,0,1,.066-.194.635.635,0,0,1,.021-.069.824.824,0,0,1,.223-.264c.007-.006.008-.014.017-.02a.534.534,0,0,1,.058-.025.826.826,0,0,1,.24-.1,1.075,1.075,0,0,1,.113-.02c.028,0,.055-.014.085-.014h13.333a.831.831,0,0,1,.589.243.832.832,0,0,1,.244.589v5a.835.835,0,0,1-.244.59.832.832,0,0,1-.59.244.834.834,0,0,1-.834-.834v-4.168h-6.82l2.894.868a.833.833,0,0,1,.595.8v13.333h3.332V-467.5a.832.832,0,0,1,.833-.834.832.832,0,0,1,.59.244.835.835,0,0,1,.244.59v5a.835.835,0,0,1-.244.59.832.832,0,0,1-.59.244h-4.165v.834a.833.833,0,0,1-.3.644.846.846,0,0,1-.53.19A.769.769,0,0,1,8942.02-460.017Zm7.076-7.727a.83.83,0,0,1-.245-.589.83.83,0,0,1,.245-.589l1.076-1.077h-4.656a.834.834,0,0,1-.833-.834.834.834,0,0,1,.833-.834h4.656l-1.076-1.077a.83.83,0,0,1-.245-.59.83.83,0,0,1,.245-.589.831.831,0,0,1,1.176,0l2.5,2.5a.855.855,0,0,1,.184.272.846.846,0,0,1,0,.637.85.85,0,0,1-.183.272l-2.5,2.5a.825.825,0,0,1-.589.245.821.821,0,0,1-.594-.247Z" transform="translate(-8933.016 479.994)"/></svg>