<svg xmlns="http://www.w3.org/2000/svg" width="15.211" height="20" viewBox="0 0 15.211 20"><defs><style>.a{fill:#7a797e;}</style></defs><g transform="translate(-41.895)"><path class="a" d="M108.562,9.781c2.224,0,4.026-2.19,4.026-4.891S112,0,108.562,0s-4.027,2.19-4.027,4.891S106.338,9.781,108.562,9.781Z" transform="translate(-59.06)"/><path class="a" d="M41.9,300.457Z" transform="translate(0 -283.208)"/><path class="a" d="M308.085,301.636Z" transform="translate(-250.979 -284.258)"/><path class="a" d="M57.11,184.635c-.075-4.705-.689-6.046-5.392-6.9a3.3,3.3,0,0,1-4.41,0c-4.651.839-5.3,2.16-5.389,6.742-.007.374-.01.394-.012.35v.494s1.12,2.257,7.6,2.257,7.6-2.257,7.6-2.257v-.366a3.026,3.026,0,0,1,0-.325Z" transform="translate(-0.012 -167.583)"/></g></svg>