<svg xmlns="http://www.w3.org/2000/svg" xmlns:xlink="http://www.w3.org/1999/xlink" width="18" height="15" viewBox="0 0 18 15"><defs><style>.a{fill:#FF8000;}.b{clip-path:url(#a);}</style><clipPath id="a"><path class="a" d="M1.336,15a1.336,1.336,0,1,1,0-2.671H16.664a1.336,1.336,0,0,1,0,2.671Zm0-6.165a1.336,1.336,0,0,1,0-2.671H16.664a1.336,1.336,0,0,1,0,2.671Zm0-6.164A1.336,1.336,0,1,1,1.336,0H16.664a1.336,1.336,0,0,1,0,2.671Z" transform="translate(5 7)"/></clipPath></defs><g transform="translate(-5 -7)"><path class="a" d="M1.336,15a1.336,1.336,0,1,1,0-2.671H16.664a1.336,1.336,0,0,1,0,2.671Zm0-6.165a1.336,1.336,0,0,1,0-2.671H16.664a1.336,1.336,0,0,1,0,2.671Zm0-6.164A1.336,1.336,0,1,1,1.336,0H16.664a1.336,1.336,0,0,1,0,2.671Z" transform="translate(5 7)"/></g></svg>