<svg xmlns="http://www.w3.org/2000/svg" width="11.326" height="20" viewBox="0 0 11.326 20"><defs><style>.a{fill:#FF8000;}</style></defs><path class="a" d="M15.821,0H7.406A1.456,1.456,0,0,0,5.951,1.457V18.545A1.455,1.455,0,0,0,7.406,20h8.415a1.456,1.456,0,0,0,1.455-1.455V1.457A1.457,1.457,0,0,0,15.821,0ZM9.537.885h4.154c.1,0,.19.157.19.351s-.085.351-.19.351H9.537c-.106,0-.189-.157-.189-.351S9.432.885,9.537.885Zm2.077,17.677a.929.929,0,1,1,.928-.93A.93.93,0,0,1,11.615,18.562Zm4.572-3.184H7.042V2.458h9.144v12.92Z" transform="translate(-5.951)"/></svg>