<svg xmlns="http://www.w3.org/2000/svg" width="12.372" height="20" viewBox="0 0 12.372 20"><defs><style>.a{fill:#7a797e;}</style></defs><g transform="translate(-6.063)"><path class="a" d="M14.611,5.607a2.757,2.757,0,0,0,2.71-2.8,2.713,2.713,0,1,0-5.424,0A2.76,2.76,0,0,0,14.611,5.607Z" transform="translate(-2.164)"/><path class="a" d="M17.255,11.713a2.976,2.976,0,0,0-2.989-1.66l-4.083.011c-2.025-.113-2.833,1.083-2.96,1.614,0,0-1.368,4.366-1.133,5.378.145.628,1.235,1.4,2.395,1.967L6.94,23.729H17.834l-1.5-4.872c1.035-.548,1.945-1.232,2.076-1.8C18.645,16.031,17.255,11.713,17.255,11.713ZM10.62,16.525a1.519,1.519,0,0,1-.618.133,1.564,1.564,0,1,1,1.546-1.607,1.853,1.853,0,0,1,.741-.317v0a1.4,1.4,0,0,1,.544,0,26.755,26.755,0,0,1,3.3,1.235,4.6,4.6,0,0,1-3.433,1.5c-.058,0-.114,0-.168,0h0c-.2-.005-.387-.018-.552-.038C10.932,17.308,10.633,16.918,10.62,16.525Z" transform="translate(0 -3.729)"/></g></svg>