<svg xmlns="http://www.w3.org/2000/svg" width="28" height="23.13" viewBox="0 0 28 23.13"><defs><style>.a{fill:#5937cc;}</style></defs><g transform="translate(0 -32)"><g transform="translate(0 32)"><g transform="translate(0 0)"><path class="a" d="M27.391,41.739a.608.608,0,0,0-.609.609v1.826H24.348V42.348a.608.608,0,0,0-.609-.609H20.7V39.913a.608.608,0,0,0-.609-.609H17.043V33.217h3.043a.609.609,0,1,0,0-1.217H7.913a.609.609,0,0,0,0,1.217h3.043V39.3H7.913a.608.608,0,0,0-.609.609v1.826H4.261a.608.608,0,0,0-.609.609v1.826H1.217V42.348a.609.609,0,1,0-1.217,0v9.739a.609.609,0,1,0,1.217,0V50.261H3.652v1.826a.608.608,0,0,0,.609.609H7.3v1.826a.608.608,0,0,0,.609.609H20.087a.608.608,0,0,0,.609-.609V52.7h3.043a.608.608,0,0,0,.609-.609V50.261h2.435v1.826a.609.609,0,1,0,1.217,0V42.348A.608.608,0,0,0,27.391,41.739Zm-23.739,7.3H1.217V45.391H3.652Zm8.522-15.826h3.652V39.3H12.174ZM23.13,51.478H20.087a.608.608,0,0,0-.609.609v1.826H8.522V52.087a.608.608,0,0,0-.609-.609H4.87V42.957H7.913a.608.608,0,0,0,.609-.609V40.522H19.478v1.826a.608.608,0,0,0,.609.609H23.13Zm3.652-2.435H24.348V45.391h2.435Z" transform="translate(0 -32)"/></g></g><g transform="translate(10.956 42.957)"><g transform="translate(0 0)"><path class="a" d="M150.044,180.052a.607.607,0,0,0-.57-.4H146.25l3.011-2.581a.608.608,0,0,0-.792-.923l-4.261,3.652a.608.608,0,0,0,.4,1.07h3.224l-3.011,2.581a.608.608,0,1,0,.791.924l4.261-3.652A.606.606,0,0,0,150.044,180.052Z" transform="translate(-143.995 -176.002)"/></g></g></g></svg>