<svg xmlns="http://www.w3.org/2000/svg" width="28.105" height="22.97" viewBox="0 0 28.105 22.97"><defs><style>.a{fill:#c9c9c9;}.b{fill:#fff;}</style></defs><g transform="translate(-14.441 -60.874)"><g transform="translate(18 64.5)"><path class="a" d="M17.916,15H2.083A2.086,2.086,0,0,1,0,12.917V2.084A2.086,2.086,0,0,1,2.083,0H17.916A2.083,2.083,0,0,1,20,2.084V12.917A2.083,2.083,0,0,1,17.916,15ZM8.333,6.145a.83.83,0,0,0-.571.226l-5,4.687A.833.833,0,0,0,3.334,12.5h13.4a.834.834,0,0,0,.592-1.4L15.587,9.355a.833.833,0,0,0-1.175,0l-.571.571a.833.833,0,0,1-1.158,0L8.9,6.371A.832.832,0,0,0,8.333,6.145Zm7.5-3.645A1.666,1.666,0,1,0,17.5,4.167,1.669,1.669,0,0,0,15.834,2.5Z" transform="translate(0)"/></g><g transform="translate(0.986 -0.5)"><path class="b" d="M0,0,32.333-.829,32.289.925-.044,1.754Z" transform="matrix(0.788, -0.616, 0.616, 0.788, 14, 81.934)"/><path class="a" d="M0,0,32.333-.829,32.289.925-.044,1.754Z" transform="matrix(0.788, -0.616, 0.616, 0.788, 15, 82.934)"/></g></g></svg>