<svg xmlns="http://www.w3.org/2000/svg" width="20" height="20" viewBox="0 0 20 20"><defs><style>.a{fill:#f14b71;}</style></defs><g transform="translate(-4 -4)"><path class="a" d="M17.619,20H2.381A2.384,2.384,0,0,1,0,17.619V4.762A2.384,2.384,0,0,1,2.381,2.381h.952V1.428a1.428,1.428,0,1,1,2.857,0v.953H8.572V1.428a1.428,1.428,0,1,1,2.857,0v.953H13.81V1.428a1.429,1.429,0,0,1,2.857,0v.953h.952A2.383,2.383,0,0,1,20,4.762V17.619A2.383,2.383,0,0,1,17.619,20ZM6.429,12.381a.952.952,0,1,0,0,1.9h4.762a.952.952,0,1,0,0-1.9Zm0-4.286a.952.952,0,0,0,0,1.9h7.142a.952.952,0,1,0,0-1.9Z" transform="translate(4 4)"/></g></svg>