<svg xmlns="http://www.w3.org/2000/svg" width="28" height="17.5" viewBox="0 0 28 17.5"><defs><style>.a{fill:#4e78f4;}</style></defs><g transform="translate(0 -102.479)"><path class="a" d="M26.735,109.626l-2.625-1.75a.868.868,0,0,0-.784-.094l-8.892,3.233-1.793-3.585a2.612,2.612,0,0,0-2.348-1.451H7v-1.75h3.5v-1.75H1.75v1.75h3.5v1.75H2.625A2.628,2.628,0,0,0,0,108.6v8.75a2.628,2.628,0,0,0,2.625,2.625H14.055a2.619,2.619,0,0,0,2.017-.944l7.722-9.267,1.97,1.314.971-1.456Zm-12.008,8.289a.871.871,0,0,1-.672.314H2.625a.876.876,0,0,1-.875-.875V108.6a.876.876,0,0,1,.875-.875h7.668a.869.869,0,0,1,.783.484l2.141,4.283a.876.876,0,0,0,1.082.431l6.579-2.392Z"/><path class="a" d="M479.983,273.274s-1.75,1.75-1.75,3.5a1.75,1.75,0,1,0,3.5,0C481.733,275.023,479.983,273.274,479.983,273.274Z" transform="translate(-453.733 -162.045)"/></g></svg>