<svg xmlns="http://www.w3.org/2000/svg" width="25.01" height="20.655" viewBox="0 0 25.01 20.655"><defs><style>.a{fill:#7a797e;}.b{fill:#FF8000;}</style></defs><path class="a" d="M223.983,313.527c-1.638-1.607-3.334-3.261-5.019-4.927-1.071-1.059-2.122-2.139-3.188-3.2-.981-.979-1.741-1.486-1.417-2.7a5.751,5.751,0,0,1,.65-1.346c-.25-.2-.511-.387-.745-.6a.384.384,0,0,1,0-.619c.828-.824,1.649-1.653,2.478-2.476a.423.423,0,0,1,.7.048,1.294,1.294,0,0,0,1.152.479,2.341,2.341,0,0,0,1.878-.843c.637-.7,1.338-1.342,2.021-2a2.609,2.609,0,0,1,3.777.013c.824.8,1.615,1.641,2.45,2.433.444.421.95.777,1.534,1.247-.37.324-.691.574-.976.861a.812.812,0,0,0-.044,1.215.832.832,0,0,0,1.182-.075,5.738,5.738,0,0,0,.43-.432c.133-.152.247-.321.384-.5l.674.73c-.278.3-.554.59-.819.887a.813.813,0,1,0,1.155,1.134c.284-.264.56-.538.84-.806.011-.01.031-.01.062-.018l1.16,1.174Q229.133,308.377,223.983,313.527Zm.066-10.469-.127.151a11.6,11.6,0,0,0,1.242,4.01,2.05,2.05,0,0,0,.987.732,2.05,2.05,0,0,0,1.471-3.818C226.456,303.707,225.242,303.411,224.049,303.058Zm-2.088-5.029h4.856c-.525-.562-1.04-1.141-1.588-1.687a1.114,1.114,0,0,0-1.667-.023C223,296.869,222.48,297.47,221.961,298.029Z" transform="translate(-210.977 -294.54)"/><path class="b" d="M321.44,400.439,331.8,390.08a1.25,1.25,0,0,1,.615,1.173A4.327,4.327,0,0,1,331,394.646c-1.774,1.719-3.5,3.488-5.25,5.233a3.76,3.76,0,0,1-2.934,1.148A1.916,1.916,0,0,1,321.44,400.439Z" transform="translate(-307.407 -380.377)"/><path class="b" d="M186.005,408.72a18.371,18.371,0,0,1,2.561,4.184,2.576,2.576,0,0,1-.909,3.066,2.716,2.716,0,0,1-3.259.023,2.583,2.583,0,0,1-.955-3.05A18.831,18.831,0,0,1,186.005,408.72Z" transform="translate(-183.271 -397.124)"/></svg>