<svg xmlns="http://www.w3.org/2000/svg" width="35.932" height="40" viewBox="0 0 35.932 40"><defs><style>.a{fill:#f3c716;}</style></defs><g transform="translate(-63 -379)"><circle class="a" cx="6" cy="6" r="6" transform="translate(85 405)"/><g transform="translate(38.996 379)"><g transform="translate(26.716 22.372)"><path d="M56.682,264a.678.678,0,0,0-.678.678v2.712a.678.678,0,1,0,1.356,0V264.68A.678.678,0,0,0,56.682,264Z" transform="translate(-56.004 -264.002)"/></g><g transform="translate(29.427 23.728)"><g transform="translate(0)"><path d="M88.682,280a.678.678,0,0,0-.678.678v2.712a.678.678,0,1,0,1.356,0V280.68A.678.678,0,0,0,88.682,280Z" transform="translate(-88.004 -280.002)"/></g></g><g transform="translate(24.004 0)"><g transform="translate(0 0)"><path d="M59.615,29.611a8.132,8.132,0,0,0-4.426-5.138V9.491a.678.678,0,0,0-.333-.584L39.941.095a.678.678,0,0,0-.69,0L24.337,8.908c-.014.008-.024.02-.038.03s-.026.02-.04.031a.668.668,0,0,0-.15.165s-.008.007-.011.012v0a.678.678,0,0,0-.077.222.6.6,0,0,1-.008.06A.593.593,0,0,0,24,9.491V27.117a.678.678,0,0,0,.333.584l14.914,8.813a.557.557,0,0,0,.055.023.535.535,0,0,0,.057.024.6.6,0,0,0,.466,0,.546.546,0,0,0,.058-.024c.018-.008.037-.013.054-.023l4.048-2.392a8.132,8.132,0,0,0,15.625-4.511ZM39.6,1.465l3.525,2.083L37.895,6.637a.678.678,0,1,0,.69,1.168l5.87-3.466L47.98,6.422,34.4,14.446l-3.525-2.083,5.679-3.356a.678.678,0,1,0-.69-1.168l-6.322,3.736L26.015,9.491ZM33.721,15.62v4.527l-3.5-2.07V13.551ZM43.932,29.767a8.26,8.26,0,0,0-.223,2.945l-3.434,2.03v-2.2a.678.678,0,1,0-1.356,0v2.2L25.36,26.731V10.68l3.5,2.07v5.714a.678.678,0,0,0,.333.584l4.858,2.871a.678.678,0,0,0,1.023-.584V16.421l3.842,2.27V29.829a.678.678,0,0,0,1.356,0V18.691l12.287-7.261a.678.678,0,1,0-.69-1.167L39.6,17.517l-3.864-2.284L49.314,7.207l4.519,2.67V24A8.1,8.1,0,0,0,43.932,29.767ZM51.8,38.642a6.779,6.779,0,1,1,6.779-6.779A6.779,6.779,0,0,1,51.8,38.642Z" transform="translate(-24.004 0)"/></g></g><g transform="translate(49.096 29.837)"><path d="M325.3,352.29a.678.678,0,0,0-.942,0l-2.571,2.571-.538-.538a.678.678,0,0,0-.959.959l1.017,1.017a.678.678,0,0,0,.959,0l3.051-3.051A.678.678,0,0,0,325.3,352.29Z" transform="translate(-320.102 -352.1)"/></g></g></g></svg>