<svg xmlns="http://www.w3.org/2000/svg" width="39.999" height="40" viewBox="0 0 39.999 40"><defs><style>.a{fill:#f3c716;}</style></defs><g transform="translate(-61 -279)"><circle class="a" cx="8" cy="8" r="8" transform="translate(74 286)"/><g transform="translate(60.993 279)"><g transform="translate(0.007)"><path d="M39.672,20.617l-5.667-3.283,5.667-3.283a.665.665,0,0,0,0-1.153L27.006,5.564a.667.667,0,0,0-.667,0l-1.333.771a.667.667,0,1,0,.618,1.181l.049-.028,1-.578,11.333,6.563-5.333,3.089L24.622,11.9l.6-.853A.667.667,0,0,0,24.672,10h-2a10.011,10.011,0,0,0-10-10H6.006a.667.667,0,1,0,0,1.333h6.667A8.677,8.677,0,0,1,21.339,10v.667a.667.667,0,0,0,.667.667h1.387l-3.387,4.837-3.387-4.837h1.387a.667.667,0,0,0,.667-.667V9.333a4,4,0,0,0-4-4H11.339a.667.667,0,0,0,0,1.333h3.333a2.667,2.667,0,0,1,2.667,2.667V10h-2a.667.667,0,0,0-.546,1.049l.6.853L7.339,16.563,2.006,13.474l8.458-4.9A.667.667,0,0,0,9.846,7.4L9.8,7.423.339,12.9a.667.667,0,0,0,0,1.153l5.667,3.283L.339,20.616a.667.667,0,0,0,0,1.153l6.333,3.667V32a.667.667,0,0,0,.333.577L19.672,39.91c.015.009.033.013.049.021s.037.016.056.023a.591.591,0,0,0,.457,0l.056-.023a.5.5,0,0,0,.049-.021l12.667-7.333A.667.667,0,0,0,33.339,32V25.437l6.333-3.667a.667.667,0,0,0,0-1.153Zm-37.667.576L7.339,18.1l11.333,6.563-5.333,3.089ZM19.339,38.177,8.006,31.616V26.209l5,2.894a.667.667,0,0,0,.667,0l5.667-3.28ZM20.006,23.9,8.672,17.333,16.16,13l3.3,4.715a.667.667,0,0,0,1.092,0L23.854,13l7.488,4.333Zm12,7.719L20.672,38.177V25.823l5.667,3.28a.667.667,0,0,0,.667,0l5-2.894Zm-5.333-3.86-5.333-3.089L32.672,18.1l5.333,3.089Z" transform="translate(-0.007)"/></g><g transform="translate(6.672 5.333)"><path d="M81.994,64H80.661a.667.667,0,0,0,0,1.333h1.333a.667.667,0,0,0,0-1.333Z" transform="translate(-79.994 -64)"/></g><g transform="translate(1.339)"><path d="M17.994,0H16.661a.667.667,0,1,0,0,1.333h1.333a.667.667,0,1,0,0-1.333Z" transform="translate(-15.994)"/></g><g transform="translate(4.006 2.667)"><path d="M53.994,32H48.661a.667.667,0,1,0,0,1.333h5.333a.667.667,0,1,0,0-1.333Z" transform="translate(-47.994 -32)"/></g><g transform="translate(29.339 28.667)"><path d="M352.661,344a.667.667,0,0,0-.667.667V346a.667.667,0,1,0,1.333,0v-1.333A.667.667,0,0,0,352.661,344Z" transform="translate(-351.994 -344)"/></g><g transform="translate(26.672 30)"><path d="M320.661,360a.667.667,0,0,0-.667.667V362a.667.667,0,1,0,1.333,0v-1.333A.667.667,0,0,0,320.661,360Z" transform="translate(-319.994 -360)"/></g></g></g></svg>