<svg xmlns="http://www.w3.org/2000/svg" width="14.793" height="21" viewBox="0 0 14.793 21"><defs><style>.a{fill:#FF8000;stroke:rgba(0,0,0,0);stroke-miterlimit:10;}</style></defs><path class="a" d="M554.839,642.849v-3.826a3.8,3.8,0,0,0-7.587,0v3.826a6.9,6.9,0,1,0,7.587,0Zm-5.9-3.826c0-1.563.391-1.834,2.1-1.834s2.1.272,2.1,1.834l1,3.427c-.065-.033-.131-.062-.2-.093-.136-.063-.273-.123-.413-.178-.09-.035-.181-.068-.272-.1s-.179-.061-.269-.088c-.151-.045-.3-.083-.458-.118-.066-.015-.133-.029-.2-.042-.18-.035-.362-.063-.544-.083l-.125-.011c-.208-.02-.417-.033-.626-.033s-.419.013-.626.032c-.043,0-.084.006-.125.011-.182.02-.364.049-.543.084-.068.012-.134.027-.2.042-.153.034-.306.072-.458.117-.09.027-.178.058-.269.089s-.182.064-.271.1C548.412,642.234,548.275,642.294,548.943,639.023Zm3.482,10.269a1.379,1.379,0,1,1-2.758,0v-2.069a1.379,1.379,0,1,1,2.758,0Z" transform="translate(-543.648 -634.999)"/></svg>