<svg xmlns="http://www.w3.org/2000/svg" width="10.753" height="11.265" viewBox="0 0 10.753 11.265"><defs><style>.a{fill:#7a797e;}</style></defs><path class="a" d="M136.248,196.391a.561.561,0,0,1-.159.477l-1.514,1.575a.854.854,0,0,1-.268.2,1.07,1.07,0,0,1-.324.107l-.068.006q-.057.006-.148.006a5.023,5.023,0,0,1-.7-.078,5.14,5.14,0,0,1-1.184-.382,9.8,9.8,0,0,1-1.588-.913,12,12,0,0,1-1.89-1.671,12.92,12.92,0,0,1-1.321-1.575,11.313,11.313,0,0,1-.842-1.39,7.7,7.7,0,0,1-.478-1.158,6.405,6.405,0,0,1-.216-.9,3.1,3.1,0,0,1-.046-.591q.011-.215.011-.239a1.2,1.2,0,0,1,.1-.34.892.892,0,0,1,.194-.28l1.514-1.587a.491.491,0,0,1,.364-.167.412.412,0,0,1,.262.09.814.814,0,0,1,.193.221l1.218,2.423a.605.605,0,0,1,.057.418.756.756,0,0,1-.194.382l-.558.585a.2.2,0,0,0-.04.078.309.309,0,0,0-.017.089,2.216,2.216,0,0,0,.2.573,5.287,5.287,0,0,0,.421.7,11.095,11.095,0,0,0,1.719,1.8,5.217,5.217,0,0,0,.666.448,1.724,1.724,0,0,0,.41.173l.142.03a.259.259,0,0,0,.074-.018.188.188,0,0,0,.074-.042l.649-.692a.68.68,0,0,1,.478-.191.573.573,0,0,1,.307.072h.011l2.2,1.36A.6.6,0,0,1,136.248,196.391Z" transform="translate(-125.5 -187.5)"/></svg>