<svg xmlns="http://www.w3.org/2000/svg" width="29" height="29" viewBox="0 0 29 29"><defs><style>.a,.d{fill:none;}.a{stroke:#7a797e;stroke-width:2px;}.b{fill:#7a797e;}.c{stroke:none;}</style></defs><g transform="translate(-0.339)"><g class="a" transform="translate(0.338)"><circle class="c" cx="14.5" cy="14.5" r="14.5"/><circle class="d" cx="14.5" cy="14.5" r="13.5"/></g><g transform="translate(9.118 6.94)"><path class="b" d="M43.467,1.541A5.767,5.767,0,0,0,39.434,0a6.34,6.34,0,0,0-4.676,1.8A5.328,5.328,0,0,0,33.181,5.5a3.465,3.465,0,0,0,1.873,3.437.62.62,0,0,0,.236.049.524.524,0,0,0,.511-.421c.04-.149.131-.516.171-.676A.634.634,0,0,0,35.8,7.2,2.185,2.185,0,0,1,35.3,5.7a3.759,3.759,0,0,1,3.9-3.784c2.008,0,3.256,1.142,3.256,2.979a6.19,6.19,0,0,1-.7,3.024,2.08,2.08,0,0,1-1.721,1.2,1.141,1.141,0,0,1-.907-.415,1.043,1.043,0,0,1-.183-.906c.09-.379.212-.774.33-1.156a7.157,7.157,0,0,0,.419-1.883,1.367,1.367,0,0,0-1.376-1.5c-1.046,0-1.866,1.062-1.866,2.419a3.6,3.6,0,0,0,.257,1.354c-.132.558-.915,3.878-1.063,4.5-.086.365-.6,3.251.253,3.481.962.259,1.822-2.552,1.91-2.87.071-.258.319-1.235.471-1.835a2.909,2.909,0,0,0,1.94.75,4.327,4.327,0,0,0,3.474-1.738A6.978,6.978,0,0,0,45,5.06,4.92,4.92,0,0,0,43.467,1.541Z" transform="translate(-33.181)"/></g></g></svg>