<svg xmlns="http://www.w3.org/2000/svg" xmlns:xlink="http://www.w3.org/1999/xlink" width="26" height="26" viewBox="0 0 26 26"><defs><style>.a{fill:#7a797e;}.b{clip-path:url(#a);}</style><clipPath id="a"><path class="a" d="M.3,14.557a1.026,1.026,0,0,0,1.45,0L7.429,8.879l5.678,5.678a1.026,1.026,0,0,0,1.45-1.45L8.879,7.429,14.557,1.75A1.026,1.026,0,0,0,13.107.3L7.429,5.978,1.75.3A1.026,1.026,0,0,0,.3,1.75L5.978,7.429.3,13.107A1.026,1.026,0,0,0,.3,14.557Z" transform="translate(10.506 0) rotate(45)"/></clipPath></defs><g transform="translate(2.494 2.494)"><path class="a" d="M.3,14.557a1.026,1.026,0,0,0,1.45,0L7.429,8.879l5.678,5.678a1.026,1.026,0,0,0,1.45-1.45L8.879,7.429,14.557,1.75A1.026,1.026,0,0,0,13.107.3L7.429,5.978,1.75.3A1.026,1.026,0,0,0,.3,1.75L5.978,7.429.3,13.107A1.026,1.026,0,0,0,.3,14.557Z" transform="translate(10.506 0) rotate(45)"/></g></svg>