<svg xmlns="http://www.w3.org/2000/svg" width="12.748" height="14" viewBox="0 0 12.748 14"><defs><style>.a{fill:#fff;}</style></defs><g transform="translate(-1.162)"><g transform="translate(1.162)"><path class="a" d="M10.674,18.488H9.4q-.185.3-.359.577H10.4l2.311,2.886H2.363l2.312-2.886H6.028c-.115-.184-.235-.377-.359-.577H4.4L1.162,22.529H13.91Z" transform="translate(-1.162 -8.529)"/><path class="a" d="M13.568,3.993a3.994,3.994,0,0,0-7.987,0c0,2.205,3.994,7.987,3.994,7.987S13.568,6.2,13.568,3.993Zm-5.991,0a2,2,0,1,1,2,2A2,2,0,0,1,7.578,3.993Z" transform="translate(-3.201)"/></g></g></svg>