<svg xmlns="http://www.w3.org/2000/svg" width="31" height="31" viewBox="0 0 31 31"><defs><style>.a{fill:#fff;stroke:#FF8000;}.b{fill:#FF8000;}</style></defs><g transform="translate(-1203 -853)"><circle class="a" cx="15" cy="15" r="15" transform="translate(1203.5 853.5)"/><path class="b" d="M13.226,12.752,9.914,9.287A5.657,5.657,0,0,0,5.613,0a5.653,5.653,0,0,0,0,11.3,5.536,5.536,0,0,0,3.219-1.023l3.337,3.492a.73.73,0,0,0,1.036.02A.741.741,0,0,0,13.226,12.752ZM5.613,1.475A4.178,4.178,0,1,1,1.46,5.653,4.17,4.17,0,0,1,5.613,1.475Z" transform="translate(1212.005 861)"/></g></svg>