<svg xmlns="http://www.w3.org/2000/svg" width="25.01" height="25.869" viewBox="0 0 25.01 25.869"><defs><style>.a{fill:#FF8000;}.b,.c{fill:#7a797e;}.c{opacity:0.2;mix-blend-mode:multiply;isolation:isolate;}</style></defs><path class="a" d="M147.523,193.146a1.67,1.67,0,1,0-1.67,1.67A1.67,1.67,0,0,0,147.523,193.146Zm-6.083.534v-1.068l.931-.241a3.525,3.525,0,0,1,.473-1.14l-.487-.83.377-.377.377-.377.83.487a3.6,3.6,0,0,1,1.138-.473l.241-.931h1.067l.241.931a3.525,3.525,0,0,1,1.14.473l.829-.487.377.377.377.377-.487.829a3.525,3.525,0,0,1,.473,1.14l.931.241v1.068l-.931.241a3.558,3.558,0,0,1-.471,1.14l.487.829-.377.377-.377.377-.829-.487a3.525,3.525,0,0,1-1.14.473l-.241.931H145.32l-.241-.931a3.525,3.525,0,0,1-1.14-.473l-.829.487-.377-.377-.377-.377.487-.829a3.525,3.525,0,0,1-.473-1.14Z" transform="translate(-134.368 -173.573)"/><path class="b" d="M100.228,95.09a2.482,2.482,0,0,1,2.365,1.732h0l.7,1.827,5.186,2.666c-1.915,1.4-7.077,4.5-7.077,4.5l-2.391-3.933-1.177-3.615.01,0a2.481,2.481,0,0,1,2.379-3.174Z" transform="translate(-97.75 -95.09)"/><path class="c" d="M107.729,106.109a1.029,1.029,0,1,0-1.029-1.029A1.03,1.03,0,0,0,107.729,106.109Z" transform="translate(-105.251 -102.6)"/><path class="b" d="M130.018,118.22h3.435v1.6h-3.011l-3.1,2.148a.89.89,0,0,0-.034,1.125.928.928,0,0,0,1.094.3l1.565-.77a4.078,4.078,0,0,1,1.7-.3h1.782V125.8c-3.208-2.473-7.76,1.01-7.76,1.01-3.127,1.742-4.424-.121-4.424-.121l-.937-1.492,5.418-4.107Z" transform="translate(-116.675 -114.476)"/><path class="b" d="M133.419,180.048l4.2,2.051a.987.987,0,0,0,.971-.034c.214-.126,1.06-.633,1.6-.955a.935.935,0,0,0,.463-.863c0-.431-.021-4.943-.021-4.943l3.716-1.682a13.724,13.724,0,0,0,2.468-1.526l1.763-3.224-4.416-.7-1.284,3.422-9.147,4.984a1.168,1.168,0,0,0-.6.926c-.036.38-.1,1.075-.147,1.6A1.025,1.025,0,0,0,133.419,180.048Zm1.106-.939.1-1.029,1.929-.851,2.483,1.136.013,1.682-1.172.7Z" transform="translate(-127.281 -156.341)"/><path class="c" d="M164.467,212.6a.817.817,0,1,1,.817-.817A.817.817,0,0,1,164.467,212.6Z" transform="translate(-152.983 -192.213)"/><g transform="translate(16.596 3.108)"><path class="b" d="M200.28,122.636V114.29h2.286a5.81,5.81,0,0,1,6.128,6.083v2.49h-3.283s0,2.04-2.549,2.04A2.357,2.357,0,0,1,200.28,122.636Z" transform="translate(-200.28 -114.29)"/><path class="c" d="M200.28,122.636V114.29h2.286a5.81,5.81,0,0,1,6.128,6.083v2.49h-3.283s0,2.04-2.549,2.04A2.357,2.357,0,0,1,200.28,122.636Z" transform="translate(-200.28 -114.29)"/><path class="c" d="M206.227,119.75a.677.677,0,1,0,.677.677A.676.676,0,0,0,206.227,119.75Z" transform="translate(-204.697 -118.866)"/><path class="c" d="M240.487,153.783a.677.677,0,1,0-.677-.677A.677.677,0,0,0,240.487,153.783Z" transform="translate(-233.411 -146.256)"/></g></svg>