<svg xmlns="http://www.w3.org/2000/svg" width="17.73" height="17.73" viewBox="0 0 17.73 17.73"><defs><style>.a{fill:#fff;}</style></defs><path class="a" d="M10.947,17.73H2.111A2.113,2.113,0,0,1,0,15.62V2.111A2.114,2.114,0,0,1,2.111,0H15.62a2.125,2.125,0,0,1,1.492.618,2.1,2.1,0,0,1,.618,1.493v8.836a2.124,2.124,0,0,1-.616,1.49l-4.678,4.678A2.124,2.124,0,0,1,10.947,17.73Zm1.718-7.176a2.113,2.113,0,0,0-2.11,2.11v2.782a.422.422,0,0,0,.422.42.423.423,0,0,0,.3-.125l4.466-4.466a.422.422,0,0,0-.3-.721Z"/></svg>