<svg xmlns="http://www.w3.org/2000/svg" width="14.889" height="20.004" viewBox="0 0 14.889 20.004"><defs><style>.a{fill:#7a797e;}</style></defs><g transform="translate(-0.003 0.002)"><path class="a" d="M142.26,1.516H140.8a.411.411,0,0,1-.385-.308A1.489,1.489,0,0,0,138.9,0a1.515,1.515,0,0,0-1.515,1.232.385.385,0,0,1-.385.282h-1.412v2.57h6.675Z" transform="translate(-131.477 -0.001)"/><path class="a" d="M66.878,77.9V63.188a1.053,1.053,0,0,0-1.05-1.055H63.541v1.309c0,.205-.128.488-.334.488H55.634c-.205,0-.308-.282-.308-.488V62.135H53.118a1.053,1.053,0,0,0-1.127.973V77.9a1.155,1.155,0,0,0,1.129,1.181H65.749a1.155,1.155,0,0,0,1.13-1.18Zm-9.524-3.39-2,1.874a.359.359,0,0,1-.257.128.411.411,0,0,1-.282-.128L53.76,75.306a.391.391,0,0,1,.565-.539l.77.822,1.746-1.643a.385.385,0,0,1,.513.565Zm0-4.108h0l-2,1.874a.359.359,0,0,1-.257.128.411.411,0,0,1-.282-.128L53.76,71.2a.391.391,0,0,1,.565-.539l.77.822,1.746-1.643a.385.385,0,0,1,.513.565Zm0-4.108-2,1.874a.359.359,0,0,1-.257.128.411.411,0,0,1-.282-.128L53.76,67.09a.391.391,0,0,1,.565-.539l.77.822L56.84,65.73a.385.385,0,0,1,.513.565ZM64.825,76h-5.9a.385.385,0,0,1,0-.77h5.9a.385.385,0,1,1,0,.77Zm0-4.108h-5.9a.385.385,0,0,1,0-.77h5.9a.385.385,0,1,1,0,.77Zm0-4.108h-5.9a.385.385,0,0,1,0-.77h5.9a.385.385,0,1,1,0,.77Z" transform="translate(-51.988 -59.079)"/></g></svg>