<svg xmlns="http://www.w3.org/2000/svg" width="120.75" height="120" viewBox="0 0 120.75 120"><defs><style>.a{fill:#f2f3f5;}.b{fill:#52b2e5;}.c{fill:#fff;}.d{fill:#00a651;}</style></defs><g transform="translate(-127 -135)"><ellipse class="a" cx="60.375" cy="60" rx="60.375" ry="60" transform="translate(127 135)"/><g transform="translate(76 -1)"><g transform="translate(83 160)"><g transform="translate(0 0)"><g transform="translate(0 0)"><path class="b" d="M95.629,16.047c-.079,0-.079-.079-.157-.157s-.079-.157-.157-.236L81.785.472c-.079-.079-.236-.157-.315-.236-.079,0-.079-.079-.157-.079A1.482,1.482,0,0,0,80.683,0H47.489A8.93,8.93,0,0,0,38.6,8.889V63.4a8.93,8.93,0,0,0,8.889,8.889h39.33A8.93,8.93,0,0,0,95.708,63.4V16.6C95.708,16.44,95.629,16.2,95.629,16.047ZM82.178,5.349l8.731,9.833H82.178ZM92.719,63.322a5.909,5.909,0,0,1-5.9,5.978H47.489a5.892,5.892,0,0,1-5.9-5.9V8.81a5.892,5.892,0,0,1,5.9-5.9h31.7V16.6a1.494,1.494,0,0,0,1.495,1.495H92.719v45.23Z" transform="translate(-38.6 0)"/><path d="M86.495,79.789H99.631a1.494,1.494,0,0,0,1.495-1.495A1.446,1.446,0,0,0,99.631,76.8H86.495a1.495,1.495,0,0,0,0,2.989Z" transform="translate(-75.875 -61.697)"/><path d="M99.631,275.6H86.495a1.495,1.495,0,1,0,0,2.989H99.631a1.494,1.494,0,0,0,1.495-1.495A1.547,1.547,0,0,0,99.631,275.6Z" transform="translate(-75.875 -221.403)"/><path d="M85,128.695a1.494,1.494,0,0,0,1.495,1.495h35.083a1.495,1.495,0,0,0,0-2.989H86.495A1.494,1.494,0,0,0,85,128.695Z" transform="translate(-75.875 -102.186)"/><path d="M121.577,164.8H86.495a1.495,1.495,0,0,0,0,2.989h35.083a1.494,1.494,0,0,0,1.495-1.495A1.446,1.446,0,0,0,121.577,164.8Z" transform="translate(-75.875 -132.392)"/><path d="M121.577,202H86.495a1.495,1.495,0,1,0,0,2.989h35.083a1.494,1.494,0,0,0,1.495-1.495A1.446,1.446,0,0,0,121.577,202Z" transform="translate(-75.875 -162.276)"/><path d="M121.577,239.2H86.495a1.495,1.495,0,0,0,0,2.989h35.083a1.495,1.495,0,1,0,0-2.989Z" transform="translate(-75.875 -192.161)"/></g></g></g><circle class="c" cx="17.349" cy="17.349" r="17.349" transform="translate(118.663 205.301)"/><path class="d" d="M353.458,375a14.458,14.458,0,1,0,14.458,14.458A14.416,14.416,0,0,0,353.458,375Zm8.346,9.923h0l-10.515,10.909a.6.6,0,0,1-.46.2.512.512,0,0,1-.46-.2l-5.126-5.52-.131-.131a.635.635,0,0,1,0-.92l.92-.92a.635.635,0,0,1,.92,0l.066.066,3.614,3.877a.318.318,0,0,0,.46,0l8.806-9.135h.066a.636.636,0,0,1,.92,0l.92.92A.56.56,0,0,1,361.8,384.923Z" transform="translate(-217.446 -166.807)"/></g></g></svg>