<svg xmlns="http://www.w3.org/2000/svg" width="20.002" height="19.999" viewBox="0 0 20.002 19.999"><defs><style>.a{fill:#52b2e5;}</style></defs><path class="a" d="M15.507,12.6,14.47,13.636,12.7,11.846a7.187,7.187,0,0,0,1.273-6.981L11.613,7.223a4.427,4.427,0,0,1-8.023,2.6L6.268,7.144,8.124,9l6.9-6.9V3.662h1.211V.03H12.606V1.241h1.565L8.124,7.288,6.268,5.432,3,8.7a4.429,4.429,0,0,1,6.93-4.931l1.957-1.957a7.185,7.185,0,1,0-.046,10.9l1.768,1.785-1.042,1.042,4.495,4.5L20,17.093Z" transform="translate(0 -0.03)"/></svg>