<svg xmlns="http://www.w3.org/2000/svg" width="18.979" height="16.35" viewBox="0 0 18.979 16.35"><defs><style>.a{fill:#FF8000;}</style></defs><g transform="translate(2.901 10.37)"><rect class="a" width="2.065" height="1.889"/></g><g transform="translate(7.382 10.194)"><rect class="a" width="4.218" height="6.151"/></g><g transform="translate(13.973 10.37)"><rect class="a" width="2.065" height="1.889"/></g><g transform="translate(1.451 5.732)"><path class="a" d="M47.811,160.491a2.554,2.554,0,0,1-4.568.273,2.551,2.551,0,0,1-4.409.031,2.543,2.543,0,0,1-4.542-.313A2.029,2.029,0,0,1,33,161.11v9.99h5.229v-6.5a.348.348,0,0,1,.34-.356h4.917a.369.369,0,0,1,.367.356v6.5h5.229v-9.987a1.925,1.925,0,0,1-1.271-.617ZM37.218,167.36a.351.351,0,0,1-.351.351H34.1a.351.351,0,0,1-.351-.351v-2.593a.351.351,0,0,1,.351-.351h2.768a.351.351,0,0,1,.351.351Zm11.073,0a.351.351,0,0,1-.352.351H45.171a.351.351,0,0,1-.351-.351v-2.593a.351.351,0,0,1,.351-.351h2.768a.351.351,0,0,1,.352.351Z" transform="translate(-33 -160.482)"/></g><path class="a" d="M18.909,33.255l-1.769-3A.529.529,0,0,0,16.687,30H2.641a.526.526,0,0,0-.431.225L.093,33.258a.523.523,0,0,0-.094.3v.822a1.282,1.282,0,0,0,2.551.183l.014-.206a.352.352,0,0,1,.7.023,2,2,0,0,1-.016.254l-.008.123a1.845,1.845,0,1,0,3.689-.011.352.352,0,1,1,.7,0,1.845,1.845,0,1,0,3.689.017v-.018a.352.352,0,0,1,.352-.352h.036a.352.352,0,0,1,.352.352,1.845,1.845,0,1,0,3.689.017v-.011a1.991,1.991,0,0,1-.035-.371.352.352,0,0,1,.7-.034l.029.3a1.282,1.282,0,0,0,2.537-.267v-.858a.525.525,0,0,0-.069-.266Z" transform="translate(0.001 -30)"/></svg>