<svg xmlns="http://www.w3.org/2000/svg" width="4.221" height="6.619" viewBox="0 0 4.221 6.619"><defs><style>.a{fill:#00a651;}</style></defs><path class="a" d="M76.985,1.5a.146.146,0,0,0-.108-.042h-.8a1.627,1.627,0,0,0-.3-.677h1.1a.144.144,0,0,0,.15-.15V.15a.145.145,0,0,0-.15-.15H72.956a.145.145,0,0,0-.15.15V.776a.153.153,0,0,0,.15.15h.682q.992,0,1.26.531H72.956a.145.145,0,0,0-.15.15v.48a.145.145,0,0,0,.15.15h2.007a.919.919,0,0,1-.482.588,2.121,2.121,0,0,1-1,.2h-.526a.153.153,0,0,0-.15.15v.6a.141.141,0,0,0,.042.1q.9.959,2.341,2.684a.139.139,0,0,0,.118.056h.917a.136.136,0,0,0,.136-.085.128.128,0,0,0-.019-.16q-1.372-1.683-2.158-2.52a2.384,2.384,0,0,0,1.3-.517,1.757,1.757,0,0,0,.606-1.1h.79a.145.145,0,0,0,.15-.15V1.608A.146.146,0,0,0,76.985,1.5Z" transform="translate(-72.806)"/></svg>