<svg xmlns="http://www.w3.org/2000/svg" width="16.906" height="18.596" viewBox="0 0 16.906 18.596"><defs><style>.a{fill:#6154e2;}</style></defs><path class="a" d="M11.839,18.6h-.011a1.055,1.055,0,0,1-.467-.11L8.453,17.028,5.545,18.486a1.056,1.056,0,0,1-.467.11H5.072A1.056,1.056,0,0,1,4.6,16.614l2.8-1.4V13.947H2.113A2.116,2.116,0,0,1,0,11.834V3.381A2.115,2.115,0,0,1,2.113,1.268H7.4V1.057a1.057,1.057,0,0,1,2.114,0v.211h5.283a2.115,2.115,0,0,1,2.113,2.113v8.453a2.116,2.116,0,0,1-2.113,2.114H9.51v1.268l2.8,1.377a1.057,1.057,0,0,1-.468,2ZM11.834,6.762a.846.846,0,0,0-.845.845V9.721a.846.846,0,0,0,1.691,0V7.608A.847.847,0,0,0,11.834,6.762ZM8.453,4.649a.846.846,0,0,0-.845.845V9.721a.845.845,0,1,0,1.69,0V5.495A.846.846,0,0,0,8.453,4.649ZM5.072,8.03a.846.846,0,0,0-.845.845v.845a.845.845,0,1,0,1.69,0V8.875A.846.846,0,0,0,5.072,8.03Z" transform="translate(0 0)"/></svg>