<svg id="_Icons_Search" data-name="_Icons / Search" xmlns="http://www.w3.org/2000/svg" xmlns:xlink="http://www.w3.org/1999/xlink" width="19" height="19" viewBox="0 0 19 19">
  <defs>
    <clipPath id="clip-path">
      <path id="Search" d="M17.2,18.691,13.62,15.113a8.454,8.454,0,1,1,1.493-1.493L18.691,17.2A1.056,1.056,0,0,1,17.2,18.691ZM2.111,8.445A6.334,6.334,0,1,0,8.445,2.111,6.341,6.341,0,0,0,2.111,8.445Z" fill="#fff"/>
    </clipPath>
  </defs>
  <g id="Group_2" data-name="Group 2" transform="translate(0 0)">
    <path id="Search-2" data-name="Search" d="M17.2,18.691,13.62,15.113a8.454,8.454,0,1,1,1.493-1.493L18.691,17.2A1.056,1.056,0,0,1,17.2,18.691ZM2.111,8.445A6.334,6.334,0,1,0,8.445,2.111,6.341,6.341,0,0,0,2.111,8.445Z" fill="#fff"/>
  </g>
</svg>
