<svg xmlns="http://www.w3.org/2000/svg" xmlns:xlink="http://www.w3.org/1999/xlink" width="14.109" height="14.109" viewBox="0 0 14.109 14.109"><defs><style>.a{fill:#7a797e;}.b{clip-path:url(#a);}</style><clipPath id="a"><path class="a" d="M12.771,13.88l-2.657-2.657a6.277,6.277,0,1,1,1.108-1.108l2.657,2.657a.784.784,0,0,1-1.109,1.109ZM1.568,6.271a4.7,4.7,0,1,0,4.7-4.7A4.709,4.709,0,0,0,1.568,6.271Z"/></clipPath></defs><path class="a" d="M12.771,13.88l-2.657-2.657a6.277,6.277,0,1,1,1.108-1.108l2.657,2.657a.784.784,0,0,1-1.109,1.109ZM1.568,6.271a4.7,4.7,0,1,0,4.7-4.7A4.709,4.709,0,0,0,1.568,6.271Z"/></svg>