<svg xmlns="http://www.w3.org/2000/svg" xmlns:xlink="http://www.w3.org/1999/xlink" width="22" height="22" viewBox="0 0 22 22"><defs><style>.a{fill:#7a797e;}.b{clip-path:url(#a);}</style><clipPath id="a"><path class="a" d="M19.914,21.643,15.771,17.5A9.788,9.788,0,1,1,17.5,15.771l4.144,4.143a1.223,1.223,0,0,1-1.729,1.729ZM2.444,9.778A7.334,7.334,0,1,0,9.778,2.444,7.342,7.342,0,0,0,2.444,9.778Z"/></clipPath></defs><g transform="translate(0 0)"><path class="a" d="M19.914,21.643,15.771,17.5A9.788,9.788,0,1,1,17.5,15.771l4.144,4.143a1.223,1.223,0,0,1-1.729,1.729ZM2.444,9.778A7.334,7.334,0,1,0,9.778,2.444,7.342,7.342,0,0,0,2.444,9.778Z"/></g></svg>