<svg xmlns="http://www.w3.org/2000/svg" width="36.5" height="36.5" viewBox="0 0 36.5 36.5"><defs><style>.a{fill:#7a797e;}.b{fill:none;stroke:#FF8000;}.c{fill:#FF8000;}</style></defs><g transform="translate(-0.001 0)"><path class="a" d="M-251.515,5928h-23.744v-22.146a2.319,2.319,0,0,1-1.741-2.241v-1.858l2.9-6.967V5892h23.226v2.787l2.9,6.967v1.858a2.319,2.319,0,0,1-1.742,2.241v4.868h-1.16v-4.868a2.3,2.3,0,0,1-1.162-.72v7.325a7.287,7.287,0,0,0-.969.417l-.193-.129v-6.893a2.242,2.242,0,0,1-.58.083,2.321,2.321,0,0,1-1.742-.8,2.317,2.317,0,0,1-1.742.8,2.314,2.314,0,0,1-1.741-.8,2.322,2.322,0,0,1-1.742.8,2.316,2.316,0,0,1-1.742-.8,2.322,2.322,0,0,1-1.742.8,2.321,2.321,0,0,1-1.742-.8,2.317,2.317,0,0,1-1.742.8,2.321,2.321,0,0,1-1.742-.8,2.317,2.317,0,0,1-1.742.8,2.267,2.267,0,0,1-.58-.083v16.34h1.162v-2.916a2.884,2.884,0,0,1,2.068-2.781l3.739-1.122v-1.043a3.489,3.489,0,0,1-1.162-2.59V5910a3.488,3.488,0,0,1,3.484-3.484A3.488,3.488,0,0,1-259,5910v1.741a3.487,3.487,0,0,1-1.162,2.59v1.043l3.737,1.122.057.018c-.086.2-.166.417-.235.636l-1.007.2-2.967-.89-1.907,1.907-1.907-1.907-3.819,1.147a1.73,1.73,0,0,0-1.242,1.668v2.916h2.324v-2.9h1.16v2.9H-259v-2.9h.72v1.944l.44.088v.87h1.466c.075.177.158.354.248.528l-.422.634h-16.388v-18.222a2.315,2.315,0,0,1-1.162.72v20.986h22.349l.232,1.16Zm-12.131-12.978h0v.544l1.162,1.162,1.16-1.162v-.544a3.452,3.452,0,0,1-1.16.2,3.46,3.46,0,0,1-1.162-.2Zm1.162-7.345a2.326,2.326,0,0,0-2.322,2.324v1.742a2.325,2.325,0,0,0,2.322,2.323,2.325,2.325,0,0,0,2.322-2.323V5910A2.326,2.326,0,0,0-262.484,5907.677Zm11.032-5.225v1.16a1.163,1.163,0,0,0,1.162,1.162,1.163,1.163,0,0,0,1.16-1.162v-1.16h-2.322Zm-3.483,0v1.16a1.163,1.163,0,0,0,1.16,1.162,1.163,1.163,0,0,0,1.162-1.162v-1.16h-2.322Zm-3.484,0v1.16a1.163,1.163,0,0,0,1.16,1.162,1.163,1.163,0,0,0,1.162-1.162v-1.16Zm-3.484,0v1.16a1.163,1.163,0,0,0,1.162,1.162,1.163,1.163,0,0,0,1.16-1.162v-1.16Zm-3.484,0v1.16a1.163,1.163,0,0,0,1.162,1.162,1.163,1.163,0,0,0,1.162-1.162v-1.16Zm-3.483,0v1.16a1.163,1.163,0,0,0,1.16,1.162,1.163,1.163,0,0,0,1.162-1.162v-1.16Zm-3.484,0v1.16a1.163,1.163,0,0,0,1.16,1.162,1.163,1.163,0,0,0,1.162-1.162v-1.16Zm-3.484,0v1.16a1.163,1.163,0,0,0,1.162,1.162,1.163,1.163,0,0,0,1.16-1.162v-1.16Zm8.583-6.969h0l-1.452,5.807h2.208l.484-5.807Zm13.706,0h0l1.936,5.807h2.194l-2.419-5.807h-1.711Zm-11.3,0h0l-.483,5.807h2.273v-5.807Zm2.95,0v5.807h2.273l-.485-5.807Zm5.387,0,1.437,5.807h2.242l-1.936-5.807Zm-2.434,0,.485,5.807h2.2l-1.451-5.807Zm-11.244,0-1.936,5.807h2.226l1.451-5.807h-1.741Zm-2.934,0-2.421,5.807h2.194l1.936-5.807Zm.193-2.322v1.162h20.9v-1.162Z" transform="translate(277 -5892)"/><path class="a" d="M56,448h1.161v1.161H56Zm0,0" transform="translate(-51.935 -415.484)"/><path class="a" d="M88,448h1.161v1.161H88Zm0,0" transform="translate(-81.613 -415.484)"/><path class="a" d="M120,448h1.161v1.161H120Zm0,0" transform="translate(-111.29 -415.484)"/><path class="b" d="M298.514,305.28h-3.748l-.337-1.677a7.2,7.2,0,0,1-1.15-.477l-1.424.95-2.65-2.65.95-1.424a7.316,7.316,0,0,1-.477-1.15L288,298.514v-3.748l1.677-.336a7.2,7.2,0,0,1,.477-1.15l-.95-1.424,2.65-2.65,1.424.95a7.315,7.315,0,0,1,1.15-.477l.337-1.677h3.748l.337,1.677a7.212,7.212,0,0,1,1.15.477l1.424-.95,2.65,2.65-.95,1.424a7.314,7.314,0,0,1,.477,1.15l1.677.337v3.748l-1.677.337a7.207,7.207,0,0,1-.477,1.15l.95,1.424-2.65,2.65-1.424-.95a7.31,7.31,0,0,1-1.15.477Zm0,0" transform="translate(-269.28 -269.28)"/><path class="c" d="M366.057,343.346l-1.083-.771a3.319,3.319,0,0,0-4.629-4.629l-.771-1.083a4.648,4.648,0,0,1,6.483,6.483Zm0,0" transform="translate(-334.908 -313.293)"/><path class="c" d="M340.652,366.92a4.648,4.648,0,0,1-3.789-7.346l1.083.771a3.319,3.319,0,0,0,4.629,4.629l.771,1.083A4.621,4.621,0,0,1,340.652,366.92Zm0,0" transform="translate(-313.292 -334.908)"/></g></svg>