<svg xmlns="http://www.w3.org/2000/svg" width="24" height="24.061" viewBox="0 0 24 24.061"><defs><style>.a{fill:#7a797e;}.b{fill:#FF8000;}</style></defs><path class="a" d="M138.779,11.535a2,2,0,0,1,2.313.364l.81-.81a5.706,5.706,0,0,0,7.522-6.3.52.52,0,0,0-.88-.285l-1.2,1.2a2.508,2.508,0,0,1-3.547-3.547l1.2-1.2a.52.52,0,0,0-.285-.88,5.7,5.7,0,0,0-6.268,7.61l-1.757,1.757Z" transform="translate(-125.498 -0.001)"/><path class="a" d="M10.453,155.995l-2.084-2.084L1.083,161.2a2.426,2.426,0,0,0,3.431,3.431l6.281-6.281A2,2,0,0,1,10.453,155.995Z" transform="translate(-0.373 -141.278)"/><path class="b" d="M15.339,29.164a.763.763,0,0,0-1.079,0l-.435.435L6.077,21.851l.362-.362a.763.763,0,0,0-.087-1.154L3.191,18.007a.763.763,0,0,0-.992.075L.856,19.424a.763.763,0,0,0-.075.992L3.11,23.577a.763.763,0,0,0,1.154.087l.362-.362,7.748,7.748-.466.466a.763.763,0,0,0,0,1.079l7.148,7.148a2.426,2.426,0,1,0,3.431-3.431Z" transform="translate(-0.612 -16.392)"/></svg>