<svg xmlns="http://www.w3.org/2000/svg" width="18.186" height="19.216" viewBox="0 0 18.186 19.216"><defs><style>.a{fill:#FF8000;}</style></defs><g transform="translate(0)"><path class="a" d="M9.091,19.216a9.845,9.845,0,0,1-1.742-.156.8.8,0,0,1-.658-.8v-.676a.8.8,0,0,0-.492-.736,7.685,7.685,0,0,1-1.928-1.12.8.8,0,0,0-.888-.06l-.584.34a.8.8,0,0,1-1.008-.176,9.374,9.374,0,0,1-.907-1.256c-.083-.136-.145-.244-.2-.34A9.194,9.194,0,0,1,.04,12.808a.8.8,0,0,1,.36-.952l.58-.336a.8.8,0,0,0,.4-.8,7.729,7.729,0,0,1,0-2.224.8.8,0,0,0-.4-.8L.4,7.36a.8.8,0,0,1-.356-.952,9.173,9.173,0,0,1,.64-1.432c.061-.114.13-.231.2-.34a9.377,9.377,0,0,1,.9-1.256A.8.8,0,0,1,2.8,3.208l.589.337a.8.8,0,0,0,.887-.06A7.667,7.667,0,0,1,6.2,2.368a.8.8,0,0,0,.509-.736V.956a.8.8,0,0,1,.656-.8,9.829,9.829,0,0,1,3.487,0,.8.8,0,0,1,.656.8v.676A.8.8,0,0,0,12,2.368a7.675,7.675,0,0,1,1.912,1.116.8.8,0,0,0,.888.06l.516-.3a.828.828,0,0,1,1.085.128,9.384,9.384,0,0,1,.887,1.256c.072.118.138.232.2.339a9.275,9.275,0,0,1,.64,1.433.8.8,0,0,1-.356.96l-.5.292A.833.833,0,0,0,16.8,8.5a7.729,7.729,0,0,1,0,2.224.8.8,0,0,0,.4.8l.584.336a.8.8,0,0,1,.356.952,9.24,9.24,0,0,1-.636,1.436c-.052.1-.116.209-.2.339a9.393,9.393,0,0,1-.9,1.253.8.8,0,0,1-1.016.172l-.584-.34a.8.8,0,0,0-.877.06A7.645,7.645,0,0,1,12,16.848a.8.8,0,0,0-.509.736v.676a.8.8,0,0,1-.656.8,9.852,9.852,0,0,1-1.744.156Zm0-13.208a3.6,3.6,0,1,0,3.6,3.6,3.6,3.6,0,0,0-3.6-3.6Z" transform="translate(0.003 0)"/></g></svg>