<svg xmlns="http://www.w3.org/2000/svg" width="21" height="21" viewBox="0 0 21 21"><defs><style>.a{fill:#fff;}</style></defs><path class="a" d="M6.3,16.8a2.1,2.1,0,1,0,2.1,2.1A2.106,2.106,0,0,0,6.3,16.8ZM0,0V2.1H2.1l3.78,7.98L4.41,12.6a3.731,3.731,0,0,0-.21,1.05,2.106,2.106,0,0,0,2.1,2.1H18.9v-2.1H6.72a.226.226,0,0,1-.21-.21v-.105l.945-1.785h7.77A1.915,1.915,0,0,0,17.01,10.5l3.78-6.825A.578.578,0,0,0,21,3.15.992.992,0,0,0,19.95,2.1H4.41L3.465,0ZM16.8,16.8a2.1,2.1,0,1,0,2.1,2.1A2.106,2.106,0,0,0,16.8,16.8Z"/></svg>