<svg xmlns="http://www.w3.org/2000/svg" width="19.195" height="19.195" viewBox="0 0 19.195 19.195"><defs><style>.a{fill:#7a797e;}</style></defs><path class="a" d="M5.759,15.356a1.92,1.92,0,1,0,1.92,1.92A1.925,1.925,0,0,0,5.759,15.356ZM0,0V1.92H1.92L5.375,9.214l-1.344,2.3a3.41,3.41,0,0,0-.192.96,1.925,1.925,0,0,0,1.92,1.92H17.276v-1.92H6.142a.206.206,0,0,1-.192-.192v-.1l.864-1.632h7.1a1.75,1.75,0,0,0,1.632-.96L19,3.359a.528.528,0,0,0,.192-.48.907.907,0,0,0-.96-.96H4.031L3.167,0ZM15.356,15.356a1.92,1.92,0,1,0,1.92,1.92A1.925,1.925,0,0,0,15.356,15.356Z"/></svg>