<svg xmlns="http://www.w3.org/2000/svg" width="29.5" height="29.5" viewBox="0 0 29.5 29.5"><defs><style>.a{isolation:isolate;}.b{fill:#ff8000;stroke:#fff0e1;stroke-width:1.5px;}</style></defs><g class="a" transform="translate(0.25 0.75)"><path class="b" d="M14,0A14,14,0,1,0,28,14,14.016,14.016,0,0,0,14,0Zm0,2.71a11.307,11.307,0,0,1,11.209,9.935H17.831a4.064,4.064,0,0,0-7.663,0H2.791A11.307,11.307,0,0,1,14,2.71Zm-1.355,22.5a11.312,11.312,0,0,1-9.854-9.854h7.377a4.084,4.084,0,0,0,2.477,2.477ZM14,15.355A1.355,1.355,0,1,1,15.355,14,1.356,1.356,0,0,1,14,15.355Zm1.355,9.854V17.831a4.084,4.084,0,0,0,2.477-2.477h7.377A11.312,11.312,0,0,1,15.355,25.209Z" transform="translate(0.5)"/></g></svg>