<svg xmlns="http://www.w3.org/2000/svg" width="25.01" height="25.01" viewBox="0 0 25.01 25.01"><defs><style>.a{fill:#FF8000;}.b{fill:#7a797e;}</style></defs><g transform="translate(0 3)"><g transform="translate(0 -3)"><g transform="translate(11.153 13.316)"><path class="a" d="M204.957,243.089a1.351,1.351,0,1,0,1.352,1.351A1.353,1.353,0,0,0,204.957,243.089Z" transform="translate(-203.605 -243.089)"/></g><g transform="translate(2.196 9.514)"><path class="a" d="M53.674,179.455c1.562-1.816,3.932-2.751,7.034-2.795a10.264,10.264,0,0,0-.5-2.972,16.906,16.906,0,0,1-9.544,2.994,19.426,19.426,0,0,1-10.093-2.992,10.316,10.316,0,0,0-.49,2.854c3.214,0,5.654.944,7.253,2.8,2.524,2.934,2.11,7.121,2.025,7.792.34.033.683.052,1.032.052a10.422,10.422,0,0,0,1.243-.077C51.529,186.145,51.279,182.237,53.674,179.455Zm5.869-4.381.171.4-3.267,1.4-.171-.4Zm-14.98,1.8-3.267-1.4.171-.4,3.267,1.406Zm4.045,1.964a1.784,1.784,0,1,1,1.784,1.784A1.786,1.786,0,0,1,48.608,178.841Z" transform="translate(-40.082 -173.688)"/></g><g transform="translate(0 0)"><path class="b" d="M12.505,0a12.5,12.5,0,1,0,12.505,12.5A12.519,12.519,0,0,0,12.505,0Zm0,23.448A10.754,10.754,0,1,1,23.259,12.7,10.766,10.766,0,0,1,12.505,23.452Z" transform="translate(0 -0.004)"/></g></g></g></svg>