<svg xmlns="http://www.w3.org/2000/svg" width="28" height="28" viewBox="0 0 28 28"><defs><style>.a{fill:#FF8000;}.b{fill:#7a797e;}</style></defs><g transform="translate(0 0)"><g transform="translate(12.487 14.908)"><path class="a" d="M205.119,243.089a1.513,1.513,0,1,0,1.513,1.512A1.515,1.515,0,0,0,205.119,243.089Z" transform="translate(-203.605 -243.089)"/></g><g transform="translate(2.458 10.652)"><path class="a" d="M55.3,180.144c1.749-2.033,4.4-3.08,7.875-3.129a11.492,11.492,0,0,0-.558-3.328,18.927,18.927,0,0,1-10.686,3.352,21.749,21.749,0,0,1-11.3-3.35,11.549,11.549,0,0,0-.549,3.195c3.6,0,6.33,1.057,8.12,3.138,2.826,3.285,2.362,7.972,2.267,8.723.38.037.765.058,1.156.058a11.668,11.668,0,0,0,1.391-.087C52.9,187.634,52.618,183.259,55.3,180.144Zm6.571-4.9.191.445L58.4,177.258l-.192-.444ZM45.1,177.258l-3.658-1.573.191-.445,3.658,1.574Zm4.528,2.2a2,2,0,1,1,2,2A2,2,0,0,1,49.627,179.457Z" transform="translate(-40.082 -173.688)"/></g><g transform="translate(0 0)"><path class="b" d="M14,0A14,14,0,1,0,28,14,14.016,14.016,0,0,0,14,0Zm0,26.252a12.04,12.04,0,1,1,12.04-12.04A12.054,12.054,0,0,1,14,26.256Z" transform="translate(0 -0.004)"/></g></g></svg>