<svg xmlns="http://www.w3.org/2000/svg" width="20" height="16.25" viewBox="0 0 20 16.25"><defs><style>.a{fill:#30b985;}</style></defs><g transform="translate(0 -48.003)"><g transform="translate(0 48.003)"><g transform="translate(0 0)"><path class="a" d="M19.888,52.64l-3.125-4.375A.652.652,0,0,0,16.25,48H3.75a.652.652,0,0,0-.512.262L.113,52.64,0,52.978A2.5,2.5,0,0,0,2.5,55.5a2.478,2.478,0,0,0,1.875-.85,2.493,2.493,0,0,0,3.75,0,2.493,2.493,0,0,0,3.75,0,2.493,2.493,0,0,0,3.75,0,2.478,2.478,0,0,0,1.875.85A2.5,2.5,0,0,0,20,52.978Z" transform="translate(0 -48.003)"/></g></g><g transform="translate(1.25 56.248)"><path class="a" d="M48.253,259.58a3.74,3.74,0,0,1-1.875-.5,3.83,3.83,0,0,1-3.75,0,3.83,3.83,0,0,1-3.75,0,3.83,3.83,0,0,1-3.75,0,3.8,3.8,0,0,1-3.125.261v6.494a1.25,1.25,0,0,0,1.25,1.25h10v-6.25H47v6.25h1.25a1.25,1.25,0,0,0,1.25-1.25v-6.479A3.727,3.727,0,0,1,48.253,259.58Zm-8.75,5h-5v-3.75h5Z" transform="translate(-32.003 -259.075)"/></g></g></svg>