<svg xmlns="http://www.w3.org/2000/svg" width="18.464" height="19.102" viewBox="0 0 18.464 19.102"><defs><style>.a{fill:#7a797e;}</style></defs><g transform="translate(-181 -493)"><path class="a" d="M1458.126-6493h-6.983a1.145,1.145,0,0,1-1.144-1.144v-13.713a1.15,1.15,0,0,1,.858-1.144h2.315a1.447,1.447,0,0,0-.029.294,1.422,1.422,0,0,0,1.42,1.42h3.73a1.431,1.431,0,0,0,1.42-1.438,1.393,1.393,0,0,0-.028-.276h1.742c.854,0,1.428.46,1.428,1.144v3.967a6.584,6.584,0,0,0-1.428.191v-2.159h-10v11.427h5.729a6.554,6.554,0,0,0,.968,1.428Zm-1.545-3.144h-4.01a.286.286,0,0,1-.286-.286v-.285a.286.286,0,0,1,.286-.286h3.908a6.563,6.563,0,0,0,.1.855Zm.031-2.57h-4.041a.286.286,0,0,1-.286-.286v-.286a.286.286,0,0,1,.286-.286h4.286a6.561,6.561,0,0,0-.245.857Zm.97-2.286h-5.011a.286.286,0,0,1-.286-.286v-.286a.286.286,0,0,1,.286-.286h5.7a6.575,6.575,0,0,0-.689.857Zm2.417-2.572h-7.428a.286.286,0,0,1-.286-.286v-.286a.285.285,0,0,1,.286-.284H1460a.285.285,0,0,1,.286.284v.286A.286.286,0,0,1,1460-6503.572Zm-1.706-4.284h-3.73a.851.851,0,0,1-.85-.85v-.016a.851.851,0,0,1,.85-.85H1455a.425.425,0,0,0,.425-.425v-.015a.99.99,0,0,1,.989-.988h.023a.99.99,0,0,1,.989.988v.015a.426.426,0,0,0,.427.425h.44a.85.85,0,0,1,.848.85v.016A.85.85,0,0,1,1458.294-6507.856Zm-1.866-2.572a.428.428,0,0,0-.428.428.428.428,0,0,0,.428.428.429.429,0,0,0,.43-.428A.429.429,0,0,0,1456.428-6510.428Z" transform="translate(-1269 7004)"/><g transform="translate(-6.192 25.808)"><path class="a" d="M344.452,375a5.451,5.451,0,1,0,5.451,5.451A5.436,5.436,0,0,0,344.452,375Zm3.147,3.742h0l-3.965,4.113a.225.225,0,0,1-.173.074.193.193,0,0,1-.173-.074l-1.933-2.082-.05-.05a.24.24,0,0,1,0-.347l.347-.347a.24.24,0,0,1,.347,0l.025.025,1.363,1.462a.12.12,0,0,0,.173,0l3.32-3.444h.025a.24.24,0,0,1,.347,0l.347.347A.211.211,0,0,1,347.6,378.742Z" transform="translate(-144.247 100.392)"/></g></g></svg>