<svg xmlns="http://www.w3.org/2000/svg" width="14.032" height="14" viewBox="0 0 14.032 14">
  <g id="Group_171" data-name="Group 171" transform="translate(-375 -7012)">
    <path id="Path_84" data-name="Path 84" d="M13.912,11.333,11.746,9.166a1.131,1.131,0,0,0-1.593.03L9.061,10.288l-.215-.12a10.862,10.862,0,0,1-2.626-1.9,10.917,10.917,0,0,1-1.9-2.63c-.041-.073-.079-.144-.117-.21L4.932,4.7l.36-.361a1.129,1.129,0,0,0,.029-1.593L3.154.575A1.129,1.129,0,0,0,1.561.6L.95,1.219l.017.017a3.527,3.527,0,0,0-.5.888,3.679,3.679,0,0,0-.224.9c-.286,2.372.8,4.54,3.74,7.482,4.066,4.066,7.344,3.759,7.485,3.744a3.654,3.654,0,0,0,.9-.227,3.512,3.512,0,0,0,.884-.5l.013.012.619-.606A1.131,1.131,0,0,0,13.912,11.333Z" transform="translate(374.805 7011.74)" fill="#fff" fill-rule="evenodd"/>
  </g>
</svg>
