<svg xmlns="http://www.w3.org/2000/svg" width="44" height="33.733" viewBox="0 0 44 33.733"><defs><style>.a{fill:#f3c716;}</style></defs><g transform="translate(-59 -478)"><circle class="a" cx="6" cy="6" r="6" transform="translate(62 479)"/><g transform="translate(57 469)"><path d="M45.785,30.748l-9.1-9.1A2.184,2.184,0,0,0,35.125,21H22.533v1.467H26.2v11h1.467v-11h7.459a.733.733,0,0,1,.519.215L36.9,23.933H33.533A1.467,1.467,0,0,0,32.067,25.4V32a1.467,1.467,0,0,0,1.467,1.467h11v5.867a.733.733,0,0,1-.733.733H42.275a5.127,5.127,0,0,0-10.149,0H21.741a5.127,5.127,0,0,0-10.149,0H10.067a.733.733,0,0,1-.733-.733v-6.6H7.867v6.6a2.2,2.2,0,0,0,2.2,2.2h1.525a5.117,5.117,0,0,0,1.489,2.933H2v1.467H37.2a5.138,5.138,0,0,0,5.075-4.4H43.8a2.2,2.2,0,0,0,2.2-2.2V31.267a.733.733,0,0,0-.215-.518ZM13,40.8a3.667,3.667,0,1,1,3.667,3.667A3.667,3.667,0,0,1,13,40.8Zm7.252,3.667a5.117,5.117,0,0,0,1.489-2.933H32.125a5.117,5.117,0,0,0,1.489,2.933Zm16.948,0A3.667,3.667,0,1,1,40.867,40.8,3.667,3.667,0,0,1,37.2,44.467ZM33.533,32V25.4h4.83l6.17,6.17V32Z" transform="translate(0 -3.2)"/><rect width="1.467" height="1.467" transform="translate(15.933 36.867)"/><rect width="1.467" height="1.467" transform="translate(36.467 36.867)"/><rect width="3.667" height="1.467" transform="translate(2 34.667)"/><rect width="2.2" height="1.467" transform="translate(3.467 31.733)"/><rect width="1.467" height="1.467" transform="translate(4.2 28.8)"/><path d="M11.533,28.067A9.533,9.533,0,1,0,2,18.533a9.533,9.533,0,0,0,9.533,9.533Zm0-17.6a8.067,8.067,0,1,1-8.067,8.067,8.067,8.067,0,0,1,8.067-8.067Z" transform="translate(0)"/><path d="M13.133,26.2a.733.733,0,0,0,.518-.215c.472-.472,4.615-4.706,4.615-7.852A5.133,5.133,0,1,0,8,18.133c0,3.146,4.143,7.38,4.615,7.852A.733.733,0,0,0,13.133,26.2Zm0-11.733A3.671,3.671,0,0,1,16.8,18.133c0,1.882-2.308,4.789-3.667,6.271-1.359-1.481-3.667-4.389-3.667-6.271a3.671,3.671,0,0,1,3.667-3.667Z" transform="translate(-1.6 -1.067)"/><path d="M16.4,19.2a2.2,2.2,0,1,0-2.2,2.2A2.2,2.2,0,0,0,16.4,19.2Zm-2.933,0a.733.733,0,1,1,.733.733A.733.733,0,0,1,13.467,19.2Z" transform="translate(-2.667 -2.133)"/><rect width="2.933" height="1.467" transform="translate(29.867 31.733)"/></g></g></svg>