<svg xmlns="http://www.w3.org/2000/svg" width="16.274" height="30.01" viewBox="0 0 16.274 30.01"><defs><style>.a{fill:#7a797e;}.b{fill:#FF8000;}</style></defs><path class="a" d="M148.453,315.562c.81.317,1.128.8.658,1.563.647.353.987.8.717,1.446a2.514,2.514,0,0,1,1.258,2.855H136.361c-.822-1.669-.4-2.644.964-3.067a1.565,1.565,0,0,1,.905-2.468A1.411,1.411,0,0,1,139.3,314c-.717-1.316.094-1.949,1.386-1.61,2.08.54,4.159,1.093,6.238,1.634C147.642,314.211,149.1,314.469,148.453,315.562Zm2.151,4.571a2.681,2.681,0,0,0-1.128-1.21,14.991,14.991,0,0,1-4.524-.741,13.528,13.528,0,0,0,5.653,1.951Zm-1.116-1.985a1.571,1.571,0,0,0-.729-.67,13.293,13.293,0,0,1-4.207-.6,12.282,12.282,0,0,0,4.935,1.269Zm-.517-1.422c-.047-.353-.365-.611-.87-.81a8.439,8.439,0,0,1-2.832-.564A6.551,6.551,0,0,0,148.97,316.725Z" transform="translate(-135.41 -293.131)"/><path class="a" d="M205.784,285.52l-.117.459a.85.85,0,0,1-1.034.611l-3.161-.834a.851.851,0,0,1-.6-1.034l.117-.459a.851.851,0,0,1,1.034-.6l3.149.822A.856.856,0,0,1,205.784,285.52Z" transform="translate(-194.398 -266.379)"/><path class="b" d="M132.384,30.664l.259.071-.282,1.093-3.278-.858.282-1.093.259.071a2.909,2.909,0,1,1,2.761.716Z" transform="translate(-118.331 -24.943)"/><rect class="a" width="16.274" height="1.363" transform="translate(0 28.647)"/><path class="a" d="M181.771,124.6l-2.738,10.434-1.763-.459,2.738-10.434Z" transform="translate(-168.787 -117.513)"/></svg>