<svg xmlns="http://www.w3.org/2000/svg" width="16.74" height="30.869" viewBox="0 0 16.74 30.869"><defs><style>.a{fill:#7a797e;}.b{fill:#FF8000;}</style></defs><g transform="translate(-127.9 -24.943)"><path class="a" d="M138.715,315.655c-.833.326-1.161.822-.677,1.608-.665.363-1.015.822-.738,1.487a2.586,2.586,0,0,0-1.294,2.937h15.145c.846-1.717.411-2.72-.991-3.155a1.61,1.61,0,0,0-.931-2.539,1.451,1.451,0,0,0-1.1-1.946c.738-1.354-.1-2.005-1.426-1.656-2.14.555-4.278,1.124-6.417,1.68C139.549,314.265,138.05,314.531,138.715,315.655Zm-2.212,4.7a2.758,2.758,0,0,1,1.161-1.245,15.42,15.42,0,0,0,4.654-.762,13.916,13.916,0,0,1-5.814,2.007Zm1.148-2.042a1.616,1.616,0,0,1,.749-.689,13.673,13.673,0,0,0,4.327-.617,12.634,12.634,0,0,1-5.077,1.305Zm.532-1.463c.049-.363.375-.629.895-.833a8.681,8.681,0,0,0,2.913-.58A6.738,6.738,0,0,1,138.183,316.852Z" transform="translate(-7.491 -267.64)"/><path class="a" d="M200.871,285.574l.121.472a.874.874,0,0,0,1.064.629l3.251-.858a.876.876,0,0,0,.617-1.064l-.121-.472a.876.876,0,0,0-1.064-.617l-3.239.846A.88.88,0,0,0,200.871,285.574Z" transform="translate(-67.942 -240.942)"/><path class="b" d="M130.958,30.828l-.266.073.29,1.124,3.372-.882-.29-1.124-.266.073a2.992,2.992,0,1,0-2.84.737Z" transform="translate(-0.773)"/><rect class="a" width="16.74" height="1.402" transform="translate(127.9 54.41)"/><path class="a" d="M177.27,124.612l2.816,10.733,1.813-.472-2.816-10.733Z" transform="translate(-45.986 -92.381)"/></g></svg>