<svg xmlns="http://www.w3.org/2000/svg" width="28" height="19.679" viewBox="0 0 28 19.679"><defs><style>.a{fill:#52b2e5;}</style></defs><g transform="translate(0 -90.939)"><path class="a" d="M.982,104.051V92.138a1.2,1.2,0,0,1,1.2-1.2H14.088a1.2,1.2,0,0,1,1.2,1.2v11.913a.4.4,0,0,1-.4.4H1.382A.4.4,0,0,1,.982,104.051Zm9.615,4.081a2.486,2.486,0,1,1-2.486-2.486A2.486,2.486,0,0,1,10.6,108.132Zm-1.243,0a1.243,1.243,0,1,0-1.243,1.243A1.243,1.243,0,0,0,9.355,108.132ZM5.97,105.646H.4a.4.4,0,0,0-.4.4v1.212a.4.4,0,0,0,.4.4H4.865A3.279,3.279,0,0,1,5.97,105.646Zm17.635,2.486a2.486,2.486,0,1,1-2.486-2.486A2.486,2.486,0,0,1,23.605,108.132Zm-1.243,0a1.243,1.243,0,1,0-1.243,1.243A1.243,1.243,0,0,0,22.362,108.132ZM28,106.045v1.212a.4.4,0,0,1-.4.4H24.366a3.281,3.281,0,0,0-6.494,0H11.358a3.28,3.28,0,0,0-1.106-2.011h6.176V94.217a.8.8,0,0,1,.8-.8H21a3.2,3.2,0,0,1,2.649,1.408l2.432,3.6a3.2,3.2,0,0,1,.547,1.789v5.429H27.6A.4.4,0,0,1,28,106.045ZM23.947,98.52,22,95.757a.4.4,0,0,0-.327-.17H18.642a.4.4,0,0,0-.4.4V98.75a.4.4,0,0,0,.4.4H23.62A.4.4,0,0,0,23.947,98.52Z" transform="translate(0)"/></g></svg>