<svg xmlns="http://www.w3.org/2000/svg" width="19.92" height="14" viewBox="0 0 19.92 14"><defs><style>.a{fill:#7a797e;}</style></defs><g transform="translate(0 -90.939)"><path class="a" d="M.7,100.267V91.792a.853.853,0,0,1,.853-.853h8.471a.853.853,0,0,1,.853.853v8.475a.284.284,0,0,1-.284.284H.983A.284.284,0,0,1,.7,100.267Zm6.84,2.9A1.769,1.769,0,1,1,5.771,101.4,1.769,1.769,0,0,1,7.539,103.17Zm-.884,0a.884.884,0,1,0-.884.884A.884.884,0,0,0,6.655,103.17ZM4.247,101.4H.284a.284.284,0,0,0-.284.284v.862a.284.284,0,0,0,.284.284H3.461A2.333,2.333,0,0,1,4.247,101.4Zm12.546,1.769a1.769,1.769,0,1,1-1.769-1.769A1.769,1.769,0,0,1,16.793,103.17Zm-.884,0a.884.884,0,1,0-.884.884A.884.884,0,0,0,15.909,103.17Zm4.011-1.484v.862a.284.284,0,0,1-.284.284h-2.3a2.334,2.334,0,0,0-4.62,0H8.081a2.333,2.333,0,0,0-.787-1.431h4.394v-8.13a.569.569,0,0,1,.568-.568H14.94a2.274,2.274,0,0,1,1.885,1l1.73,2.562a2.274,2.274,0,0,1,.389,1.272V101.4h.692A.284.284,0,0,1,19.92,101.686Zm-2.884-5.354-1.383-1.966a.284.284,0,0,0-.232-.121H13.263a.284.284,0,0,0-.284.284V96.5a.284.284,0,0,0,.284.284H16.8A.284.284,0,0,0,17.036,96.332Z" transform="translate(0)"/></g></svg>