<svg xmlns="http://www.w3.org/2000/svg" width="28" height="28" viewBox="0 0 28 28"><defs><style>.a,.d{fill:none;}.a{stroke:#7a797e;stroke-width:2px;}.b{fill:#7a797e;}.c{stroke:none;}</style></defs><g transform="translate(-0.116)"><g class="a" transform="translate(0.116)"><circle class="c" cx="14" cy="14" r="14"/><circle class="d" cx="14" cy="14" r="13"/></g><path class="b" d="M6.042,13.254a13.9,13.9,0,0,1-2.146-.17A10.072,10.072,0,0,1,.96,12.015L0,11.491l1.039-.342c1.136-.373,1.826-.605,2.681-.968A3.567,3.567,0,0,1,1.887,8.057l-.242-.734.2.03A3.6,3.6,0,0,1,1.392,6.8a3.416,3.416,0,0,1-.58-2.031l.045-.64.383.149A3.584,3.584,0,0,1,.894,3.3,3.7,3.7,0,0,1,1.289.806L1.623.193,2.069.73a8.22,8.22,0,0,0,5.325,3,3.185,3.185,0,0,1,.193-1.692A3.168,3.168,0,0,1,8.876.559,3.869,3.869,0,0,1,11.121.008a3.586,3.586,0,0,1,2.2.909,7.4,7.4,0,0,0,.807-.269c.177-.067.378-.142.629-.229L15.686.1l-.6,1.723.124-.008.988-.045-.584.8c-.033.046-.042.059-.054.077-.047.071-.106.159-.907,1.229a1.51,1.51,0,0,0-.282.983A9.3,9.3,0,0,1,13.86,8.6a6.618,6.618,0,0,1-1.776,2.631,7.846,7.846,0,0,1-3.719,1.8,11.449,11.449,0,0,1-2.323.228Zm0,0" transform="translate(5.88 8.097)"/></g></svg>