<svg xmlns="http://www.w3.org/2000/svg" width="18.9" height="18.9" viewBox="0 0 18.9 18.9"><defs><style>.a{fill:#7a797e;}</style></defs><g transform="translate(-300 -493)"><path class="a" d="M1458.126-6493h-6.983a1.145,1.145,0,0,1-1.144-1.144v-13.713a1.15,1.15,0,0,1,.858-1.144h2.315a1.447,1.447,0,0,0-.029.294,1.422,1.422,0,0,0,1.42,1.42h3.73a1.431,1.431,0,0,0,1.42-1.438,1.393,1.393,0,0,0-.028-.276h1.742c.854,0,1.428.46,1.428,1.144v3.967a6.584,6.584,0,0,0-1.428.191v-2.159h-10v11.427h5.729a6.554,6.554,0,0,0,.968,1.428Zm-1.545-3.144h-4.01a.286.286,0,0,1-.286-.286v-.285a.286.286,0,0,1,.286-.286h3.908a6.563,6.563,0,0,0,.1.855Zm.031-2.57h-4.041a.286.286,0,0,1-.286-.286v-.286a.286.286,0,0,1,.286-.286h4.286a6.561,6.561,0,0,0-.245.857Zm.97-2.286h-5.011a.286.286,0,0,1-.286-.286v-.286a.286.286,0,0,1,.286-.286h5.7a6.575,6.575,0,0,0-.689.857Zm2.417-2.572h-7.428a.286.286,0,0,1-.286-.286v-.286a.285.285,0,0,1,.286-.284H1460a.285.285,0,0,1,.286.284v.286A.286.286,0,0,1,1460-6503.572Zm-1.706-4.284h-3.73a.851.851,0,0,1-.85-.85v-.016a.851.851,0,0,1,.85-.85H1455a.425.425,0,0,0,.425-.425v-.015a.99.99,0,0,1,.989-.988h.023a.99.99,0,0,1,.989.988v.015a.426.426,0,0,0,.427.425h.44a.85.85,0,0,1,.848.85v.016A.85.85,0,0,1,1458.294-6507.856Zm-1.866-2.572a.428.428,0,0,0-.428.428.428.428,0,0,0,.428.428.429.429,0,0,0,.43-.428A.429.429,0,0,0,1456.428-6510.428Z" transform="translate(-1150 7004)"/><path class="a" d="M1455.45-6500.1a5.415,5.415,0,0,1-3.854-1.6,5.413,5.413,0,0,1-1.6-3.854,5.415,5.415,0,0,1,1.6-3.854,5.415,5.415,0,0,1,3.854-1.6,5.414,5.414,0,0,1,3.854,1.6,5.416,5.416,0,0,1,1.6,3.854,5.414,5.414,0,0,1-1.6,3.854A5.414,5.414,0,0,1,1455.45-6500.1Zm.145-4.522h0l1.453,1.453a.548.548,0,0,0,.391.162.547.547,0,0,0,.391-.162.549.549,0,0,0,.162-.391.551.551,0,0,0-.162-.392l-1.453-1.453,1.453-1.454a.554.554,0,0,0,0-.783.55.55,0,0,0-.391-.162.551.551,0,0,0-.391.162l-1.453,1.454-1.454-1.454a.55.55,0,0,0-.391-.162.55.55,0,0,0-.391.162.554.554,0,0,0,0,.783l1.453,1.454-1.453,1.453a.554.554,0,0,0,0,.783.55.55,0,0,0,.391.162.549.549,0,0,0,.391-.162l1.453-1.453Z" transform="translate(-1142 7012)"/></g></svg>