<svg xmlns="http://www.w3.org/2000/svg" width="14.5" height="8.667" viewBox="0 0 14.5 8.667"><defs><style>.a{fill:#7a797e;stroke:#7a797e;stroke-width:0.5px;}</style></defs><g transform="translate(0.25 0.25)"><path class="a" d="M300.418,8.167h-1.167a.583.583,0,0,1,0-1.167h1.167a2.917,2.917,0,0,0,0-5.833h-1.167a.583.583,0,0,1,0-1.167h1.167a4.083,4.083,0,0,1,0,8.167Zm0,0" transform="translate(-290.501 0)"/><path class="a" d="M5.25,8.167H4.083A4.083,4.083,0,0,1,4.083,0H5.25a.583.583,0,0,1,0,1.167H4.083A2.917,2.917,0,0,0,4.083,7H5.25a.583.583,0,0,1,0,1.167Zm0,0"/><path class="a" d="M174.751,129.167h-3.5a.583.583,0,0,1,0-1.167h3.5a.583.583,0,0,1,0,1.167Zm0,0" transform="translate(-166.001 -124.5)"/></g></svg>