<svg xmlns="http://www.w3.org/2000/svg" width="12.888" height="15" viewBox="0 0 12.888 15"><defs><style>.a{fill:#7a797e;}</style></defs><path class="a" d="M502.32,260.817V256.83a2.933,2.933,0,0,1,2.012-2.787s1.808-.3,1.836-.3a.293.293,0,0,1,.275.193l1.985,5.453a.358.358,0,0,0,.673,0l1.985-5.453a.293.293,0,0,1,.362-.18l1.749.29.006,0a2.914,2.914,0,0,1,2.005,2.77v4Zm6.319-2.917-.436-1.161.221-1.87-.473-.714a.411.411,0,0,1,.054-.484.428.428,0,0,1,.316-.131h.885a.427.427,0,0,1,.316.131.411.411,0,0,1,.054.484l-.473.714.221,1.87-.436,1.161a.133.133,0,0,1-.25,0Zm-3.183-8.771a3.308,3.308,0,1,1,3.308,3.312A3.314,3.314,0,0,1,505.456,249.129Z" transform="translate(-502.32 -245.817)"/></svg>