<svg xmlns="http://www.w3.org/2000/svg" width="22.001" height="20.006" viewBox="0 0 22.001 20.006"><defs><style>.a{fill:#7a797e;}</style></defs><g transform="translate(0.001 0.005)"><path class="a" d="M259.828,164.714a.876.876,0,0,0-1.243-.332l-3.014,1.826-.767.47v4.371l.714.443c.026,0,.026.028.053.028l2.962,1.8a.79.79,0,0,0,.5.166.913.913,0,0,0,.9-.941v-3.707l.026-3.651a.748.748,0,0,0-.131-.473Z" transform="translate(-237.96 -154.396)"/><path class="a" d="M4.257,30.709a4.458,4.458,0,0,0,0-8.907,4.458,4.458,0,0,0,0,8.907Zm0-6.279a1.828,1.828,0,0,1,0,3.651,1.8,1.8,0,0,1-1.745-1.826A1.752,1.752,0,0,1,4.257,24.43Z" transform="translate(0 -21.802)"/><path class="a" d="M28.5,150.479a4.888,4.888,0,0,1-2.274.581,4.789,4.789,0,0,1-2.75-.858H20.459a4.789,4.789,0,0,1-2.75.858,4.577,4.577,0,0,1-2.274-.581,2.182,2.182,0,0,0-1.031,1.853v6.75a2.2,2.2,0,0,0,2.142,2.241H27.413a2.2,2.2,0,0,0,2.142-2.241v-6.75a2.267,2.267,0,0,0-1.055-1.853Z" transform="translate(-13.452 -141.322)"/><path class="a" d="M133.061,30.709a4.458,4.458,0,1,0-4.257-4.454A4.356,4.356,0,0,0,133.061,30.709Zm0-6.279a1.828,1.828,0,1,1-1.745,1.826,1.785,1.785,0,0,1,1.745-1.826Z" transform="translate(-120.289 -21.802)"/></g></svg>