<svg xmlns="http://www.w3.org/2000/svg" width="28" height="28" viewBox="0 0 28 28"><defs><style>.a{fill:#FF8000;}.b{fill:#7a797e;}</style></defs><path class="a" d="M27.391,18.359a7.891,7.891,0,0,0-2.807.474,1.324,1.324,0,0,1,1.385,1.385l-.109,2.552a9.765,9.765,0,0,0-1.385.948l-2.333-1.167a1.478,1.478,0,0,1-.583-1.969,9.5,9.5,0,0,0-2.807,4.776,1.351,1.351,0,0,1,1.969-.474l2.224,1.385a2.949,2.949,0,0,0-.109.948,1.911,1.911,0,0,0,.109.8l-2.224,1.422a1.352,1.352,0,0,1-1.969-.474,8.356,8.356,0,0,0,2.807,4.776,1.351,1.351,0,0,1,.583-1.859l2.333-1.167a3.727,3.727,0,0,0,1.495.8l.146,2.589a1.293,1.293,0,0,1-1.422,1.385,10.072,10.072,0,0,0,2.807.474,8.061,8.061,0,0,0,2.917-.474,1.324,1.324,0,0,1-1.385-1.385l.109-2.589a8.478,8.478,0,0,0,1.385-.8l2.333,1.167a1.381,1.381,0,0,1,.583,1.859,8.745,8.745,0,0,0,2.807-4.776,1.407,1.407,0,0,1-1.969.583l-2.224-1.385c0-.233.109-.605.109-.838a1.911,1.911,0,0,0-.109-.8L34.281,25.1a1.372,1.372,0,0,1,1.969.474A8.355,8.355,0,0,0,33.443,20.8a1.268,1.268,0,0,1-.583,1.859l-2.333,1.167a8.478,8.478,0,0,0-1.385-.8l-.255-2.807a1.35,1.35,0,0,1,1.422-1.385A8.059,8.059,0,0,0,27.391,18.359Zm.109,6.635a2.308,2.308,0,0,1,2.224,2.224A2.157,2.157,0,0,1,27.5,29.443a2.224,2.224,0,0,1,0-4.448Z" transform="translate(-13.5 -13.039)"/><path class="b" d="M14,0A14,14,0,1,0,28,14,14.041,14.041,0,0,0,14,0Zm0,3.5A10.5,10.5,0,1,1,3.5,14,10.456,10.456,0,0,1,14,3.5Z" transform="translate(0 0)"/></svg>