<svg xmlns="http://www.w3.org/2000/svg" width="25.01" height="25.01" viewBox="0 0 25.01 25.01"><defs><style>.a{fill:#FF8000;}.b{fill:#7a797e;}</style></defs><path class="a" d="M26.468,18.359a7.049,7.049,0,0,0-2.508.423A1.183,1.183,0,0,1,25.2,20.02l-.1,2.28a8.722,8.722,0,0,0-1.238.847L21.779,22.1a1.32,1.32,0,0,1-.521-1.759,8.49,8.49,0,0,0-2.508,4.266,1.207,1.207,0,0,1,1.759-.423L22.5,25.426a2.634,2.634,0,0,0-.1.847,1.707,1.707,0,0,0,.1.716l-1.986,1.27a1.207,1.207,0,0,1-1.759-.423A7.463,7.463,0,0,0,21.258,32.1a1.207,1.207,0,0,1,.521-1.661L23.863,29.4a3.329,3.329,0,0,0,1.335.716l.13,2.312a1.155,1.155,0,0,1-1.27,1.237,9,9,0,0,0,2.508.423,7.2,7.2,0,0,0,2.605-.423,1.183,1.183,0,0,1-1.237-1.237l.1-2.312a7.572,7.572,0,0,0,1.237-.716l2.084,1.042a1.234,1.234,0,0,1,.521,1.661,7.811,7.811,0,0,0,2.507-4.266,1.257,1.257,0,0,1-1.759.521l-1.986-1.237c0-.208.1-.541.1-.749a1.707,1.707,0,0,0-.1-.716l1.986-1.27a1.226,1.226,0,0,1,1.759.423,7.463,7.463,0,0,0-2.507-4.266,1.132,1.132,0,0,1-.521,1.661l-2.084,1.042a7.573,7.573,0,0,0-1.237-.716L27.8,20.02a1.206,1.206,0,0,1,1.27-1.237A7.2,7.2,0,0,0,26.468,18.359Zm.1,5.927a2.061,2.061,0,0,1,1.987,1.986,1.927,1.927,0,0,1-1.987,1.987,1.986,1.986,0,0,1,0-3.973Z" transform="translate(-14.061 -13.607)"/><path class="b" d="M12.505,0A12.505,12.505,0,1,0,25.01,12.505,12.542,12.542,0,0,0,12.505,0Zm0,3.126a9.379,9.379,0,1,1-9.379,9.379A9.34,9.34,0,0,1,12.505,3.126Z" transform="translate(0 0)"/></svg>