<svg xmlns="http://www.w3.org/2000/svg" width="29" height="29" viewBox="0 0 29 29"><defs><style>.a,.d{fill:none;}.a{stroke:#7a797e;stroke-width:2px;}.b{fill:#7a797e;}.c{stroke:none;}</style></defs><g transform="translate(-0.396)"><g class="a" transform="translate(0.396)"><circle class="c" cx="14.5" cy="14.5" r="14.5"/><circle class="d" cx="14.5" cy="14.5" r="13.5"/></g><g transform="translate(8.299 6.94)"><path class="b" d="M19.541,38.749A1.6,1.6,0,0,0,18.169,37.5a42.648,42.648,0,0,0-4.753-.176,42.661,42.661,0,0,0-4.754.176,1.6,1.6,0,0,0-1.371,1.247,13.591,13.591,0,0,0-.224,3,13.589,13.589,0,0,0,.221,3A1.6,1.6,0,0,0,8.66,46a42.651,42.651,0,0,0,4.753.176A42.62,42.62,0,0,0,18.167,46a1.6,1.6,0,0,0,1.372-1.247,13.6,13.6,0,0,0,.222-3A13.609,13.609,0,0,0,19.541,38.749Zm-8.853.745H9.769v4.882H8.916V39.494h-.9v-.8h2.674Zm2.318,4.882h-.768v-.462a1.229,1.229,0,0,1-.877.52.471.471,0,0,1-.494-.315,2.161,2.161,0,0,1-.068-.63V40.142h.767v3.117a2.388,2.388,0,0,0,.007.3c.018.119.077.179.179.179.154,0,.315-.119.485-.359V40.142h.768v4.233Zm2.914-1.271a3.382,3.382,0,0,1-.078.853.607.607,0,0,1-.613.476,1.045,1.045,0,0,1-.793-.468v.41H13.67V38.694h.767V40.55a1.039,1.039,0,0,1,.793-.459.607.607,0,0,1,.613.478,3.251,3.251,0,0,1,.078.851Zm2.895-.706H17.281v.75c0,.392.128.588.392.588a.33.33,0,0,0,.343-.308,4.827,4.827,0,0,0,.017-.52h.783v.112c0,.247-.009.418-.016.494a1.093,1.093,0,0,1-.179.46,1.062,1.062,0,0,1-.928.459A1.1,1.1,0,0,1,16.763,44a1.64,1.64,0,0,1-.246-1V41.522a1.648,1.648,0,0,1,.237-1,1.09,1.09,0,0,1,.919-.434,1.065,1.065,0,0,1,.9.434,1.664,1.664,0,0,1,.237,1V42.4Z" transform="translate(-7.067 -31.136)"/><path class="b" d="M69.042,58.163q-.385,0-.385.587v.392h.767V58.75C69.424,58.359,69.3,58.163,69.042,58.163Z" transform="translate(-58.443 -48.518)"/><path class="b" d="M51.888,58.163a.55.55,0,0,0-.383.187v2.58a.547.547,0,0,0,.383.189c.221,0,.334-.189.334-.571V58.741C52.221,58.359,52.109,58.163,51.888,58.163Z" transform="translate(-44.136 -48.518)"/><path class="b" d="M53.538,13.157a1.245,1.245,0,0,0,.886-.525V13.1H55.2V8.82h-.775v3.27c-.172.243-.335.363-.49.363-.1,0-.165-.061-.182-.182a1.8,1.8,0,0,1-.009-.3V8.82H52.97V12.2a2.161,2.161,0,0,0,.069.636A.476.476,0,0,0,53.538,13.157Z" transform="translate(-45.358 -7.357)"/><path class="b" d="M18.434,3.416V5.741h.86V3.416L20.328,0h-.869l-.587,2.255L18.262,0h-.9c.181.532.37,1.067.551,1.6A14.142,14.142,0,0,1,18.434,3.416Z" transform="translate(-15.651)"/><path class="b" d="M36.458,12.9a1.057,1.057,0,0,0,.9-.438,1.674,1.674,0,0,0,.241-1.006v-1.5a1.677,1.677,0,0,0-.241-1.008,1.149,1.149,0,0,0-1.807,0,1.663,1.663,0,0,0-.243,1.008v1.5a1.658,1.658,0,0,0,.243,1.006A1.057,1.057,0,0,0,36.458,12.9Zm-.37-3.1c0-.4.12-.593.37-.593s.37.2.37.593v1.8c0,.4-.12.594-.37.594s-.37-.2-.37-.594Z" transform="translate(-30.629 -7.097)"/></g></g></svg>